G04 #@! TF.FileFunction,Copper,L2,Bot,Signal*
%FSLAX46Y46*%
G04 Gerber Fmt 4.6, Leading zero omitted, Abs format (unit mm)*
G04 Created by KiCad (PCBNEW 4.0.5) date 06/12/17 14:20:53*
%MOMM*%
%LPD*%
G01*
G04 APERTURE LIST*
%ADD10C,0.100000*%
%ADD11O,1.727200X2.800000*%
%ADD12R,1.879600X1.879600*%
%ADD13C,1.879600*%
%ADD14O,1.500000X0.900000*%
%ADD15R,1.500000X0.900000*%
%ADD16C,1.600000*%
%ADD17O,1.600000X1.600000*%
%ADD18R,1.600000X2.400000*%
%ADD19O,1.600000X2.400000*%
%ADD20C,0.600000*%
%ADD21C,0.600000*%
%ADD22C,0.500000*%
%ADD23C,0.250000*%
%ADD24C,0.900000*%
%ADD25C,0.254000*%
G04 APERTURE END LIST*
D10*
D11*
X176310000Y-136540000D03*
X173770000Y-136540000D03*
X171230000Y-136540000D03*
X168690000Y-136540000D03*
X166150000Y-136540000D03*
X163610000Y-136540000D03*
X161070000Y-136540000D03*
X158530000Y-136540000D03*
X176310000Y-131460000D03*
X173770000Y-131460000D03*
X171230000Y-131460000D03*
X168690000Y-131460000D03*
X166150000Y-131460000D03*
X163610000Y-131460000D03*
X161070000Y-131460000D03*
X158530000Y-131460000D03*
X107730000Y-131460000D03*
X107730000Y-136540000D03*
X110270000Y-131460000D03*
X110270000Y-136540000D03*
X112810000Y-131460000D03*
X112810000Y-136540000D03*
X115350000Y-131460000D03*
X115350000Y-136540000D03*
X120430000Y-131460000D03*
X120430000Y-136540000D03*
X122970000Y-131460000D03*
X122970000Y-136540000D03*
X125510000Y-131460000D03*
X125510000Y-136540000D03*
X128050000Y-131460000D03*
X128050000Y-136540000D03*
X130590000Y-131460000D03*
X130590000Y-136540000D03*
X133130000Y-131460000D03*
X133130000Y-136540000D03*
X135670000Y-131460000D03*
X135670000Y-136540000D03*
X138210000Y-131460000D03*
X138210000Y-136540000D03*
X140750000Y-131460000D03*
X140750000Y-136540000D03*
X143290000Y-131460000D03*
X143290000Y-136540000D03*
X145830000Y-131460000D03*
X145830000Y-136540000D03*
X148370000Y-131460000D03*
X148370000Y-136540000D03*
X150910000Y-131460000D03*
X150910000Y-136540000D03*
X153450000Y-131460000D03*
X153450000Y-136540000D03*
X155990000Y-131460000D03*
X155990000Y-136540000D03*
D12*
X119120000Y-46270000D03*
D13*
X119120000Y-43730000D03*
X121660000Y-46270000D03*
X121660000Y-43730000D03*
X124200000Y-46270000D03*
X124200000Y-43730000D03*
X126740000Y-46270000D03*
X126740000Y-43730000D03*
X129280000Y-46270000D03*
X129280000Y-43730000D03*
X131820000Y-46270000D03*
X131820000Y-43730000D03*
X134360000Y-46270000D03*
X134360000Y-43730000D03*
X136900000Y-46270000D03*
X136900000Y-43730000D03*
X139440000Y-46270000D03*
X139440000Y-43730000D03*
X141980000Y-46270000D03*
X141980000Y-43730000D03*
X144520000Y-46270000D03*
X144520000Y-43730000D03*
X147060000Y-46270000D03*
X147060000Y-43730000D03*
X149600000Y-46270000D03*
X149600000Y-43730000D03*
X152140000Y-46270000D03*
X152140000Y-43730000D03*
X154680000Y-46270000D03*
X154680000Y-43730000D03*
X157220000Y-46270000D03*
X157220000Y-43730000D03*
X159760000Y-46270000D03*
X159760000Y-43730000D03*
X162300000Y-46270000D03*
X162300000Y-43730000D03*
X164840000Y-46270000D03*
X164840000Y-43730000D03*
X167380000Y-46270000D03*
X167380000Y-43730000D03*
D14*
X119380000Y-57150000D03*
X119380000Y-58420000D03*
D15*
X119380000Y-55880000D03*
D16*
X129540000Y-57150000D03*
D17*
X144780000Y-57150000D03*
D18*
X167640000Y-55880000D03*
D19*
X152400000Y-63500000D03*
X165100000Y-55880000D03*
X154940000Y-63500000D03*
X162560000Y-55880000D03*
X157480000Y-63500000D03*
X160020000Y-55880000D03*
X160020000Y-63500000D03*
X157480000Y-55880000D03*
X162560000Y-63500000D03*
X154940000Y-55880000D03*
X165100000Y-63500000D03*
X152400000Y-55880000D03*
X167640000Y-63500000D03*
D20*
X178452780Y-52387500D03*
X172720000Y-50292000D03*
X167640000Y-50292000D03*
X111857790Y-60112909D03*
X115713509Y-54021990D03*
X144296130Y-114819430D03*
X129539724Y-78255598D03*
X119380000Y-88900000D03*
X136652000Y-71120000D03*
X121412000Y-81280000D03*
X129540000Y-73152000D03*
X136652000Y-66548000D03*
X123444000Y-75184000D03*
X129540000Y-68580000D03*
X136652000Y-61976000D03*
X124989590Y-55307230D03*
X127508000Y-55372000D03*
X137160000Y-125984000D03*
X137160000Y-110744000D03*
X135636000Y-111760000D03*
X148365513Y-101211323D03*
X148336000Y-65024000D03*
X146812000Y-121412000D03*
X146812000Y-104140000D03*
X146812000Y-67056000D03*
X148844000Y-48768000D03*
D21*
X166150000Y-136540000D02*
X166150000Y-136003600D01*
X179025339Y-132886661D02*
X179025339Y-129502732D01*
X173285116Y-118502765D02*
X178643280Y-113144601D01*
X166150000Y-136003600D02*
X168112720Y-134040880D01*
X168112720Y-134040880D02*
X177871120Y-134040880D01*
X178643280Y-113144601D02*
X178643280Y-53002264D01*
X177871120Y-134040880D02*
X179025339Y-132886661D01*
X179025339Y-129502732D02*
X177587208Y-128064601D01*
X177587208Y-128064601D02*
X175263894Y-128064601D01*
X175263894Y-128064601D02*
X173285116Y-126085823D01*
X173285116Y-126085823D02*
X173285116Y-118502765D01*
X178643280Y-53002264D02*
X178452780Y-52811764D01*
X178452780Y-52811764D02*
X178452780Y-52387500D01*
X165100000Y-55880000D02*
X165100000Y-63500000D01*
X172720000Y-50292000D02*
X172719691Y-50292309D01*
X172719691Y-50292309D02*
X172719691Y-114370438D01*
X172719691Y-114370438D02*
X171230000Y-115860129D01*
X171230000Y-115860129D02*
X171230000Y-131460000D01*
X162300000Y-46270000D02*
X162300000Y-48508000D01*
X164084000Y-50292000D02*
X167640000Y-50292000D01*
X162300000Y-48508000D02*
X164084000Y-50292000D01*
X166150000Y-131460000D02*
X166150000Y-75218000D01*
X160020000Y-69088000D02*
X160020000Y-63500000D01*
X166150000Y-75218000D02*
X160020000Y-69088000D01*
D22*
X162300000Y-43730000D02*
X162300000Y-42412000D01*
X162300000Y-42412000D02*
X161544000Y-41656000D01*
X161544000Y-41656000D02*
X115316000Y-41656000D01*
X114176810Y-125241050D02*
X110270000Y-129147860D01*
X115316000Y-41656000D02*
X114176810Y-42795190D01*
X114176810Y-42795190D02*
X114176810Y-125241050D01*
X110270000Y-129147860D02*
X110270000Y-131460000D01*
D21*
X110270000Y-136540000D02*
X110270000Y-135095960D01*
X110270000Y-135095960D02*
X109173645Y-133999605D01*
X109173645Y-133999605D02*
X106316145Y-133999605D01*
X106316145Y-133999605D02*
X105190933Y-132874393D01*
X105190933Y-132874393D02*
X105190933Y-129181217D01*
X105190933Y-129181217D02*
X106473453Y-127898697D01*
X106473453Y-127898697D02*
X108633397Y-127898697D01*
X108633397Y-127898697D02*
X111857790Y-124674304D01*
X111857790Y-124674304D02*
X111857790Y-60537173D01*
X111857790Y-60537173D02*
X111857790Y-60112909D01*
X112810000Y-131460000D02*
X112810000Y-129273763D01*
X112810000Y-129273763D02*
X115713509Y-126370254D01*
X115713509Y-126370254D02*
X115713509Y-54446254D01*
X115713509Y-54446254D02*
X115713509Y-54021990D01*
D22*
X167640000Y-63100000D02*
X167640000Y-63500000D01*
X166914000Y-41656000D02*
X168656000Y-41656000D01*
X164840000Y-43730000D02*
X166914000Y-41656000D01*
X168940000Y-61800000D02*
X167640000Y-63100000D01*
X168940000Y-41940000D02*
X168940000Y-61800000D01*
X168656000Y-41656000D02*
X168940000Y-41940000D01*
D21*
X112810000Y-136540000D02*
X112810000Y-136003600D01*
X112810000Y-136003600D02*
X114911150Y-133902450D01*
X114911150Y-133902450D02*
X116886990Y-133902450D01*
X116886990Y-133902450D02*
X117864890Y-132924550D01*
X117864890Y-132924550D02*
X117864890Y-116635530D01*
X117864890Y-116635530D02*
X119680990Y-114819430D01*
X119680990Y-114819430D02*
X143871866Y-114819430D01*
X143871866Y-114819430D02*
X144296130Y-114819430D01*
X129539724Y-78679862D02*
X129539724Y-78255598D01*
X129539724Y-78740276D02*
X129539724Y-78679862D01*
X119380000Y-88900000D02*
X129539724Y-78740276D01*
X139440000Y-46270000D02*
X139440000Y-48000000D01*
X140716000Y-67056000D02*
X136652000Y-71120000D01*
X140716000Y-49276000D02*
X140716000Y-67056000D01*
X139440000Y-48000000D02*
X140716000Y-49276000D01*
X136900000Y-46270000D02*
X136900000Y-48508000D01*
X129540000Y-73152000D02*
X121412000Y-81280000D01*
X138684000Y-64516000D02*
X136652000Y-66548000D01*
X138684000Y-50292000D02*
X138684000Y-64516000D01*
X136900000Y-48508000D02*
X138684000Y-50292000D01*
X134360000Y-46270000D02*
X134360000Y-49016000D01*
X123444000Y-74676000D02*
X123444000Y-75184000D01*
X129540000Y-68580000D02*
X123444000Y-74676000D01*
X136652000Y-51308000D02*
X136652000Y-61976000D01*
X134360000Y-49016000D02*
X136652000Y-51308000D01*
X124689591Y-55007231D02*
X124989590Y-55307230D01*
X124200000Y-54517640D02*
X124689591Y-55007231D01*
X124200000Y-46270000D02*
X124200000Y-54517640D01*
X126740000Y-46270000D02*
X126740000Y-54604000D01*
X126740000Y-54604000D02*
X127508000Y-55372000D01*
X137160000Y-125984000D02*
X137157212Y-125986788D01*
X137157212Y-125986788D02*
X134887846Y-125986788D01*
X134887846Y-125986788D02*
X133130000Y-127744634D01*
X133130000Y-127744634D02*
X133130000Y-131460000D01*
X131820000Y-46270000D02*
X131820000Y-49524000D01*
X134620000Y-108204000D02*
X137160000Y-110744000D01*
X134620000Y-52324000D02*
X134620000Y-108204000D01*
X131820000Y-49524000D02*
X134620000Y-52324000D01*
X129280000Y-46270000D02*
X129280000Y-50540000D01*
X129280000Y-50540000D02*
X132861050Y-54121050D01*
X132861050Y-54121050D02*
X132861050Y-108985050D01*
X132861050Y-108985050D02*
X135636000Y-111760000D01*
X148370000Y-101215810D02*
X148365513Y-101211323D01*
X148370000Y-131460000D02*
X148370000Y-101215810D01*
X157480000Y-58420000D02*
X157480000Y-55880000D01*
X156464000Y-59436000D02*
X157480000Y-58420000D01*
X151892000Y-59436000D02*
X156464000Y-59436000D01*
X148336000Y-62992000D02*
X151892000Y-59436000D01*
X148336000Y-65024000D02*
X148336000Y-62992000D01*
X160020000Y-55880000D02*
X157480000Y-55880000D01*
X162560000Y-55880000D02*
X160020000Y-55880000D01*
X148844000Y-48768000D02*
X148875750Y-48799750D01*
X148875750Y-48799750D02*
X148875750Y-57740550D01*
X148875750Y-57740550D02*
X146812000Y-59804300D01*
X146812000Y-59804300D02*
X146812000Y-67056000D01*
X146812000Y-104140000D02*
X146812000Y-121412000D01*
X153450000Y-131460000D02*
X153450000Y-87410000D01*
X147060000Y-49028000D02*
X147060000Y-46270000D01*
X143256000Y-52832000D02*
X147060000Y-49028000D01*
X143256000Y-77216000D02*
X143256000Y-52832000D01*
X153450000Y-87410000D02*
X143256000Y-77216000D01*
D23*
X155990000Y-136540000D02*
X155990000Y-135162000D01*
X155990000Y-135162000D02*
X154686000Y-133858000D01*
X154686000Y-133858000D02*
X154686000Y-86677500D01*
X154686000Y-86677500D02*
X144780000Y-76771500D01*
X144780000Y-76771500D02*
X144780000Y-57150000D01*
D24*
X119120000Y-46270000D02*
X119120000Y-55620000D01*
X119120000Y-55620000D02*
X119380000Y-55880000D01*
X119380000Y-57150000D02*
X129540000Y-57150000D01*
D25*
G36*
X179920574Y-40777535D02*
X180700999Y-41298998D01*
X181222465Y-42079425D01*
X181417000Y-43057422D01*
X181417000Y-136942578D01*
X181222465Y-137920575D01*
X180700999Y-138701002D01*
X179920574Y-139222465D01*
X178942579Y-139417000D01*
X105057422Y-139417000D01*
X104079425Y-139222465D01*
X103298998Y-138700999D01*
X102777535Y-137920574D01*
X102583000Y-136942579D01*
X102583000Y-129181217D01*
X104382933Y-129181217D01*
X104382933Y-132874393D01*
X104444438Y-133183602D01*
X104619591Y-133445735D01*
X105744803Y-134570947D01*
X106006936Y-134746100D01*
X106316145Y-134807605D01*
X107042612Y-134807605D01*
X106760132Y-134996352D01*
X106462807Y-135441331D01*
X106358400Y-135966220D01*
X106358400Y-137113780D01*
X106462807Y-137638669D01*
X106760132Y-138083648D01*
X107205111Y-138380973D01*
X107730000Y-138485380D01*
X108254889Y-138380973D01*
X108699868Y-138083648D01*
X108997193Y-137638669D01*
X109000000Y-137624557D01*
X109002807Y-137638669D01*
X109300132Y-138083648D01*
X109745111Y-138380973D01*
X110270000Y-138485380D01*
X110794889Y-138380973D01*
X111239868Y-138083648D01*
X111537193Y-137638669D01*
X111540000Y-137624557D01*
X111542807Y-137638669D01*
X111840132Y-138083648D01*
X112285111Y-138380973D01*
X112810000Y-138485380D01*
X113334889Y-138380973D01*
X113779868Y-138083648D01*
X114077193Y-137638669D01*
X114080000Y-137624557D01*
X114082807Y-137638669D01*
X114380132Y-138083648D01*
X114825111Y-138380973D01*
X115350000Y-138485380D01*
X115874889Y-138380973D01*
X116319868Y-138083648D01*
X116617193Y-137638669D01*
X116721600Y-137113780D01*
X116721600Y-136667000D01*
X118931400Y-136667000D01*
X118931400Y-137203400D01*
X119094075Y-137767222D01*
X119460132Y-138225873D01*
X119973843Y-138509527D01*
X120070974Y-138531358D01*
X120303000Y-138410217D01*
X120303000Y-136667000D01*
X120557000Y-136667000D01*
X120557000Y-138410217D01*
X120789026Y-138531358D01*
X120886157Y-138509527D01*
X121399868Y-138225873D01*
X121700000Y-137849823D01*
X122000132Y-138225873D01*
X122513843Y-138509527D01*
X122610974Y-138531358D01*
X122843000Y-138410217D01*
X122843000Y-136667000D01*
X120557000Y-136667000D01*
X120303000Y-136667000D01*
X118931400Y-136667000D01*
X116721600Y-136667000D01*
X116721600Y-135966220D01*
X116703774Y-135876600D01*
X118931400Y-135876600D01*
X118931400Y-136413000D01*
X120303000Y-136413000D01*
X120303000Y-134669783D01*
X120557000Y-134669783D01*
X120557000Y-136413000D01*
X122843000Y-136413000D01*
X122843000Y-134669783D01*
X123097000Y-134669783D01*
X123097000Y-136413000D01*
X123117000Y-136413000D01*
X123117000Y-136667000D01*
X123097000Y-136667000D01*
X123097000Y-138410217D01*
X123329026Y-138531358D01*
X123426157Y-138509527D01*
X123939868Y-138225873D01*
X124305925Y-137767222D01*
X124312794Y-137743413D01*
X124540132Y-138083648D01*
X124985111Y-138380973D01*
X125510000Y-138485380D01*
X126034889Y-138380973D01*
X126479868Y-138083648D01*
X126777193Y-137638669D01*
X126780000Y-137624557D01*
X126782807Y-137638669D01*
X127080132Y-138083648D01*
X127525111Y-138380973D01*
X128050000Y-138485380D01*
X128574889Y-138380973D01*
X129019868Y-138083648D01*
X129317193Y-137638669D01*
X129320000Y-137624557D01*
X129322807Y-137638669D01*
X129620132Y-138083648D01*
X130065111Y-138380973D01*
X130590000Y-138485380D01*
X131114889Y-138380973D01*
X131559868Y-138083648D01*
X131857193Y-137638669D01*
X131860000Y-137624557D01*
X131862807Y-137638669D01*
X132160132Y-138083648D01*
X132605111Y-138380973D01*
X133130000Y-138485380D01*
X133654889Y-138380973D01*
X134099868Y-138083648D01*
X134397193Y-137638669D01*
X134400000Y-137624557D01*
X134402807Y-137638669D01*
X134700132Y-138083648D01*
X135145111Y-138380973D01*
X135670000Y-138485380D01*
X136194889Y-138380973D01*
X136639868Y-138083648D01*
X136937193Y-137638669D01*
X136940000Y-137624557D01*
X136942807Y-137638669D01*
X137240132Y-138083648D01*
X137685111Y-138380973D01*
X138210000Y-138485380D01*
X138734889Y-138380973D01*
X139179868Y-138083648D01*
X139407206Y-137743413D01*
X139414075Y-137767222D01*
X139780132Y-138225873D01*
X140293843Y-138509527D01*
X140390974Y-138531358D01*
X140623000Y-138410217D01*
X140623000Y-136667000D01*
X140603000Y-136667000D01*
X140603000Y-136413000D01*
X140623000Y-136413000D01*
X140623000Y-134669783D01*
X140390974Y-134548642D01*
X140293843Y-134570473D01*
X139780132Y-134854127D01*
X139414075Y-135312778D01*
X139407206Y-135336587D01*
X139179868Y-134996352D01*
X138734889Y-134699027D01*
X138210000Y-134594620D01*
X137685111Y-134699027D01*
X137240132Y-134996352D01*
X136942807Y-135441331D01*
X136940000Y-135455443D01*
X136937193Y-135441331D01*
X136639868Y-134996352D01*
X136194889Y-134699027D01*
X135670000Y-134594620D01*
X135145111Y-134699027D01*
X134700132Y-134996352D01*
X134402807Y-135441331D01*
X134400000Y-135455443D01*
X134397193Y-135441331D01*
X134099868Y-134996352D01*
X133654889Y-134699027D01*
X133130000Y-134594620D01*
X132605111Y-134699027D01*
X132160132Y-134996352D01*
X131862807Y-135441331D01*
X131860000Y-135455443D01*
X131857193Y-135441331D01*
X131559868Y-134996352D01*
X131114889Y-134699027D01*
X130590000Y-134594620D01*
X130065111Y-134699027D01*
X129620132Y-134996352D01*
X129322807Y-135441331D01*
X129320000Y-135455443D01*
X129317193Y-135441331D01*
X129019868Y-134996352D01*
X128574889Y-134699027D01*
X128050000Y-134594620D01*
X127525111Y-134699027D01*
X127080132Y-134996352D01*
X126782807Y-135441331D01*
X126780000Y-135455443D01*
X126777193Y-135441331D01*
X126479868Y-134996352D01*
X126034889Y-134699027D01*
X125510000Y-134594620D01*
X124985111Y-134699027D01*
X124540132Y-134996352D01*
X124312794Y-135336587D01*
X124305925Y-135312778D01*
X123939868Y-134854127D01*
X123426157Y-134570473D01*
X123329026Y-134548642D01*
X123097000Y-134669783D01*
X122843000Y-134669783D01*
X122610974Y-134548642D01*
X122513843Y-134570473D01*
X122000132Y-134854127D01*
X121700000Y-135230177D01*
X121399868Y-134854127D01*
X120886157Y-134570473D01*
X120789026Y-134548642D01*
X120557000Y-134669783D01*
X120303000Y-134669783D01*
X120070974Y-134548642D01*
X119973843Y-134570473D01*
X119460132Y-134854127D01*
X119094075Y-135312778D01*
X118931400Y-135876600D01*
X116703774Y-135876600D01*
X116617193Y-135441331D01*
X116319868Y-134996352D01*
X115891985Y-134710450D01*
X116886990Y-134710450D01*
X117196199Y-134648945D01*
X117458332Y-134473792D01*
X118436232Y-133495893D01*
X118611384Y-133233759D01*
X118611385Y-133233758D01*
X118672890Y-132924550D01*
X118672890Y-116970214D01*
X120015674Y-115627430D01*
X144295425Y-115627430D01*
X144456146Y-115627570D01*
X144753227Y-115504819D01*
X144980720Y-115277723D01*
X145103990Y-114980856D01*
X145104270Y-114659414D01*
X144981519Y-114362333D01*
X144754423Y-114134840D01*
X144457556Y-114011570D01*
X144136114Y-114011290D01*
X144135775Y-114011430D01*
X119680990Y-114011430D01*
X119430627Y-114061230D01*
X119371781Y-114072935D01*
X119109648Y-114248088D01*
X117293548Y-116064188D01*
X117118395Y-116326321D01*
X117118395Y-116326322D01*
X117056890Y-116635530D01*
X117056890Y-132589865D01*
X116552306Y-133094450D01*
X116183973Y-133094450D01*
X116319868Y-133003648D01*
X116617193Y-132558669D01*
X116721600Y-132033780D01*
X116721600Y-130886220D01*
X116617193Y-130361331D01*
X116319868Y-129916352D01*
X115874889Y-129619027D01*
X115350000Y-129514620D01*
X114825111Y-129619027D01*
X114380132Y-129916352D01*
X114082807Y-130361331D01*
X114080000Y-130375443D01*
X114077193Y-130361331D01*
X113779868Y-129916352D01*
X113618000Y-129808195D01*
X113618000Y-129608447D01*
X116284851Y-126941596D01*
X116460004Y-126679462D01*
X116521509Y-126370254D01*
X116521509Y-89060016D01*
X118571860Y-89060016D01*
X118694611Y-89357097D01*
X118921707Y-89584590D01*
X119218574Y-89707860D01*
X119540016Y-89708140D01*
X119837097Y-89585389D01*
X120064590Y-89358293D01*
X120064731Y-89357953D01*
X130111066Y-79311619D01*
X130228099Y-79136466D01*
X130286219Y-79049484D01*
X130347724Y-78740276D01*
X130347724Y-78256303D01*
X130347864Y-78095582D01*
X130225113Y-77798501D01*
X129998017Y-77571008D01*
X129701150Y-77447738D01*
X129379708Y-77447458D01*
X129082627Y-77570209D01*
X128855134Y-77797305D01*
X128731864Y-78094172D01*
X128731593Y-78405722D01*
X118809443Y-88327873D01*
X118695410Y-88441707D01*
X118572140Y-88738574D01*
X118571860Y-89060016D01*
X116521509Y-89060016D01*
X116521509Y-81440016D01*
X120603860Y-81440016D01*
X120726611Y-81737097D01*
X120953707Y-81964590D01*
X121250574Y-82087860D01*
X121572016Y-82088140D01*
X121869097Y-81965389D01*
X122096590Y-81738293D01*
X122096731Y-81737953D01*
X130110557Y-73724127D01*
X130224590Y-73610293D01*
X130347860Y-73313426D01*
X130348140Y-72991984D01*
X130225389Y-72694903D01*
X129998293Y-72467410D01*
X129701426Y-72344140D01*
X129379984Y-72343860D01*
X129082903Y-72466611D01*
X128855410Y-72693707D01*
X128855269Y-72694047D01*
X120841443Y-80707873D01*
X120727410Y-80821707D01*
X120604140Y-81118574D01*
X120603860Y-81440016D01*
X116521509Y-81440016D01*
X116521509Y-75344016D01*
X122635860Y-75344016D01*
X122758611Y-75641097D01*
X122985707Y-75868590D01*
X123282574Y-75991860D01*
X123604016Y-75992140D01*
X123901097Y-75869389D01*
X124128590Y-75642293D01*
X124251860Y-75345426D01*
X124252140Y-75023984D01*
X124252000Y-75023645D01*
X124252000Y-75010684D01*
X130110557Y-69152127D01*
X130224590Y-69038293D01*
X130347860Y-68741426D01*
X130348140Y-68419984D01*
X130225389Y-68122903D01*
X129998293Y-67895410D01*
X129701426Y-67772140D01*
X129379984Y-67771860D01*
X129082903Y-67894611D01*
X128855410Y-68121707D01*
X128855269Y-68122047D01*
X122872658Y-74104658D01*
X122697505Y-74366791D01*
X122688910Y-74410000D01*
X122636000Y-74676000D01*
X122636000Y-75183295D01*
X122635860Y-75344016D01*
X116521509Y-75344016D01*
X116521509Y-58714001D01*
X118035592Y-58714001D01*
X118222987Y-59097408D01*
X118547456Y-59373808D01*
X118953000Y-59505000D01*
X119253000Y-59505000D01*
X119253000Y-58547000D01*
X119507000Y-58547000D01*
X119507000Y-59505000D01*
X119807000Y-59505000D01*
X120212544Y-59373808D01*
X120537013Y-59097408D01*
X120724408Y-58714001D01*
X120597502Y-58547000D01*
X119507000Y-58547000D01*
X119253000Y-58547000D01*
X118162498Y-58547000D01*
X118035592Y-58714001D01*
X116521509Y-58714001D01*
X116521509Y-54022695D01*
X116521649Y-53861974D01*
X116398898Y-53564893D01*
X116171802Y-53337400D01*
X115874935Y-53214130D01*
X115553493Y-53213850D01*
X115256412Y-53336601D01*
X115028919Y-53563697D01*
X114934810Y-53790337D01*
X114934810Y-43109164D01*
X115629974Y-42414000D01*
X118263155Y-42414000D01*
X118190637Y-42621032D01*
X119120000Y-43550395D01*
X120049363Y-42621032D01*
X119976845Y-42414000D01*
X121053691Y-42414000D01*
X120840959Y-42501899D01*
X120460468Y-42881726D01*
X120228968Y-42800637D01*
X119299605Y-43730000D01*
X119313748Y-43744143D01*
X119134143Y-43923748D01*
X119120000Y-43909605D01*
X119105858Y-43923748D01*
X118926253Y-43744143D01*
X118940395Y-43730000D01*
X118011032Y-42800637D01*
X117750420Y-42891923D01*
X117533955Y-43479833D01*
X117558951Y-44105828D01*
X117750420Y-44568077D01*
X118011030Y-44659362D01*
X117896588Y-44773804D01*
X117978869Y-44856085D01*
X117819047Y-44958928D01*
X117703055Y-45128688D01*
X117662248Y-45330200D01*
X117662248Y-47209800D01*
X117697670Y-47398053D01*
X117808928Y-47570953D01*
X117978688Y-47686945D01*
X118162000Y-47724066D01*
X118162000Y-55215104D01*
X118152855Y-55228488D01*
X118112048Y-55430000D01*
X118112048Y-56330000D01*
X118147470Y-56518253D01*
X118245570Y-56670705D01*
X118170277Y-56783389D01*
X118097354Y-57150000D01*
X118170277Y-57516611D01*
X118285622Y-57689236D01*
X118222987Y-57742592D01*
X118035592Y-58125999D01*
X118162498Y-58293000D01*
X119253000Y-58293000D01*
X119253000Y-58273000D01*
X119507000Y-58273000D01*
X119507000Y-58293000D01*
X120597502Y-58293000D01*
X120724408Y-58125999D01*
X120715611Y-58108000D01*
X128648150Y-58108000D01*
X128798110Y-58258222D01*
X129278681Y-58457772D01*
X129799036Y-58458226D01*
X130279954Y-58259515D01*
X130648222Y-57891890D01*
X130847772Y-57411319D01*
X130848226Y-56890964D01*
X130649515Y-56410046D01*
X130281890Y-56041778D01*
X129801319Y-55842228D01*
X129280964Y-55841774D01*
X128800046Y-56040485D01*
X128648266Y-56192000D01*
X120647952Y-56192000D01*
X120647952Y-55430000D01*
X120612530Y-55241747D01*
X120501272Y-55068847D01*
X120331512Y-54952855D01*
X120130000Y-54912048D01*
X120078000Y-54912048D01*
X120078000Y-47724327D01*
X120248053Y-47692330D01*
X120420953Y-47581072D01*
X120536945Y-47411312D01*
X120573484Y-47230874D01*
X120838816Y-47496669D01*
X121370751Y-47717548D01*
X121946722Y-47718051D01*
X122479041Y-47498101D01*
X122886669Y-47091184D01*
X122929833Y-46987234D01*
X122971899Y-47089041D01*
X123378816Y-47496669D01*
X123392000Y-47502143D01*
X123392000Y-54517640D01*
X123453505Y-54826849D01*
X123628658Y-55088982D01*
X124118249Y-55578573D01*
X124418035Y-55878360D01*
X124531297Y-55991820D01*
X124828164Y-56115090D01*
X125149606Y-56115370D01*
X125446687Y-55992619D01*
X125560931Y-55878574D01*
X125560933Y-55878573D01*
X125560934Y-55878571D01*
X125674180Y-55765523D01*
X125797450Y-55468656D01*
X125797730Y-55147214D01*
X125674979Y-54850133D01*
X125447883Y-54622640D01*
X125447544Y-54622499D01*
X125260933Y-54435889D01*
X125008000Y-54182956D01*
X125008000Y-47502663D01*
X125019041Y-47498101D01*
X125426669Y-47091184D01*
X125469833Y-46987234D01*
X125511899Y-47089041D01*
X125918816Y-47496669D01*
X125932000Y-47502143D01*
X125932000Y-54604000D01*
X125993505Y-54913209D01*
X126168658Y-55175342D01*
X126935873Y-55942557D01*
X127049707Y-56056590D01*
X127346574Y-56179860D01*
X127668016Y-56180140D01*
X127965097Y-56057389D01*
X128192590Y-55830293D01*
X128315860Y-55533426D01*
X128316140Y-55211984D01*
X128193389Y-54914903D01*
X127966293Y-54687410D01*
X127965953Y-54687269D01*
X127548000Y-54269316D01*
X127548000Y-47502663D01*
X127559041Y-47498101D01*
X127966669Y-47091184D01*
X128009833Y-46987234D01*
X128051899Y-47089041D01*
X128458816Y-47496669D01*
X128472000Y-47502143D01*
X128472000Y-50540000D01*
X128533505Y-50849209D01*
X128708658Y-51111342D01*
X132053050Y-54455735D01*
X132053050Y-108985050D01*
X132114555Y-109294259D01*
X132289708Y-109556392D01*
X135063873Y-112330557D01*
X135177707Y-112444590D01*
X135474574Y-112567860D01*
X135796016Y-112568140D01*
X136093097Y-112445389D01*
X136320590Y-112218293D01*
X136443860Y-111921426D01*
X136444140Y-111599984D01*
X136321389Y-111302903D01*
X136094293Y-111075410D01*
X136093953Y-111075269D01*
X133669050Y-108650366D01*
X133669050Y-54121050D01*
X133607545Y-53811842D01*
X133532653Y-53699759D01*
X133432392Y-53549707D01*
X130088000Y-50205316D01*
X130088000Y-47502663D01*
X130099041Y-47498101D01*
X130506669Y-47091184D01*
X130549833Y-46987234D01*
X130591899Y-47089041D01*
X130998816Y-47496669D01*
X131012000Y-47502143D01*
X131012000Y-49524000D01*
X131073505Y-49833209D01*
X131248658Y-50095342D01*
X133812000Y-52658684D01*
X133812000Y-108204000D01*
X133873505Y-108513209D01*
X134048658Y-108775342D01*
X136588445Y-111315130D01*
X136701707Y-111428590D01*
X136998574Y-111551860D01*
X137320016Y-111552140D01*
X137617097Y-111429389D01*
X137844590Y-111202293D01*
X137967860Y-110905426D01*
X137968140Y-110583984D01*
X137845389Y-110286903D01*
X137618293Y-110059410D01*
X137617954Y-110059269D01*
X135428000Y-107869316D01*
X135428000Y-52324000D01*
X135379126Y-52078292D01*
X135366495Y-52014791D01*
X135191342Y-51752658D01*
X132628000Y-49189316D01*
X132628000Y-47502663D01*
X132639041Y-47498101D01*
X133046669Y-47091184D01*
X133089833Y-46987234D01*
X133131899Y-47089041D01*
X133538816Y-47496669D01*
X133552000Y-47502143D01*
X133552000Y-49016000D01*
X133613505Y-49325209D01*
X133788658Y-49587342D01*
X135844000Y-51642685D01*
X135844000Y-61975295D01*
X135843860Y-62136016D01*
X135966611Y-62433097D01*
X136193707Y-62660590D01*
X136490574Y-62783860D01*
X136812016Y-62784140D01*
X137109097Y-62661389D01*
X137336590Y-62434293D01*
X137459860Y-62137426D01*
X137460140Y-61815984D01*
X137460000Y-61815645D01*
X137460000Y-51308000D01*
X137398495Y-50998792D01*
X137340375Y-50911810D01*
X137223342Y-50736657D01*
X135168000Y-48681316D01*
X135168000Y-47502663D01*
X135179041Y-47498101D01*
X135586669Y-47091184D01*
X135629833Y-46987234D01*
X135671899Y-47089041D01*
X136078816Y-47496669D01*
X136092000Y-47502143D01*
X136092000Y-48508000D01*
X136153505Y-48817209D01*
X136328658Y-49079342D01*
X137876000Y-50626684D01*
X137876000Y-64181316D01*
X136081443Y-65975873D01*
X135967410Y-66089707D01*
X135844140Y-66386574D01*
X135843860Y-66708016D01*
X135966611Y-67005097D01*
X136193707Y-67232590D01*
X136490574Y-67355860D01*
X136812016Y-67356140D01*
X137109097Y-67233389D01*
X137336590Y-67006293D01*
X137336731Y-67005953D01*
X139255342Y-65087342D01*
X139430495Y-64825209D01*
X139492000Y-64516000D01*
X139492000Y-50292000D01*
X139459891Y-50130574D01*
X139430495Y-49982791D01*
X139255342Y-49720658D01*
X137708000Y-48173316D01*
X137708000Y-47502663D01*
X137719041Y-47498101D01*
X138126669Y-47091184D01*
X138169833Y-46987234D01*
X138211899Y-47089041D01*
X138618816Y-47496669D01*
X138632000Y-47502143D01*
X138632000Y-48000000D01*
X138693505Y-48309209D01*
X138868658Y-48571342D01*
X139908000Y-49610685D01*
X139908000Y-66721316D01*
X136081443Y-70547873D01*
X135967410Y-70661707D01*
X135844140Y-70958574D01*
X135843860Y-71280016D01*
X135966611Y-71577097D01*
X136193707Y-71804590D01*
X136490574Y-71927860D01*
X136812016Y-71928140D01*
X137109097Y-71805389D01*
X137336590Y-71578293D01*
X137336731Y-71577953D01*
X141287342Y-67627342D01*
X141462495Y-67365209D01*
X141524000Y-67056000D01*
X141524000Y-49276000D01*
X141462495Y-48966792D01*
X141436586Y-48928016D01*
X141287343Y-48704658D01*
X140248000Y-47665316D01*
X140248000Y-47502663D01*
X140259041Y-47498101D01*
X140378382Y-47378968D01*
X141050637Y-47378968D01*
X141141923Y-47639580D01*
X141729833Y-47856045D01*
X142355828Y-47831049D01*
X142818077Y-47639580D01*
X142909363Y-47378968D01*
X141980000Y-46449605D01*
X141050637Y-47378968D01*
X140378382Y-47378968D01*
X140639532Y-47118274D01*
X140871032Y-47199363D01*
X141800395Y-46270000D01*
X140871032Y-45340637D01*
X140639078Y-45421885D01*
X140261184Y-45043331D01*
X140157234Y-45000167D01*
X140259041Y-44958101D01*
X140666669Y-44551184D01*
X140709833Y-44447234D01*
X140751899Y-44549041D01*
X141131726Y-44929532D01*
X141050637Y-45161032D01*
X141980000Y-46090395D01*
X142909363Y-45161032D01*
X142828115Y-44929078D01*
X143179532Y-44578274D01*
X143411032Y-44659363D01*
X144340395Y-43730000D01*
X144699605Y-43730000D01*
X145628968Y-44659363D01*
X145790000Y-44602957D01*
X145951032Y-44659363D01*
X146880395Y-43730000D01*
X147239605Y-43730000D01*
X148168968Y-44659363D01*
X148330000Y-44602957D01*
X148491032Y-44659363D01*
X149420395Y-43730000D01*
X148491032Y-42800637D01*
X148330000Y-42857043D01*
X148168968Y-42800637D01*
X147239605Y-43730000D01*
X146880395Y-43730000D01*
X145951032Y-42800637D01*
X145790000Y-42857043D01*
X145628968Y-42800637D01*
X144699605Y-43730000D01*
X144340395Y-43730000D01*
X143411032Y-42800637D01*
X143179078Y-42881885D01*
X142801184Y-42503331D01*
X142586051Y-42414000D01*
X143663155Y-42414000D01*
X143590637Y-42621032D01*
X144520000Y-43550395D01*
X145449363Y-42621032D01*
X145376845Y-42414000D01*
X146203155Y-42414000D01*
X146130637Y-42621032D01*
X147060000Y-43550395D01*
X147989363Y-42621032D01*
X147916845Y-42414000D01*
X148743155Y-42414000D01*
X148670637Y-42621032D01*
X149600000Y-43550395D01*
X150529363Y-42621032D01*
X150456845Y-42414000D01*
X151533691Y-42414000D01*
X151320959Y-42501899D01*
X150940468Y-42881726D01*
X150708968Y-42800637D01*
X149779605Y-43730000D01*
X150708968Y-44659363D01*
X150940922Y-44578115D01*
X151318816Y-44956669D01*
X151422766Y-44999833D01*
X151320959Y-45041899D01*
X150913331Y-45448816D01*
X150870167Y-45552766D01*
X150828101Y-45450959D01*
X150448274Y-45070468D01*
X150529363Y-44838968D01*
X149600000Y-43909605D01*
X148670637Y-44838968D01*
X148751885Y-45070922D01*
X148373331Y-45448816D01*
X148330167Y-45552766D01*
X148288101Y-45450959D01*
X147908274Y-45070468D01*
X147989363Y-44838968D01*
X147060000Y-43909605D01*
X146130637Y-44838968D01*
X146211885Y-45070922D01*
X145833331Y-45448816D01*
X145790167Y-45552766D01*
X145748101Y-45450959D01*
X145368274Y-45070468D01*
X145449363Y-44838968D01*
X144520000Y-43909605D01*
X143590637Y-44838968D01*
X143671885Y-45070922D01*
X143320468Y-45421726D01*
X143088968Y-45340637D01*
X142159605Y-46270000D01*
X143088968Y-47199363D01*
X143320922Y-47118115D01*
X143698816Y-47496669D01*
X144230751Y-47717548D01*
X144806722Y-47718051D01*
X145339041Y-47498101D01*
X145746669Y-47091184D01*
X145789833Y-46987234D01*
X145831899Y-47089041D01*
X146238816Y-47496669D01*
X146252000Y-47502143D01*
X146252000Y-48693315D01*
X142684658Y-52260658D01*
X142509505Y-52522791D01*
X142452025Y-52811764D01*
X142448000Y-52832000D01*
X142448000Y-77216000D01*
X142509505Y-77525209D01*
X142684658Y-77787342D01*
X152642000Y-87744684D01*
X152642000Y-129808195D01*
X152480132Y-129916352D01*
X152182807Y-130361331D01*
X152180000Y-130375443D01*
X152177193Y-130361331D01*
X151879868Y-129916352D01*
X151434889Y-129619027D01*
X150910000Y-129514620D01*
X150385111Y-129619027D01*
X149940132Y-129916352D01*
X149642807Y-130361331D01*
X149640000Y-130375443D01*
X149637193Y-130361331D01*
X149339868Y-129916352D01*
X149178000Y-129808195D01*
X149178000Y-101215810D01*
X149173529Y-101193334D01*
X149173653Y-101051307D01*
X149118939Y-100918888D01*
X149116495Y-100906602D01*
X149113496Y-100902114D01*
X149109596Y-100896277D01*
X149050902Y-100754226D01*
X148941358Y-100644491D01*
X148941343Y-100644468D01*
X148937551Y-100640677D01*
X148823806Y-100526733D01*
X148526939Y-100403463D01*
X148205497Y-100403183D01*
X147908416Y-100525934D01*
X147680923Y-100753030D01*
X147557653Y-101049897D01*
X147557373Y-101371339D01*
X147562000Y-101382537D01*
X147562000Y-103839274D01*
X147497389Y-103682903D01*
X147270293Y-103455410D01*
X146973426Y-103332140D01*
X146651984Y-103331860D01*
X146354903Y-103454611D01*
X146127410Y-103681707D01*
X146004140Y-103978574D01*
X146003860Y-104300016D01*
X146004000Y-104300355D01*
X146004000Y-121411295D01*
X146003860Y-121572016D01*
X146126611Y-121869097D01*
X146353707Y-122096590D01*
X146650574Y-122219860D01*
X146972016Y-122220140D01*
X147269097Y-122097389D01*
X147496590Y-121870293D01*
X147562000Y-121712768D01*
X147562000Y-129808195D01*
X147400132Y-129916352D01*
X147102807Y-130361331D01*
X147100000Y-130375443D01*
X147097193Y-130361331D01*
X146799868Y-129916352D01*
X146354889Y-129619027D01*
X145830000Y-129514620D01*
X145305111Y-129619027D01*
X144860132Y-129916352D01*
X144562807Y-130361331D01*
X144560000Y-130375443D01*
X144557193Y-130361331D01*
X144259868Y-129916352D01*
X143814889Y-129619027D01*
X143290000Y-129514620D01*
X142765111Y-129619027D01*
X142320132Y-129916352D01*
X142022807Y-130361331D01*
X142020000Y-130375443D01*
X142017193Y-130361331D01*
X141719868Y-129916352D01*
X141274889Y-129619027D01*
X140750000Y-129514620D01*
X140225111Y-129619027D01*
X139780132Y-129916352D01*
X139482807Y-130361331D01*
X139480000Y-130375443D01*
X139477193Y-130361331D01*
X139179868Y-129916352D01*
X138734889Y-129619027D01*
X138210000Y-129514620D01*
X137685111Y-129619027D01*
X137240132Y-129916352D01*
X136942807Y-130361331D01*
X136940000Y-130375443D01*
X136937193Y-130361331D01*
X136639868Y-129916352D01*
X136194889Y-129619027D01*
X135670000Y-129514620D01*
X135145111Y-129619027D01*
X134700132Y-129916352D01*
X134402807Y-130361331D01*
X134400000Y-130375443D01*
X134397193Y-130361331D01*
X134099868Y-129916352D01*
X133938000Y-129808195D01*
X133938000Y-128079318D01*
X135222531Y-126794788D01*
X137157212Y-126794788D01*
X137171176Y-126792010D01*
X137320016Y-126792140D01*
X137458785Y-126734802D01*
X137466421Y-126733283D01*
X137472837Y-126728996D01*
X137617097Y-126669389D01*
X137728543Y-126558137D01*
X137728554Y-126558130D01*
X137730557Y-126556127D01*
X137844590Y-126442293D01*
X137967860Y-126145426D01*
X137968140Y-125823984D01*
X137845389Y-125526903D01*
X137618293Y-125299410D01*
X137321426Y-125176140D01*
X136999984Y-125175860D01*
X136992898Y-125178788D01*
X134887846Y-125178788D01*
X134578638Y-125240293D01*
X134316504Y-125415445D01*
X132558658Y-127173292D01*
X132383505Y-127435425D01*
X132383505Y-127435426D01*
X132322000Y-127744634D01*
X132322000Y-129808195D01*
X132160132Y-129916352D01*
X131862807Y-130361331D01*
X131860000Y-130375443D01*
X131857193Y-130361331D01*
X131559868Y-129916352D01*
X131114889Y-129619027D01*
X130590000Y-129514620D01*
X130065111Y-129619027D01*
X129620132Y-129916352D01*
X129322807Y-130361331D01*
X129320000Y-130375443D01*
X129317193Y-130361331D01*
X129019868Y-129916352D01*
X128574889Y-129619027D01*
X128050000Y-129514620D01*
X127525111Y-129619027D01*
X127080132Y-129916352D01*
X126782807Y-130361331D01*
X126780000Y-130375443D01*
X126777193Y-130361331D01*
X126479868Y-129916352D01*
X126034889Y-129619027D01*
X125510000Y-129514620D01*
X124985111Y-129619027D01*
X124540132Y-129916352D01*
X124242807Y-130361331D01*
X124240000Y-130375443D01*
X124237193Y-130361331D01*
X123939868Y-129916352D01*
X123494889Y-129619027D01*
X122970000Y-129514620D01*
X122445111Y-129619027D01*
X122000132Y-129916352D01*
X121702807Y-130361331D01*
X121700000Y-130375443D01*
X121697193Y-130361331D01*
X121399868Y-129916352D01*
X120954889Y-129619027D01*
X120430000Y-129514620D01*
X119905111Y-129619027D01*
X119460132Y-129916352D01*
X119162807Y-130361331D01*
X119058400Y-130886220D01*
X119058400Y-132033780D01*
X119162807Y-132558669D01*
X119460132Y-133003648D01*
X119905111Y-133300973D01*
X120430000Y-133405380D01*
X120954889Y-133300973D01*
X121399868Y-133003648D01*
X121697193Y-132558669D01*
X121700000Y-132544557D01*
X121702807Y-132558669D01*
X122000132Y-133003648D01*
X122445111Y-133300973D01*
X122970000Y-133405380D01*
X123494889Y-133300973D01*
X123939868Y-133003648D01*
X124237193Y-132558669D01*
X124240000Y-132544557D01*
X124242807Y-132558669D01*
X124540132Y-133003648D01*
X124985111Y-133300973D01*
X125510000Y-133405380D01*
X126034889Y-133300973D01*
X126479868Y-133003648D01*
X126777193Y-132558669D01*
X126780000Y-132544557D01*
X126782807Y-132558669D01*
X127080132Y-133003648D01*
X127525111Y-133300973D01*
X128050000Y-133405380D01*
X128574889Y-133300973D01*
X129019868Y-133003648D01*
X129317193Y-132558669D01*
X129320000Y-132544557D01*
X129322807Y-132558669D01*
X129620132Y-133003648D01*
X130065111Y-133300973D01*
X130590000Y-133405380D01*
X131114889Y-133300973D01*
X131559868Y-133003648D01*
X131857193Y-132558669D01*
X131860000Y-132544557D01*
X131862807Y-132558669D01*
X132160132Y-133003648D01*
X132605111Y-133300973D01*
X133130000Y-133405380D01*
X133654889Y-133300973D01*
X134099868Y-133003648D01*
X134397193Y-132558669D01*
X134400000Y-132544557D01*
X134402807Y-132558669D01*
X134700132Y-133003648D01*
X135145111Y-133300973D01*
X135670000Y-133405380D01*
X136194889Y-133300973D01*
X136639868Y-133003648D01*
X136937193Y-132558669D01*
X136940000Y-132544557D01*
X136942807Y-132558669D01*
X137240132Y-133003648D01*
X137685111Y-133300973D01*
X138210000Y-133405380D01*
X138734889Y-133300973D01*
X139179868Y-133003648D01*
X139477193Y-132558669D01*
X139480000Y-132544557D01*
X139482807Y-132558669D01*
X139780132Y-133003648D01*
X140225111Y-133300973D01*
X140750000Y-133405380D01*
X141274889Y-133300973D01*
X141719868Y-133003648D01*
X142017193Y-132558669D01*
X142020000Y-132544557D01*
X142022807Y-132558669D01*
X142320132Y-133003648D01*
X142765111Y-133300973D01*
X143290000Y-133405380D01*
X143814889Y-133300973D01*
X144259868Y-133003648D01*
X144557193Y-132558669D01*
X144560000Y-132544557D01*
X144562807Y-132558669D01*
X144860132Y-133003648D01*
X145305111Y-133300973D01*
X145830000Y-133405380D01*
X146354889Y-133300973D01*
X146799868Y-133003648D01*
X147097193Y-132558669D01*
X147100000Y-132544557D01*
X147102807Y-132558669D01*
X147400132Y-133003648D01*
X147845111Y-133300973D01*
X148370000Y-133405380D01*
X148894889Y-133300973D01*
X149339868Y-133003648D01*
X149637193Y-132558669D01*
X149640000Y-132544557D01*
X149642807Y-132558669D01*
X149940132Y-133003648D01*
X150385111Y-133300973D01*
X150910000Y-133405380D01*
X151434889Y-133300973D01*
X151879868Y-133003648D01*
X152177193Y-132558669D01*
X152180000Y-132544557D01*
X152182807Y-132558669D01*
X152480132Y-133003648D01*
X152925111Y-133300973D01*
X153450000Y-133405380D01*
X153974889Y-133300973D01*
X154053000Y-133248781D01*
X154053000Y-133857995D01*
X154052999Y-133858000D01*
X154101184Y-134100239D01*
X154238401Y-134305599D01*
X154983692Y-135050889D01*
X154722807Y-135441331D01*
X154720000Y-135455443D01*
X154717193Y-135441331D01*
X154419868Y-134996352D01*
X153974889Y-134699027D01*
X153450000Y-134594620D01*
X152925111Y-134699027D01*
X152480132Y-134996352D01*
X152182807Y-135441331D01*
X152180000Y-135455443D01*
X152177193Y-135441331D01*
X151879868Y-134996352D01*
X151434889Y-134699027D01*
X150910000Y-134594620D01*
X150385111Y-134699027D01*
X149940132Y-134996352D01*
X149642807Y-135441331D01*
X149640000Y-135455443D01*
X149637193Y-135441331D01*
X149339868Y-134996352D01*
X148894889Y-134699027D01*
X148370000Y-134594620D01*
X147845111Y-134699027D01*
X147400132Y-134996352D01*
X147102807Y-135441331D01*
X147100000Y-135455443D01*
X147097193Y-135441331D01*
X146799868Y-134996352D01*
X146354889Y-134699027D01*
X145830000Y-134594620D01*
X145305111Y-134699027D01*
X144860132Y-134996352D01*
X144562807Y-135441331D01*
X144560000Y-135455443D01*
X144557193Y-135441331D01*
X144259868Y-134996352D01*
X143814889Y-134699027D01*
X143290000Y-134594620D01*
X142765111Y-134699027D01*
X142320132Y-134996352D01*
X142092794Y-135336587D01*
X142085925Y-135312778D01*
X141719868Y-134854127D01*
X141206157Y-134570473D01*
X141109026Y-134548642D01*
X140877000Y-134669783D01*
X140877000Y-136413000D01*
X140897000Y-136413000D01*
X140897000Y-136667000D01*
X140877000Y-136667000D01*
X140877000Y-138410217D01*
X141109026Y-138531358D01*
X141206157Y-138509527D01*
X141719868Y-138225873D01*
X142085925Y-137767222D01*
X142092794Y-137743413D01*
X142320132Y-138083648D01*
X142765111Y-138380973D01*
X143290000Y-138485380D01*
X143814889Y-138380973D01*
X144259868Y-138083648D01*
X144557193Y-137638669D01*
X144560000Y-137624557D01*
X144562807Y-137638669D01*
X144860132Y-138083648D01*
X145305111Y-138380973D01*
X145830000Y-138485380D01*
X146354889Y-138380973D01*
X146799868Y-138083648D01*
X147097193Y-137638669D01*
X147100000Y-137624557D01*
X147102807Y-137638669D01*
X147400132Y-138083648D01*
X147845111Y-138380973D01*
X148370000Y-138485380D01*
X148894889Y-138380973D01*
X149339868Y-138083648D01*
X149637193Y-137638669D01*
X149640000Y-137624557D01*
X149642807Y-137638669D01*
X149940132Y-138083648D01*
X150385111Y-138380973D01*
X150910000Y-138485380D01*
X151434889Y-138380973D01*
X151879868Y-138083648D01*
X152177193Y-137638669D01*
X152180000Y-137624557D01*
X152182807Y-137638669D01*
X152480132Y-138083648D01*
X152925111Y-138380973D01*
X153450000Y-138485380D01*
X153974889Y-138380973D01*
X154419868Y-138083648D01*
X154717193Y-137638669D01*
X154720000Y-137624557D01*
X154722807Y-137638669D01*
X155020132Y-138083648D01*
X155465111Y-138380973D01*
X155990000Y-138485380D01*
X156514889Y-138380973D01*
X156959868Y-138083648D01*
X157257193Y-137638669D01*
X157260000Y-137624557D01*
X157262807Y-137638669D01*
X157560132Y-138083648D01*
X158005111Y-138380973D01*
X158530000Y-138485380D01*
X159054889Y-138380973D01*
X159499868Y-138083648D01*
X159797193Y-137638669D01*
X159800000Y-137624557D01*
X159802807Y-137638669D01*
X160100132Y-138083648D01*
X160545111Y-138380973D01*
X161070000Y-138485380D01*
X161594889Y-138380973D01*
X162039868Y-138083648D01*
X162337193Y-137638669D01*
X162340000Y-137624557D01*
X162342807Y-137638669D01*
X162640132Y-138083648D01*
X163085111Y-138380973D01*
X163610000Y-138485380D01*
X164134889Y-138380973D01*
X164579868Y-138083648D01*
X164877193Y-137638669D01*
X164880000Y-137624557D01*
X164882807Y-137638669D01*
X165180132Y-138083648D01*
X165625111Y-138380973D01*
X166150000Y-138485380D01*
X166674889Y-138380973D01*
X167119868Y-138083648D01*
X167417193Y-137638669D01*
X167420000Y-137624557D01*
X167422807Y-137638669D01*
X167720132Y-138083648D01*
X168165111Y-138380973D01*
X168690000Y-138485380D01*
X169214889Y-138380973D01*
X169659868Y-138083648D01*
X169957193Y-137638669D01*
X169960000Y-137624557D01*
X169962807Y-137638669D01*
X170260132Y-138083648D01*
X170705111Y-138380973D01*
X171230000Y-138485380D01*
X171754889Y-138380973D01*
X172199868Y-138083648D01*
X172497193Y-137638669D01*
X172500000Y-137624557D01*
X172502807Y-137638669D01*
X172800132Y-138083648D01*
X173245111Y-138380973D01*
X173770000Y-138485380D01*
X174294889Y-138380973D01*
X174739868Y-138083648D01*
X175037193Y-137638669D01*
X175040000Y-137624557D01*
X175042807Y-137638669D01*
X175340132Y-138083648D01*
X175785111Y-138380973D01*
X176310000Y-138485380D01*
X176834889Y-138380973D01*
X177279868Y-138083648D01*
X177577193Y-137638669D01*
X177681600Y-137113780D01*
X177681600Y-135966220D01*
X177577193Y-135441331D01*
X177279868Y-134996352D01*
X177059160Y-134848880D01*
X177871120Y-134848880D01*
X178180329Y-134787375D01*
X178442462Y-134612222D01*
X179596681Y-133458003D01*
X179771834Y-133195870D01*
X179792007Y-133094450D01*
X179833339Y-132886661D01*
X179833339Y-129502732D01*
X179771834Y-129193524D01*
X179713714Y-129106542D01*
X179596681Y-128931389D01*
X178158550Y-127493259D01*
X177896417Y-127318106D01*
X177587208Y-127256601D01*
X175598579Y-127256601D01*
X174093116Y-125751139D01*
X174093116Y-123607468D01*
X175691635Y-123607468D01*
X176011883Y-124382526D01*
X176604355Y-124976033D01*
X177378853Y-125297633D01*
X178217468Y-125298365D01*
X178992526Y-124978117D01*
X179586033Y-124385645D01*
X179907633Y-123611147D01*
X179908365Y-122772532D01*
X179588117Y-121997474D01*
X178995645Y-121403967D01*
X178221147Y-121082367D01*
X177382532Y-121081635D01*
X176607474Y-121401883D01*
X176013967Y-121994355D01*
X175692367Y-122768853D01*
X175691635Y-123607468D01*
X174093116Y-123607468D01*
X174093116Y-118837449D01*
X179214622Y-113715943D01*
X179389775Y-113453810D01*
X179399979Y-113402509D01*
X179451280Y-113144601D01*
X179451280Y-53002264D01*
X179389775Y-52693056D01*
X179260780Y-52500001D01*
X179260780Y-52388205D01*
X179260920Y-52227484D01*
X179138169Y-51930403D01*
X178911073Y-51702910D01*
X178614206Y-51579640D01*
X178292764Y-51579360D01*
X177995683Y-51702111D01*
X177768190Y-51929207D01*
X177644920Y-52226074D01*
X177644640Y-52547516D01*
X177644780Y-52547855D01*
X177644780Y-52811764D01*
X177706285Y-53120973D01*
X177835280Y-53314026D01*
X177835280Y-112809917D01*
X172713774Y-117931423D01*
X172538621Y-118193556D01*
X172538621Y-118193557D01*
X172477116Y-118502765D01*
X172477116Y-126085823D01*
X172538621Y-126395032D01*
X172713774Y-126657165D01*
X174692552Y-128635944D01*
X174954686Y-128811096D01*
X175263894Y-128872601D01*
X177252524Y-128872601D01*
X178217339Y-129837417D01*
X178217339Y-132551977D01*
X177536436Y-133232880D01*
X176936798Y-133232880D01*
X177279868Y-133003648D01*
X177577193Y-132558669D01*
X177681600Y-132033780D01*
X177681600Y-130886220D01*
X177577193Y-130361331D01*
X177279868Y-129916352D01*
X176834889Y-129619027D01*
X176310000Y-129514620D01*
X175785111Y-129619027D01*
X175340132Y-129916352D01*
X175042807Y-130361331D01*
X175040000Y-130375443D01*
X175037193Y-130361331D01*
X174739868Y-129916352D01*
X174294889Y-129619027D01*
X173770000Y-129514620D01*
X173245111Y-129619027D01*
X172800132Y-129916352D01*
X172502807Y-130361331D01*
X172500000Y-130375443D01*
X172497193Y-130361331D01*
X172199868Y-129916352D01*
X172038000Y-129808195D01*
X172038000Y-116194813D01*
X173291033Y-114941780D01*
X173466186Y-114679647D01*
X173499886Y-114510222D01*
X173527691Y-114370438D01*
X173527691Y-50453833D01*
X173527860Y-50453426D01*
X173528140Y-50131984D01*
X173405389Y-49834903D01*
X173178293Y-49607410D01*
X172881426Y-49484140D01*
X172559984Y-49483860D01*
X172262903Y-49606611D01*
X172035410Y-49833707D01*
X171973673Y-49982386D01*
X171973196Y-49983100D01*
X171973196Y-49983101D01*
X171973030Y-49983934D01*
X171912140Y-50130574D01*
X171912000Y-50290753D01*
X171911691Y-50292309D01*
X171911691Y-114035754D01*
X170658658Y-115288787D01*
X170483505Y-115550920D01*
X170428484Y-115827530D01*
X170422000Y-115860129D01*
X170422000Y-129808195D01*
X170260132Y-129916352D01*
X169962807Y-130361331D01*
X169960000Y-130375443D01*
X169957193Y-130361331D01*
X169659868Y-129916352D01*
X169214889Y-129619027D01*
X168690000Y-129514620D01*
X168165111Y-129619027D01*
X167720132Y-129916352D01*
X167422807Y-130361331D01*
X167420000Y-130375443D01*
X167417193Y-130361331D01*
X167119868Y-129916352D01*
X166958000Y-129808195D01*
X166958000Y-75218000D01*
X166896495Y-74908792D01*
X166896495Y-74908791D01*
X166721342Y-74646658D01*
X160828000Y-68753316D01*
X160828000Y-64936465D01*
X160944896Y-64858358D01*
X161228434Y-64434012D01*
X161290000Y-64124500D01*
X161351566Y-64434012D01*
X161635104Y-64858358D01*
X162059450Y-65141896D01*
X162560000Y-65241462D01*
X163060550Y-65141896D01*
X163484896Y-64858358D01*
X163768434Y-64434012D01*
X163830000Y-64124500D01*
X163891566Y-64434012D01*
X164175104Y-64858358D01*
X164599450Y-65141896D01*
X165100000Y-65241462D01*
X165600550Y-65141896D01*
X166024896Y-64858358D01*
X166308434Y-64434012D01*
X166370000Y-64124500D01*
X166431566Y-64434012D01*
X166715104Y-64858358D01*
X167139450Y-65141896D01*
X167640000Y-65241462D01*
X168140550Y-65141896D01*
X168564896Y-64858358D01*
X168848434Y-64434012D01*
X168948000Y-63933462D01*
X168948000Y-63066538D01*
X168914392Y-62897582D01*
X169475987Y-62335987D01*
X169640301Y-62090074D01*
X169698000Y-61800000D01*
X169698000Y-44867468D01*
X175691635Y-44867468D01*
X176011883Y-45642526D01*
X176604355Y-46236033D01*
X177378853Y-46557633D01*
X178217468Y-46558365D01*
X178992526Y-46238117D01*
X179586033Y-45645645D01*
X179907633Y-44871147D01*
X179908365Y-44032532D01*
X179588117Y-43257474D01*
X178995645Y-42663967D01*
X178221147Y-42342367D01*
X177382532Y-42341635D01*
X176607474Y-42661883D01*
X176013967Y-43254355D01*
X175692367Y-44028853D01*
X175691635Y-44867468D01*
X169698000Y-44867468D01*
X169698000Y-41940000D01*
X169640301Y-41649926D01*
X169475987Y-41404013D01*
X169191987Y-41120013D01*
X168946074Y-40955699D01*
X168656000Y-40898000D01*
X166914000Y-40898000D01*
X166623926Y-40955699D01*
X166378013Y-41120013D01*
X165190246Y-42307780D01*
X165129249Y-42282452D01*
X164553278Y-42281949D01*
X164020959Y-42501899D01*
X163613331Y-42908816D01*
X163570167Y-43012766D01*
X163528101Y-42910959D01*
X163121184Y-42503331D01*
X163058000Y-42477095D01*
X163058000Y-42412000D01*
X163043021Y-42336696D01*
X163000301Y-42121925D01*
X162835987Y-41876013D01*
X162079987Y-41120013D01*
X161834074Y-40955699D01*
X161544000Y-40898000D01*
X115316000Y-40898000D01*
X115025926Y-40955699D01*
X114780013Y-41120013D01*
X113640823Y-42259203D01*
X113476509Y-42505116D01*
X113418810Y-42795190D01*
X113418810Y-124927076D01*
X109734013Y-128611873D01*
X109569699Y-128857786D01*
X109512000Y-129147860D01*
X109512000Y-129774787D01*
X109300132Y-129916352D01*
X109002807Y-130361331D01*
X109000000Y-130375443D01*
X108997193Y-130361331D01*
X108699868Y-129916352D01*
X108254889Y-129619027D01*
X107730000Y-129514620D01*
X107205111Y-129619027D01*
X106760132Y-129916352D01*
X106462807Y-130361331D01*
X106358400Y-130886220D01*
X106358400Y-132033780D01*
X106462807Y-132558669D01*
X106760132Y-133003648D01*
X107041430Y-133191605D01*
X106650829Y-133191605D01*
X105998933Y-132539709D01*
X105998933Y-129515901D01*
X106808137Y-128706697D01*
X108633397Y-128706697D01*
X108942606Y-128645192D01*
X109204739Y-128470039D01*
X112429132Y-125245646D01*
X112604285Y-124983513D01*
X112614489Y-124932212D01*
X112665790Y-124674304D01*
X112665790Y-60113509D01*
X112665930Y-59952893D01*
X112543179Y-59655812D01*
X112316083Y-59428319D01*
X112019216Y-59305049D01*
X111697774Y-59304769D01*
X111400693Y-59427520D01*
X111173200Y-59654616D01*
X111049930Y-59951483D01*
X111049650Y-60272925D01*
X111049790Y-60273264D01*
X111049790Y-124339620D01*
X108298713Y-127090697D01*
X106473453Y-127090697D01*
X106215545Y-127141998D01*
X106164244Y-127152202D01*
X105902111Y-127327355D01*
X104619591Y-128609875D01*
X104444438Y-128872008D01*
X104389568Y-129147860D01*
X104382933Y-129181217D01*
X102583000Y-129181217D01*
X102583000Y-123607468D01*
X104571635Y-123607468D01*
X104891883Y-124382526D01*
X105484355Y-124976033D01*
X106258853Y-125297633D01*
X107097468Y-125298365D01*
X107872526Y-124978117D01*
X108466033Y-124385645D01*
X108787633Y-123611147D01*
X108788365Y-122772532D01*
X108468117Y-121997474D01*
X107875645Y-121403967D01*
X107101147Y-121082367D01*
X106262532Y-121081635D01*
X105487474Y-121401883D01*
X104893967Y-121994355D01*
X104572367Y-122768853D01*
X104571635Y-123607468D01*
X102583000Y-123607468D01*
X102583000Y-44867468D01*
X104571635Y-44867468D01*
X104891883Y-45642526D01*
X105484355Y-46236033D01*
X106258853Y-46557633D01*
X107097468Y-46558365D01*
X107872526Y-46238117D01*
X108466033Y-45645645D01*
X108787633Y-44871147D01*
X108788365Y-44032532D01*
X108468117Y-43257474D01*
X107875645Y-42663967D01*
X107101147Y-42342367D01*
X106262532Y-42341635D01*
X105487474Y-42661883D01*
X104893967Y-43254355D01*
X104572367Y-44028853D01*
X104571635Y-44867468D01*
X102583000Y-44867468D01*
X102583000Y-43057421D01*
X102777535Y-42079426D01*
X103298998Y-41299001D01*
X104079425Y-40777535D01*
X105057422Y-40583000D01*
X178942579Y-40583000D01*
X179920574Y-40777535D01*
X179920574Y-40777535D01*
G37*
X179920574Y-40777535D02*
X180700999Y-41298998D01*
X181222465Y-42079425D01*
X181417000Y-43057422D01*
X181417000Y-136942578D01*
X181222465Y-137920575D01*
X180700999Y-138701002D01*
X179920574Y-139222465D01*
X178942579Y-139417000D01*
X105057422Y-139417000D01*
X104079425Y-139222465D01*
X103298998Y-138700999D01*
X102777535Y-137920574D01*
X102583000Y-136942579D01*
X102583000Y-129181217D01*
X104382933Y-129181217D01*
X104382933Y-132874393D01*
X104444438Y-133183602D01*
X104619591Y-133445735D01*
X105744803Y-134570947D01*
X106006936Y-134746100D01*
X106316145Y-134807605D01*
X107042612Y-134807605D01*
X106760132Y-134996352D01*
X106462807Y-135441331D01*
X106358400Y-135966220D01*
X106358400Y-137113780D01*
X106462807Y-137638669D01*
X106760132Y-138083648D01*
X107205111Y-138380973D01*
X107730000Y-138485380D01*
X108254889Y-138380973D01*
X108699868Y-138083648D01*
X108997193Y-137638669D01*
X109000000Y-137624557D01*
X109002807Y-137638669D01*
X109300132Y-138083648D01*
X109745111Y-138380973D01*
X110270000Y-138485380D01*
X110794889Y-138380973D01*
X111239868Y-138083648D01*
X111537193Y-137638669D01*
X111540000Y-137624557D01*
X111542807Y-137638669D01*
X111840132Y-138083648D01*
X112285111Y-138380973D01*
X112810000Y-138485380D01*
X113334889Y-138380973D01*
X113779868Y-138083648D01*
X114077193Y-137638669D01*
X114080000Y-137624557D01*
X114082807Y-137638669D01*
X114380132Y-138083648D01*
X114825111Y-138380973D01*
X115350000Y-138485380D01*
X115874889Y-138380973D01*
X116319868Y-138083648D01*
X116617193Y-137638669D01*
X116721600Y-137113780D01*
X116721600Y-136667000D01*
X118931400Y-136667000D01*
X118931400Y-137203400D01*
X119094075Y-137767222D01*
X119460132Y-138225873D01*
X119973843Y-138509527D01*
X120070974Y-138531358D01*
X120303000Y-138410217D01*
X120303000Y-136667000D01*
X120557000Y-136667000D01*
X120557000Y-138410217D01*
X120789026Y-138531358D01*
X120886157Y-138509527D01*
X121399868Y-138225873D01*
X121700000Y-137849823D01*
X122000132Y-138225873D01*
X122513843Y-138509527D01*
X122610974Y-138531358D01*
X122843000Y-138410217D01*
X122843000Y-136667000D01*
X120557000Y-136667000D01*
X120303000Y-136667000D01*
X118931400Y-136667000D01*
X116721600Y-136667000D01*
X116721600Y-135966220D01*
X116703774Y-135876600D01*
X118931400Y-135876600D01*
X118931400Y-136413000D01*
X120303000Y-136413000D01*
X120303000Y-134669783D01*
X120557000Y-134669783D01*
X120557000Y-136413000D01*
X122843000Y-136413000D01*
X122843000Y-134669783D01*
X123097000Y-134669783D01*
X123097000Y-136413000D01*
X123117000Y-136413000D01*
X123117000Y-136667000D01*
X123097000Y-136667000D01*
X123097000Y-138410217D01*
X123329026Y-138531358D01*
X123426157Y-138509527D01*
X123939868Y-138225873D01*
X124305925Y-137767222D01*
X124312794Y-137743413D01*
X124540132Y-138083648D01*
X124985111Y-138380973D01*
X125510000Y-138485380D01*
X126034889Y-138380973D01*
X126479868Y-138083648D01*
X126777193Y-137638669D01*
X126780000Y-137624557D01*
X126782807Y-137638669D01*
X127080132Y-138083648D01*
X127525111Y-138380973D01*
X128050000Y-138485380D01*
X128574889Y-138380973D01*
X129019868Y-138083648D01*
X129317193Y-137638669D01*
X129320000Y-137624557D01*
X129322807Y-137638669D01*
X129620132Y-138083648D01*
X130065111Y-138380973D01*
X130590000Y-138485380D01*
X131114889Y-138380973D01*
X131559868Y-138083648D01*
X131857193Y-137638669D01*
X131860000Y-137624557D01*
X131862807Y-137638669D01*
X132160132Y-138083648D01*
X132605111Y-138380973D01*
X133130000Y-138485380D01*
X133654889Y-138380973D01*
X134099868Y-138083648D01*
X134397193Y-137638669D01*
X134400000Y-137624557D01*
X134402807Y-137638669D01*
X134700132Y-138083648D01*
X135145111Y-138380973D01*
X135670000Y-138485380D01*
X136194889Y-138380973D01*
X136639868Y-138083648D01*
X136937193Y-137638669D01*
X136940000Y-137624557D01*
X136942807Y-137638669D01*
X137240132Y-138083648D01*
X137685111Y-138380973D01*
X138210000Y-138485380D01*
X138734889Y-138380973D01*
X139179868Y-138083648D01*
X139407206Y-137743413D01*
X139414075Y-137767222D01*
X139780132Y-138225873D01*
X140293843Y-138509527D01*
X140390974Y-138531358D01*
X140623000Y-138410217D01*
X140623000Y-136667000D01*
X140603000Y-136667000D01*
X140603000Y-136413000D01*
X140623000Y-136413000D01*
X140623000Y-134669783D01*
X140390974Y-134548642D01*
X140293843Y-134570473D01*
X139780132Y-134854127D01*
X139414075Y-135312778D01*
X139407206Y-135336587D01*
X139179868Y-134996352D01*
X138734889Y-134699027D01*
X138210000Y-134594620D01*
X137685111Y-134699027D01*
X137240132Y-134996352D01*
X136942807Y-135441331D01*
X136940000Y-135455443D01*
X136937193Y-135441331D01*
X136639868Y-134996352D01*
X136194889Y-134699027D01*
X135670000Y-134594620D01*
X135145111Y-134699027D01*
X134700132Y-134996352D01*
X134402807Y-135441331D01*
X134400000Y-135455443D01*
X134397193Y-135441331D01*
X134099868Y-134996352D01*
X133654889Y-134699027D01*
X133130000Y-134594620D01*
X132605111Y-134699027D01*
X132160132Y-134996352D01*
X131862807Y-135441331D01*
X131860000Y-135455443D01*
X131857193Y-135441331D01*
X131559868Y-134996352D01*
X131114889Y-134699027D01*
X130590000Y-134594620D01*
X130065111Y-134699027D01*
X129620132Y-134996352D01*
X129322807Y-135441331D01*
X129320000Y-135455443D01*
X129317193Y-135441331D01*
X129019868Y-134996352D01*
X128574889Y-134699027D01*
X128050000Y-134594620D01*
X127525111Y-134699027D01*
X127080132Y-134996352D01*
X126782807Y-135441331D01*
X126780000Y-135455443D01*
X126777193Y-135441331D01*
X126479868Y-134996352D01*
X126034889Y-134699027D01*
X125510000Y-134594620D01*
X124985111Y-134699027D01*
X124540132Y-134996352D01*
X124312794Y-135336587D01*
X124305925Y-135312778D01*
X123939868Y-134854127D01*
X123426157Y-134570473D01*
X123329026Y-134548642D01*
X123097000Y-134669783D01*
X122843000Y-134669783D01*
X122610974Y-134548642D01*
X122513843Y-134570473D01*
X122000132Y-134854127D01*
X121700000Y-135230177D01*
X121399868Y-134854127D01*
X120886157Y-134570473D01*
X120789026Y-134548642D01*
X120557000Y-134669783D01*
X120303000Y-134669783D01*
X120070974Y-134548642D01*
X119973843Y-134570473D01*
X119460132Y-134854127D01*
X119094075Y-135312778D01*
X118931400Y-135876600D01*
X116703774Y-135876600D01*
X116617193Y-135441331D01*
X116319868Y-134996352D01*
X115891985Y-134710450D01*
X116886990Y-134710450D01*
X117196199Y-134648945D01*
X117458332Y-134473792D01*
X118436232Y-133495893D01*
X118611384Y-133233759D01*
X118611385Y-133233758D01*
X118672890Y-132924550D01*
X118672890Y-116970214D01*
X120015674Y-115627430D01*
X144295425Y-115627430D01*
X144456146Y-115627570D01*
X144753227Y-115504819D01*
X144980720Y-115277723D01*
X145103990Y-114980856D01*
X145104270Y-114659414D01*
X144981519Y-114362333D01*
X144754423Y-114134840D01*
X144457556Y-114011570D01*
X144136114Y-114011290D01*
X144135775Y-114011430D01*
X119680990Y-114011430D01*
X119430627Y-114061230D01*
X119371781Y-114072935D01*
X119109648Y-114248088D01*
X117293548Y-116064188D01*
X117118395Y-116326321D01*
X117118395Y-116326322D01*
X117056890Y-116635530D01*
X117056890Y-132589865D01*
X116552306Y-133094450D01*
X116183973Y-133094450D01*
X116319868Y-133003648D01*
X116617193Y-132558669D01*
X116721600Y-132033780D01*
X116721600Y-130886220D01*
X116617193Y-130361331D01*
X116319868Y-129916352D01*
X115874889Y-129619027D01*
X115350000Y-129514620D01*
X114825111Y-129619027D01*
X114380132Y-129916352D01*
X114082807Y-130361331D01*
X114080000Y-130375443D01*
X114077193Y-130361331D01*
X113779868Y-129916352D01*
X113618000Y-129808195D01*
X113618000Y-129608447D01*
X116284851Y-126941596D01*
X116460004Y-126679462D01*
X116521509Y-126370254D01*
X116521509Y-89060016D01*
X118571860Y-89060016D01*
X118694611Y-89357097D01*
X118921707Y-89584590D01*
X119218574Y-89707860D01*
X119540016Y-89708140D01*
X119837097Y-89585389D01*
X120064590Y-89358293D01*
X120064731Y-89357953D01*
X130111066Y-79311619D01*
X130228099Y-79136466D01*
X130286219Y-79049484D01*
X130347724Y-78740276D01*
X130347724Y-78256303D01*
X130347864Y-78095582D01*
X130225113Y-77798501D01*
X129998017Y-77571008D01*
X129701150Y-77447738D01*
X129379708Y-77447458D01*
X129082627Y-77570209D01*
X128855134Y-77797305D01*
X128731864Y-78094172D01*
X128731593Y-78405722D01*
X118809443Y-88327873D01*
X118695410Y-88441707D01*
X118572140Y-88738574D01*
X118571860Y-89060016D01*
X116521509Y-89060016D01*
X116521509Y-81440016D01*
X120603860Y-81440016D01*
X120726611Y-81737097D01*
X120953707Y-81964590D01*
X121250574Y-82087860D01*
X121572016Y-82088140D01*
X121869097Y-81965389D01*
X122096590Y-81738293D01*
X122096731Y-81737953D01*
X130110557Y-73724127D01*
X130224590Y-73610293D01*
X130347860Y-73313426D01*
X130348140Y-72991984D01*
X130225389Y-72694903D01*
X129998293Y-72467410D01*
X129701426Y-72344140D01*
X129379984Y-72343860D01*
X129082903Y-72466611D01*
X128855410Y-72693707D01*
X128855269Y-72694047D01*
X120841443Y-80707873D01*
X120727410Y-80821707D01*
X120604140Y-81118574D01*
X120603860Y-81440016D01*
X116521509Y-81440016D01*
X116521509Y-75344016D01*
X122635860Y-75344016D01*
X122758611Y-75641097D01*
X122985707Y-75868590D01*
X123282574Y-75991860D01*
X123604016Y-75992140D01*
X123901097Y-75869389D01*
X124128590Y-75642293D01*
X124251860Y-75345426D01*
X124252140Y-75023984D01*
X124252000Y-75023645D01*
X124252000Y-75010684D01*
X130110557Y-69152127D01*
X130224590Y-69038293D01*
X130347860Y-68741426D01*
X130348140Y-68419984D01*
X130225389Y-68122903D01*
X129998293Y-67895410D01*
X129701426Y-67772140D01*
X129379984Y-67771860D01*
X129082903Y-67894611D01*
X128855410Y-68121707D01*
X128855269Y-68122047D01*
X122872658Y-74104658D01*
X122697505Y-74366791D01*
X122688910Y-74410000D01*
X122636000Y-74676000D01*
X122636000Y-75183295D01*
X122635860Y-75344016D01*
X116521509Y-75344016D01*
X116521509Y-58714001D01*
X118035592Y-58714001D01*
X118222987Y-59097408D01*
X118547456Y-59373808D01*
X118953000Y-59505000D01*
X119253000Y-59505000D01*
X119253000Y-58547000D01*
X119507000Y-58547000D01*
X119507000Y-59505000D01*
X119807000Y-59505000D01*
X120212544Y-59373808D01*
X120537013Y-59097408D01*
X120724408Y-58714001D01*
X120597502Y-58547000D01*
X119507000Y-58547000D01*
X119253000Y-58547000D01*
X118162498Y-58547000D01*
X118035592Y-58714001D01*
X116521509Y-58714001D01*
X116521509Y-54022695D01*
X116521649Y-53861974D01*
X116398898Y-53564893D01*
X116171802Y-53337400D01*
X115874935Y-53214130D01*
X115553493Y-53213850D01*
X115256412Y-53336601D01*
X115028919Y-53563697D01*
X114934810Y-53790337D01*
X114934810Y-43109164D01*
X115629974Y-42414000D01*
X118263155Y-42414000D01*
X118190637Y-42621032D01*
X119120000Y-43550395D01*
X120049363Y-42621032D01*
X119976845Y-42414000D01*
X121053691Y-42414000D01*
X120840959Y-42501899D01*
X120460468Y-42881726D01*
X120228968Y-42800637D01*
X119299605Y-43730000D01*
X119313748Y-43744143D01*
X119134143Y-43923748D01*
X119120000Y-43909605D01*
X119105858Y-43923748D01*
X118926253Y-43744143D01*
X118940395Y-43730000D01*
X118011032Y-42800637D01*
X117750420Y-42891923D01*
X117533955Y-43479833D01*
X117558951Y-44105828D01*
X117750420Y-44568077D01*
X118011030Y-44659362D01*
X117896588Y-44773804D01*
X117978869Y-44856085D01*
X117819047Y-44958928D01*
X117703055Y-45128688D01*
X117662248Y-45330200D01*
X117662248Y-47209800D01*
X117697670Y-47398053D01*
X117808928Y-47570953D01*
X117978688Y-47686945D01*
X118162000Y-47724066D01*
X118162000Y-55215104D01*
X118152855Y-55228488D01*
X118112048Y-55430000D01*
X118112048Y-56330000D01*
X118147470Y-56518253D01*
X118245570Y-56670705D01*
X118170277Y-56783389D01*
X118097354Y-57150000D01*
X118170277Y-57516611D01*
X118285622Y-57689236D01*
X118222987Y-57742592D01*
X118035592Y-58125999D01*
X118162498Y-58293000D01*
X119253000Y-58293000D01*
X119253000Y-58273000D01*
X119507000Y-58273000D01*
X119507000Y-58293000D01*
X120597502Y-58293000D01*
X120724408Y-58125999D01*
X120715611Y-58108000D01*
X128648150Y-58108000D01*
X128798110Y-58258222D01*
X129278681Y-58457772D01*
X129799036Y-58458226D01*
X130279954Y-58259515D01*
X130648222Y-57891890D01*
X130847772Y-57411319D01*
X130848226Y-56890964D01*
X130649515Y-56410046D01*
X130281890Y-56041778D01*
X129801319Y-55842228D01*
X129280964Y-55841774D01*
X128800046Y-56040485D01*
X128648266Y-56192000D01*
X120647952Y-56192000D01*
X120647952Y-55430000D01*
X120612530Y-55241747D01*
X120501272Y-55068847D01*
X120331512Y-54952855D01*
X120130000Y-54912048D01*
X120078000Y-54912048D01*
X120078000Y-47724327D01*
X120248053Y-47692330D01*
X120420953Y-47581072D01*
X120536945Y-47411312D01*
X120573484Y-47230874D01*
X120838816Y-47496669D01*
X121370751Y-47717548D01*
X121946722Y-47718051D01*
X122479041Y-47498101D01*
X122886669Y-47091184D01*
X122929833Y-46987234D01*
X122971899Y-47089041D01*
X123378816Y-47496669D01*
X123392000Y-47502143D01*
X123392000Y-54517640D01*
X123453505Y-54826849D01*
X123628658Y-55088982D01*
X124118249Y-55578573D01*
X124418035Y-55878360D01*
X124531297Y-55991820D01*
X124828164Y-56115090D01*
X125149606Y-56115370D01*
X125446687Y-55992619D01*
X125560931Y-55878574D01*
X125560933Y-55878573D01*
X125560934Y-55878571D01*
X125674180Y-55765523D01*
X125797450Y-55468656D01*
X125797730Y-55147214D01*
X125674979Y-54850133D01*
X125447883Y-54622640D01*
X125447544Y-54622499D01*
X125260933Y-54435889D01*
X125008000Y-54182956D01*
X125008000Y-47502663D01*
X125019041Y-47498101D01*
X125426669Y-47091184D01*
X125469833Y-46987234D01*
X125511899Y-47089041D01*
X125918816Y-47496669D01*
X125932000Y-47502143D01*
X125932000Y-54604000D01*
X125993505Y-54913209D01*
X126168658Y-55175342D01*
X126935873Y-55942557D01*
X127049707Y-56056590D01*
X127346574Y-56179860D01*
X127668016Y-56180140D01*
X127965097Y-56057389D01*
X128192590Y-55830293D01*
X128315860Y-55533426D01*
X128316140Y-55211984D01*
X128193389Y-54914903D01*
X127966293Y-54687410D01*
X127965953Y-54687269D01*
X127548000Y-54269316D01*
X127548000Y-47502663D01*
X127559041Y-47498101D01*
X127966669Y-47091184D01*
X128009833Y-46987234D01*
X128051899Y-47089041D01*
X128458816Y-47496669D01*
X128472000Y-47502143D01*
X128472000Y-50540000D01*
X128533505Y-50849209D01*
X128708658Y-51111342D01*
X132053050Y-54455735D01*
X132053050Y-108985050D01*
X132114555Y-109294259D01*
X132289708Y-109556392D01*
X135063873Y-112330557D01*
X135177707Y-112444590D01*
X135474574Y-112567860D01*
X135796016Y-112568140D01*
X136093097Y-112445389D01*
X136320590Y-112218293D01*
X136443860Y-111921426D01*
X136444140Y-111599984D01*
X136321389Y-111302903D01*
X136094293Y-111075410D01*
X136093953Y-111075269D01*
X133669050Y-108650366D01*
X133669050Y-54121050D01*
X133607545Y-53811842D01*
X133532653Y-53699759D01*
X133432392Y-53549707D01*
X130088000Y-50205316D01*
X130088000Y-47502663D01*
X130099041Y-47498101D01*
X130506669Y-47091184D01*
X130549833Y-46987234D01*
X130591899Y-47089041D01*
X130998816Y-47496669D01*
X131012000Y-47502143D01*
X131012000Y-49524000D01*
X131073505Y-49833209D01*
X131248658Y-50095342D01*
X133812000Y-52658684D01*
X133812000Y-108204000D01*
X133873505Y-108513209D01*
X134048658Y-108775342D01*
X136588445Y-111315130D01*
X136701707Y-111428590D01*
X136998574Y-111551860D01*
X137320016Y-111552140D01*
X137617097Y-111429389D01*
X137844590Y-111202293D01*
X137967860Y-110905426D01*
X137968140Y-110583984D01*
X137845389Y-110286903D01*
X137618293Y-110059410D01*
X137617954Y-110059269D01*
X135428000Y-107869316D01*
X135428000Y-52324000D01*
X135379126Y-52078292D01*
X135366495Y-52014791D01*
X135191342Y-51752658D01*
X132628000Y-49189316D01*
X132628000Y-47502663D01*
X132639041Y-47498101D01*
X133046669Y-47091184D01*
X133089833Y-46987234D01*
X133131899Y-47089041D01*
X133538816Y-47496669D01*
X133552000Y-47502143D01*
X133552000Y-49016000D01*
X133613505Y-49325209D01*
X133788658Y-49587342D01*
X135844000Y-51642685D01*
X135844000Y-61975295D01*
X135843860Y-62136016D01*
X135966611Y-62433097D01*
X136193707Y-62660590D01*
X136490574Y-62783860D01*
X136812016Y-62784140D01*
X137109097Y-62661389D01*
X137336590Y-62434293D01*
X137459860Y-62137426D01*
X137460140Y-61815984D01*
X137460000Y-61815645D01*
X137460000Y-51308000D01*
X137398495Y-50998792D01*
X137340375Y-50911810D01*
X137223342Y-50736657D01*
X135168000Y-48681316D01*
X135168000Y-47502663D01*
X135179041Y-47498101D01*
X135586669Y-47091184D01*
X135629833Y-46987234D01*
X135671899Y-47089041D01*
X136078816Y-47496669D01*
X136092000Y-47502143D01*
X136092000Y-48508000D01*
X136153505Y-48817209D01*
X136328658Y-49079342D01*
X137876000Y-50626684D01*
X137876000Y-64181316D01*
X136081443Y-65975873D01*
X135967410Y-66089707D01*
X135844140Y-66386574D01*
X135843860Y-66708016D01*
X135966611Y-67005097D01*
X136193707Y-67232590D01*
X136490574Y-67355860D01*
X136812016Y-67356140D01*
X137109097Y-67233389D01*
X137336590Y-67006293D01*
X137336731Y-67005953D01*
X139255342Y-65087342D01*
X139430495Y-64825209D01*
X139492000Y-64516000D01*
X139492000Y-50292000D01*
X139459891Y-50130574D01*
X139430495Y-49982791D01*
X139255342Y-49720658D01*
X137708000Y-48173316D01*
X137708000Y-47502663D01*
X137719041Y-47498101D01*
X138126669Y-47091184D01*
X138169833Y-46987234D01*
X138211899Y-47089041D01*
X138618816Y-47496669D01*
X138632000Y-47502143D01*
X138632000Y-48000000D01*
X138693505Y-48309209D01*
X138868658Y-48571342D01*
X139908000Y-49610685D01*
X139908000Y-66721316D01*
X136081443Y-70547873D01*
X135967410Y-70661707D01*
X135844140Y-70958574D01*
X135843860Y-71280016D01*
X135966611Y-71577097D01*
X136193707Y-71804590D01*
X136490574Y-71927860D01*
X136812016Y-71928140D01*
X137109097Y-71805389D01*
X137336590Y-71578293D01*
X137336731Y-71577953D01*
X141287342Y-67627342D01*
X141462495Y-67365209D01*
X141524000Y-67056000D01*
X141524000Y-49276000D01*
X141462495Y-48966792D01*
X141436586Y-48928016D01*
X141287343Y-48704658D01*
X140248000Y-47665316D01*
X140248000Y-47502663D01*
X140259041Y-47498101D01*
X140378382Y-47378968D01*
X141050637Y-47378968D01*
X141141923Y-47639580D01*
X141729833Y-47856045D01*
X142355828Y-47831049D01*
X142818077Y-47639580D01*
X142909363Y-47378968D01*
X141980000Y-46449605D01*
X141050637Y-47378968D01*
X140378382Y-47378968D01*
X140639532Y-47118274D01*
X140871032Y-47199363D01*
X141800395Y-46270000D01*
X140871032Y-45340637D01*
X140639078Y-45421885D01*
X140261184Y-45043331D01*
X140157234Y-45000167D01*
X140259041Y-44958101D01*
X140666669Y-44551184D01*
X140709833Y-44447234D01*
X140751899Y-44549041D01*
X141131726Y-44929532D01*
X141050637Y-45161032D01*
X141980000Y-46090395D01*
X142909363Y-45161032D01*
X142828115Y-44929078D01*
X143179532Y-44578274D01*
X143411032Y-44659363D01*
X144340395Y-43730000D01*
X144699605Y-43730000D01*
X145628968Y-44659363D01*
X145790000Y-44602957D01*
X145951032Y-44659363D01*
X146880395Y-43730000D01*
X147239605Y-43730000D01*
X148168968Y-44659363D01*
X148330000Y-44602957D01*
X148491032Y-44659363D01*
X149420395Y-43730000D01*
X148491032Y-42800637D01*
X148330000Y-42857043D01*
X148168968Y-42800637D01*
X147239605Y-43730000D01*
X146880395Y-43730000D01*
X145951032Y-42800637D01*
X145790000Y-42857043D01*
X145628968Y-42800637D01*
X144699605Y-43730000D01*
X144340395Y-43730000D01*
X143411032Y-42800637D01*
X143179078Y-42881885D01*
X142801184Y-42503331D01*
X142586051Y-42414000D01*
X143663155Y-42414000D01*
X143590637Y-42621032D01*
X144520000Y-43550395D01*
X145449363Y-42621032D01*
X145376845Y-42414000D01*
X146203155Y-42414000D01*
X146130637Y-42621032D01*
X147060000Y-43550395D01*
X147989363Y-42621032D01*
X147916845Y-42414000D01*
X148743155Y-42414000D01*
X148670637Y-42621032D01*
X149600000Y-43550395D01*
X150529363Y-42621032D01*
X150456845Y-42414000D01*
X151533691Y-42414000D01*
X151320959Y-42501899D01*
X150940468Y-42881726D01*
X150708968Y-42800637D01*
X149779605Y-43730000D01*
X150708968Y-44659363D01*
X150940922Y-44578115D01*
X151318816Y-44956669D01*
X151422766Y-44999833D01*
X151320959Y-45041899D01*
X150913331Y-45448816D01*
X150870167Y-45552766D01*
X150828101Y-45450959D01*
X150448274Y-45070468D01*
X150529363Y-44838968D01*
X149600000Y-43909605D01*
X148670637Y-44838968D01*
X148751885Y-45070922D01*
X148373331Y-45448816D01*
X148330167Y-45552766D01*
X148288101Y-45450959D01*
X147908274Y-45070468D01*
X147989363Y-44838968D01*
X147060000Y-43909605D01*
X146130637Y-44838968D01*
X146211885Y-45070922D01*
X145833331Y-45448816D01*
X145790167Y-45552766D01*
X145748101Y-45450959D01*
X145368274Y-45070468D01*
X145449363Y-44838968D01*
X144520000Y-43909605D01*
X143590637Y-44838968D01*
X143671885Y-45070922D01*
X143320468Y-45421726D01*
X143088968Y-45340637D01*
X142159605Y-46270000D01*
X143088968Y-47199363D01*
X143320922Y-47118115D01*
X143698816Y-47496669D01*
X144230751Y-47717548D01*
X144806722Y-47718051D01*
X145339041Y-47498101D01*
X145746669Y-47091184D01*
X145789833Y-46987234D01*
X145831899Y-47089041D01*
X146238816Y-47496669D01*
X146252000Y-47502143D01*
X146252000Y-48693315D01*
X142684658Y-52260658D01*
X142509505Y-52522791D01*
X142452025Y-52811764D01*
X142448000Y-52832000D01*
X142448000Y-77216000D01*
X142509505Y-77525209D01*
X142684658Y-77787342D01*
X152642000Y-87744684D01*
X152642000Y-129808195D01*
X152480132Y-129916352D01*
X152182807Y-130361331D01*
X152180000Y-130375443D01*
X152177193Y-130361331D01*
X151879868Y-129916352D01*
X151434889Y-129619027D01*
X150910000Y-129514620D01*
X150385111Y-129619027D01*
X149940132Y-129916352D01*
X149642807Y-130361331D01*
X149640000Y-130375443D01*
X149637193Y-130361331D01*
X149339868Y-129916352D01*
X149178000Y-129808195D01*
X149178000Y-101215810D01*
X149173529Y-101193334D01*
X149173653Y-101051307D01*
X149118939Y-100918888D01*
X149116495Y-100906602D01*
X149113496Y-100902114D01*
X149109596Y-100896277D01*
X149050902Y-100754226D01*
X148941358Y-100644491D01*
X148941343Y-100644468D01*
X148937551Y-100640677D01*
X148823806Y-100526733D01*
X148526939Y-100403463D01*
X148205497Y-100403183D01*
X147908416Y-100525934D01*
X147680923Y-100753030D01*
X147557653Y-101049897D01*
X147557373Y-101371339D01*
X147562000Y-101382537D01*
X147562000Y-103839274D01*
X147497389Y-103682903D01*
X147270293Y-103455410D01*
X146973426Y-103332140D01*
X146651984Y-103331860D01*
X146354903Y-103454611D01*
X146127410Y-103681707D01*
X146004140Y-103978574D01*
X146003860Y-104300016D01*
X146004000Y-104300355D01*
X146004000Y-121411295D01*
X146003860Y-121572016D01*
X146126611Y-121869097D01*
X146353707Y-122096590D01*
X146650574Y-122219860D01*
X146972016Y-122220140D01*
X147269097Y-122097389D01*
X147496590Y-121870293D01*
X147562000Y-121712768D01*
X147562000Y-129808195D01*
X147400132Y-129916352D01*
X147102807Y-130361331D01*
X147100000Y-130375443D01*
X147097193Y-130361331D01*
X146799868Y-129916352D01*
X146354889Y-129619027D01*
X145830000Y-129514620D01*
X145305111Y-129619027D01*
X144860132Y-129916352D01*
X144562807Y-130361331D01*
X144560000Y-130375443D01*
X144557193Y-130361331D01*
X144259868Y-129916352D01*
X143814889Y-129619027D01*
X143290000Y-129514620D01*
X142765111Y-129619027D01*
X142320132Y-129916352D01*
X142022807Y-130361331D01*
X142020000Y-130375443D01*
X142017193Y-130361331D01*
X141719868Y-129916352D01*
X141274889Y-129619027D01*
X140750000Y-129514620D01*
X140225111Y-129619027D01*
X139780132Y-129916352D01*
X139482807Y-130361331D01*
X139480000Y-130375443D01*
X139477193Y-130361331D01*
X139179868Y-129916352D01*
X138734889Y-129619027D01*
X138210000Y-129514620D01*
X137685111Y-129619027D01*
X137240132Y-129916352D01*
X136942807Y-130361331D01*
X136940000Y-130375443D01*
X136937193Y-130361331D01*
X136639868Y-129916352D01*
X136194889Y-129619027D01*
X135670000Y-129514620D01*
X135145111Y-129619027D01*
X134700132Y-129916352D01*
X134402807Y-130361331D01*
X134400000Y-130375443D01*
X134397193Y-130361331D01*
X134099868Y-129916352D01*
X133938000Y-129808195D01*
X133938000Y-128079318D01*
X135222531Y-126794788D01*
X137157212Y-126794788D01*
X137171176Y-126792010D01*
X137320016Y-126792140D01*
X137458785Y-126734802D01*
X137466421Y-126733283D01*
X137472837Y-126728996D01*
X137617097Y-126669389D01*
X137728543Y-126558137D01*
X137728554Y-126558130D01*
X137730557Y-126556127D01*
X137844590Y-126442293D01*
X137967860Y-126145426D01*
X137968140Y-125823984D01*
X137845389Y-125526903D01*
X137618293Y-125299410D01*
X137321426Y-125176140D01*
X136999984Y-125175860D01*
X136992898Y-125178788D01*
X134887846Y-125178788D01*
X134578638Y-125240293D01*
X134316504Y-125415445D01*
X132558658Y-127173292D01*
X132383505Y-127435425D01*
X132383505Y-127435426D01*
X132322000Y-127744634D01*
X132322000Y-129808195D01*
X132160132Y-129916352D01*
X131862807Y-130361331D01*
X131860000Y-130375443D01*
X131857193Y-130361331D01*
X131559868Y-129916352D01*
X131114889Y-129619027D01*
X130590000Y-129514620D01*
X130065111Y-129619027D01*
X129620132Y-129916352D01*
X129322807Y-130361331D01*
X129320000Y-130375443D01*
X129317193Y-130361331D01*
X129019868Y-129916352D01*
X128574889Y-129619027D01*
X128050000Y-129514620D01*
X127525111Y-129619027D01*
X127080132Y-129916352D01*
X126782807Y-130361331D01*
X126780000Y-130375443D01*
X126777193Y-130361331D01*
X126479868Y-129916352D01*
X126034889Y-129619027D01*
X125510000Y-129514620D01*
X124985111Y-129619027D01*
X124540132Y-129916352D01*
X124242807Y-130361331D01*
X124240000Y-130375443D01*
X124237193Y-130361331D01*
X123939868Y-129916352D01*
X123494889Y-129619027D01*
X122970000Y-129514620D01*
X122445111Y-129619027D01*
X122000132Y-129916352D01*
X121702807Y-130361331D01*
X121700000Y-130375443D01*
X121697193Y-130361331D01*
X121399868Y-129916352D01*
X120954889Y-129619027D01*
X120430000Y-129514620D01*
X119905111Y-129619027D01*
X119460132Y-129916352D01*
X119162807Y-130361331D01*
X119058400Y-130886220D01*
X119058400Y-132033780D01*
X119162807Y-132558669D01*
X119460132Y-133003648D01*
X119905111Y-133300973D01*
X120430000Y-133405380D01*
X120954889Y-133300973D01*
X121399868Y-133003648D01*
X121697193Y-132558669D01*
X121700000Y-132544557D01*
X121702807Y-132558669D01*
X122000132Y-133003648D01*
X122445111Y-133300973D01*
X122970000Y-133405380D01*
X123494889Y-133300973D01*
X123939868Y-133003648D01*
X124237193Y-132558669D01*
X124240000Y-132544557D01*
X124242807Y-132558669D01*
X124540132Y-133003648D01*
X124985111Y-133300973D01*
X125510000Y-133405380D01*
X126034889Y-133300973D01*
X126479868Y-133003648D01*
X126777193Y-132558669D01*
X126780000Y-132544557D01*
X126782807Y-132558669D01*
X127080132Y-133003648D01*
X127525111Y-133300973D01*
X128050000Y-133405380D01*
X128574889Y-133300973D01*
X129019868Y-133003648D01*
X129317193Y-132558669D01*
X129320000Y-132544557D01*
X129322807Y-132558669D01*
X129620132Y-133003648D01*
X130065111Y-133300973D01*
X130590000Y-133405380D01*
X131114889Y-133300973D01*
X131559868Y-133003648D01*
X131857193Y-132558669D01*
X131860000Y-132544557D01*
X131862807Y-132558669D01*
X132160132Y-133003648D01*
X132605111Y-133300973D01*
X133130000Y-133405380D01*
X133654889Y-133300973D01*
X134099868Y-133003648D01*
X134397193Y-132558669D01*
X134400000Y-132544557D01*
X134402807Y-132558669D01*
X134700132Y-133003648D01*
X135145111Y-133300973D01*
X135670000Y-133405380D01*
X136194889Y-133300973D01*
X136639868Y-133003648D01*
X136937193Y-132558669D01*
X136940000Y-132544557D01*
X136942807Y-132558669D01*
X137240132Y-133003648D01*
X137685111Y-133300973D01*
X138210000Y-133405380D01*
X138734889Y-133300973D01*
X139179868Y-133003648D01*
X139477193Y-132558669D01*
X139480000Y-132544557D01*
X139482807Y-132558669D01*
X139780132Y-133003648D01*
X140225111Y-133300973D01*
X140750000Y-133405380D01*
X141274889Y-133300973D01*
X141719868Y-133003648D01*
X142017193Y-132558669D01*
X142020000Y-132544557D01*
X142022807Y-132558669D01*
X142320132Y-133003648D01*
X142765111Y-133300973D01*
X143290000Y-133405380D01*
X143814889Y-133300973D01*
X144259868Y-133003648D01*
X144557193Y-132558669D01*
X144560000Y-132544557D01*
X144562807Y-132558669D01*
X144860132Y-133003648D01*
X145305111Y-133300973D01*
X145830000Y-133405380D01*
X146354889Y-133300973D01*
X146799868Y-133003648D01*
X147097193Y-132558669D01*
X147100000Y-132544557D01*
X147102807Y-132558669D01*
X147400132Y-133003648D01*
X147845111Y-133300973D01*
X148370000Y-133405380D01*
X148894889Y-133300973D01*
X149339868Y-133003648D01*
X149637193Y-132558669D01*
X149640000Y-132544557D01*
X149642807Y-132558669D01*
X149940132Y-133003648D01*
X150385111Y-133300973D01*
X150910000Y-133405380D01*
X151434889Y-133300973D01*
X151879868Y-133003648D01*
X152177193Y-132558669D01*
X152180000Y-132544557D01*
X152182807Y-132558669D01*
X152480132Y-133003648D01*
X152925111Y-133300973D01*
X153450000Y-133405380D01*
X153974889Y-133300973D01*
X154053000Y-133248781D01*
X154053000Y-133857995D01*
X154052999Y-133858000D01*
X154101184Y-134100239D01*
X154238401Y-134305599D01*
X154983692Y-135050889D01*
X154722807Y-135441331D01*
X154720000Y-135455443D01*
X154717193Y-135441331D01*
X154419868Y-134996352D01*
X153974889Y-134699027D01*
X153450000Y-134594620D01*
X152925111Y-134699027D01*
X152480132Y-134996352D01*
X152182807Y-135441331D01*
X152180000Y-135455443D01*
X152177193Y-135441331D01*
X151879868Y-134996352D01*
X151434889Y-134699027D01*
X150910000Y-134594620D01*
X150385111Y-134699027D01*
X149940132Y-134996352D01*
X149642807Y-135441331D01*
X149640000Y-135455443D01*
X149637193Y-135441331D01*
X149339868Y-134996352D01*
X148894889Y-134699027D01*
X148370000Y-134594620D01*
X147845111Y-134699027D01*
X147400132Y-134996352D01*
X147102807Y-135441331D01*
X147100000Y-135455443D01*
X147097193Y-135441331D01*
X146799868Y-134996352D01*
X146354889Y-134699027D01*
X145830000Y-134594620D01*
X145305111Y-134699027D01*
X144860132Y-134996352D01*
X144562807Y-135441331D01*
X144560000Y-135455443D01*
X144557193Y-135441331D01*
X144259868Y-134996352D01*
X143814889Y-134699027D01*
X143290000Y-134594620D01*
X142765111Y-134699027D01*
X142320132Y-134996352D01*
X142092794Y-135336587D01*
X142085925Y-135312778D01*
X141719868Y-134854127D01*
X141206157Y-134570473D01*
X141109026Y-134548642D01*
X140877000Y-134669783D01*
X140877000Y-136413000D01*
X140897000Y-136413000D01*
X140897000Y-136667000D01*
X140877000Y-136667000D01*
X140877000Y-138410217D01*
X141109026Y-138531358D01*
X141206157Y-138509527D01*
X141719868Y-138225873D01*
X142085925Y-137767222D01*
X142092794Y-137743413D01*
X142320132Y-138083648D01*
X142765111Y-138380973D01*
X143290000Y-138485380D01*
X143814889Y-138380973D01*
X144259868Y-138083648D01*
X144557193Y-137638669D01*
X144560000Y-137624557D01*
X144562807Y-137638669D01*
X144860132Y-138083648D01*
X145305111Y-138380973D01*
X145830000Y-138485380D01*
X146354889Y-138380973D01*
X146799868Y-138083648D01*
X147097193Y-137638669D01*
X147100000Y-137624557D01*
X147102807Y-137638669D01*
X147400132Y-138083648D01*
X147845111Y-138380973D01*
X148370000Y-138485380D01*
X148894889Y-138380973D01*
X149339868Y-138083648D01*
X149637193Y-137638669D01*
X149640000Y-137624557D01*
X149642807Y-137638669D01*
X149940132Y-138083648D01*
X150385111Y-138380973D01*
X150910000Y-138485380D01*
X151434889Y-138380973D01*
X151879868Y-138083648D01*
X152177193Y-137638669D01*
X152180000Y-137624557D01*
X152182807Y-137638669D01*
X152480132Y-138083648D01*
X152925111Y-138380973D01*
X153450000Y-138485380D01*
X153974889Y-138380973D01*
X154419868Y-138083648D01*
X154717193Y-137638669D01*
X154720000Y-137624557D01*
X154722807Y-137638669D01*
X155020132Y-138083648D01*
X155465111Y-138380973D01*
X155990000Y-138485380D01*
X156514889Y-138380973D01*
X156959868Y-138083648D01*
X157257193Y-137638669D01*
X157260000Y-137624557D01*
X157262807Y-137638669D01*
X157560132Y-138083648D01*
X158005111Y-138380973D01*
X158530000Y-138485380D01*
X159054889Y-138380973D01*
X159499868Y-138083648D01*
X159797193Y-137638669D01*
X159800000Y-137624557D01*
X159802807Y-137638669D01*
X160100132Y-138083648D01*
X160545111Y-138380973D01*
X161070000Y-138485380D01*
X161594889Y-138380973D01*
X162039868Y-138083648D01*
X162337193Y-137638669D01*
X162340000Y-137624557D01*
X162342807Y-137638669D01*
X162640132Y-138083648D01*
X163085111Y-138380973D01*
X163610000Y-138485380D01*
X164134889Y-138380973D01*
X164579868Y-138083648D01*
X164877193Y-137638669D01*
X164880000Y-137624557D01*
X164882807Y-137638669D01*
X165180132Y-138083648D01*
X165625111Y-138380973D01*
X166150000Y-138485380D01*
X166674889Y-138380973D01*
X167119868Y-138083648D01*
X167417193Y-137638669D01*
X167420000Y-137624557D01*
X167422807Y-137638669D01*
X167720132Y-138083648D01*
X168165111Y-138380973D01*
X168690000Y-138485380D01*
X169214889Y-138380973D01*
X169659868Y-138083648D01*
X169957193Y-137638669D01*
X169960000Y-137624557D01*
X169962807Y-137638669D01*
X170260132Y-138083648D01*
X170705111Y-138380973D01*
X171230000Y-138485380D01*
X171754889Y-138380973D01*
X172199868Y-138083648D01*
X172497193Y-137638669D01*
X172500000Y-137624557D01*
X172502807Y-137638669D01*
X172800132Y-138083648D01*
X173245111Y-138380973D01*
X173770000Y-138485380D01*
X174294889Y-138380973D01*
X174739868Y-138083648D01*
X175037193Y-137638669D01*
X175040000Y-137624557D01*
X175042807Y-137638669D01*
X175340132Y-138083648D01*
X175785111Y-138380973D01*
X176310000Y-138485380D01*
X176834889Y-138380973D01*
X177279868Y-138083648D01*
X177577193Y-137638669D01*
X177681600Y-137113780D01*
X177681600Y-135966220D01*
X177577193Y-135441331D01*
X177279868Y-134996352D01*
X177059160Y-134848880D01*
X177871120Y-134848880D01*
X178180329Y-134787375D01*
X178442462Y-134612222D01*
X179596681Y-133458003D01*
X179771834Y-133195870D01*
X179792007Y-133094450D01*
X179833339Y-132886661D01*
X179833339Y-129502732D01*
X179771834Y-129193524D01*
X179713714Y-129106542D01*
X179596681Y-128931389D01*
X178158550Y-127493259D01*
X177896417Y-127318106D01*
X177587208Y-127256601D01*
X175598579Y-127256601D01*
X174093116Y-125751139D01*
X174093116Y-123607468D01*
X175691635Y-123607468D01*
X176011883Y-124382526D01*
X176604355Y-124976033D01*
X177378853Y-125297633D01*
X178217468Y-125298365D01*
X178992526Y-124978117D01*
X179586033Y-124385645D01*
X179907633Y-123611147D01*
X179908365Y-122772532D01*
X179588117Y-121997474D01*
X178995645Y-121403967D01*
X178221147Y-121082367D01*
X177382532Y-121081635D01*
X176607474Y-121401883D01*
X176013967Y-121994355D01*
X175692367Y-122768853D01*
X175691635Y-123607468D01*
X174093116Y-123607468D01*
X174093116Y-118837449D01*
X179214622Y-113715943D01*
X179389775Y-113453810D01*
X179399979Y-113402509D01*
X179451280Y-113144601D01*
X179451280Y-53002264D01*
X179389775Y-52693056D01*
X179260780Y-52500001D01*
X179260780Y-52388205D01*
X179260920Y-52227484D01*
X179138169Y-51930403D01*
X178911073Y-51702910D01*
X178614206Y-51579640D01*
X178292764Y-51579360D01*
X177995683Y-51702111D01*
X177768190Y-51929207D01*
X177644920Y-52226074D01*
X177644640Y-52547516D01*
X177644780Y-52547855D01*
X177644780Y-52811764D01*
X177706285Y-53120973D01*
X177835280Y-53314026D01*
X177835280Y-112809917D01*
X172713774Y-117931423D01*
X172538621Y-118193556D01*
X172538621Y-118193557D01*
X172477116Y-118502765D01*
X172477116Y-126085823D01*
X172538621Y-126395032D01*
X172713774Y-126657165D01*
X174692552Y-128635944D01*
X174954686Y-128811096D01*
X175263894Y-128872601D01*
X177252524Y-128872601D01*
X178217339Y-129837417D01*
X178217339Y-132551977D01*
X177536436Y-133232880D01*
X176936798Y-133232880D01*
X177279868Y-133003648D01*
X177577193Y-132558669D01*
X177681600Y-132033780D01*
X177681600Y-130886220D01*
X177577193Y-130361331D01*
X177279868Y-129916352D01*
X176834889Y-129619027D01*
X176310000Y-129514620D01*
X175785111Y-129619027D01*
X175340132Y-129916352D01*
X175042807Y-130361331D01*
X175040000Y-130375443D01*
X175037193Y-130361331D01*
X174739868Y-129916352D01*
X174294889Y-129619027D01*
X173770000Y-129514620D01*
X173245111Y-129619027D01*
X172800132Y-129916352D01*
X172502807Y-130361331D01*
X172500000Y-130375443D01*
X172497193Y-130361331D01*
X172199868Y-129916352D01*
X172038000Y-129808195D01*
X172038000Y-116194813D01*
X173291033Y-114941780D01*
X173466186Y-114679647D01*
X173499886Y-114510222D01*
X173527691Y-114370438D01*
X173527691Y-50453833D01*
X173527860Y-50453426D01*
X173528140Y-50131984D01*
X173405389Y-49834903D01*
X173178293Y-49607410D01*
X172881426Y-49484140D01*
X172559984Y-49483860D01*
X172262903Y-49606611D01*
X172035410Y-49833707D01*
X171973673Y-49982386D01*
X171973196Y-49983100D01*
X171973196Y-49983101D01*
X171973030Y-49983934D01*
X171912140Y-50130574D01*
X171912000Y-50290753D01*
X171911691Y-50292309D01*
X171911691Y-114035754D01*
X170658658Y-115288787D01*
X170483505Y-115550920D01*
X170428484Y-115827530D01*
X170422000Y-115860129D01*
X170422000Y-129808195D01*
X170260132Y-129916352D01*
X169962807Y-130361331D01*
X169960000Y-130375443D01*
X169957193Y-130361331D01*
X169659868Y-129916352D01*
X169214889Y-129619027D01*
X168690000Y-129514620D01*
X168165111Y-129619027D01*
X167720132Y-129916352D01*
X167422807Y-130361331D01*
X167420000Y-130375443D01*
X167417193Y-130361331D01*
X167119868Y-129916352D01*
X166958000Y-129808195D01*
X166958000Y-75218000D01*
X166896495Y-74908792D01*
X166896495Y-74908791D01*
X166721342Y-74646658D01*
X160828000Y-68753316D01*
X160828000Y-64936465D01*
X160944896Y-64858358D01*
X161228434Y-64434012D01*
X161290000Y-64124500D01*
X161351566Y-64434012D01*
X161635104Y-64858358D01*
X162059450Y-65141896D01*
X162560000Y-65241462D01*
X163060550Y-65141896D01*
X163484896Y-64858358D01*
X163768434Y-64434012D01*
X163830000Y-64124500D01*
X163891566Y-64434012D01*
X164175104Y-64858358D01*
X164599450Y-65141896D01*
X165100000Y-65241462D01*
X165600550Y-65141896D01*
X166024896Y-64858358D01*
X166308434Y-64434012D01*
X166370000Y-64124500D01*
X166431566Y-64434012D01*
X166715104Y-64858358D01*
X167139450Y-65141896D01*
X167640000Y-65241462D01*
X168140550Y-65141896D01*
X168564896Y-64858358D01*
X168848434Y-64434012D01*
X168948000Y-63933462D01*
X168948000Y-63066538D01*
X168914392Y-62897582D01*
X169475987Y-62335987D01*
X169640301Y-62090074D01*
X169698000Y-61800000D01*
X169698000Y-44867468D01*
X175691635Y-44867468D01*
X176011883Y-45642526D01*
X176604355Y-46236033D01*
X177378853Y-46557633D01*
X178217468Y-46558365D01*
X178992526Y-46238117D01*
X179586033Y-45645645D01*
X179907633Y-44871147D01*
X179908365Y-44032532D01*
X179588117Y-43257474D01*
X178995645Y-42663967D01*
X178221147Y-42342367D01*
X177382532Y-42341635D01*
X176607474Y-42661883D01*
X176013967Y-43254355D01*
X175692367Y-44028853D01*
X175691635Y-44867468D01*
X169698000Y-44867468D01*
X169698000Y-41940000D01*
X169640301Y-41649926D01*
X169475987Y-41404013D01*
X169191987Y-41120013D01*
X168946074Y-40955699D01*
X168656000Y-40898000D01*
X166914000Y-40898000D01*
X166623926Y-40955699D01*
X166378013Y-41120013D01*
X165190246Y-42307780D01*
X165129249Y-42282452D01*
X164553278Y-42281949D01*
X164020959Y-42501899D01*
X163613331Y-42908816D01*
X163570167Y-43012766D01*
X163528101Y-42910959D01*
X163121184Y-42503331D01*
X163058000Y-42477095D01*
X163058000Y-42412000D01*
X163043021Y-42336696D01*
X163000301Y-42121925D01*
X162835987Y-41876013D01*
X162079987Y-41120013D01*
X161834074Y-40955699D01*
X161544000Y-40898000D01*
X115316000Y-40898000D01*
X115025926Y-40955699D01*
X114780013Y-41120013D01*
X113640823Y-42259203D01*
X113476509Y-42505116D01*
X113418810Y-42795190D01*
X113418810Y-124927076D01*
X109734013Y-128611873D01*
X109569699Y-128857786D01*
X109512000Y-129147860D01*
X109512000Y-129774787D01*
X109300132Y-129916352D01*
X109002807Y-130361331D01*
X109000000Y-130375443D01*
X108997193Y-130361331D01*
X108699868Y-129916352D01*
X108254889Y-129619027D01*
X107730000Y-129514620D01*
X107205111Y-129619027D01*
X106760132Y-129916352D01*
X106462807Y-130361331D01*
X106358400Y-130886220D01*
X106358400Y-132033780D01*
X106462807Y-132558669D01*
X106760132Y-133003648D01*
X107041430Y-133191605D01*
X106650829Y-133191605D01*
X105998933Y-132539709D01*
X105998933Y-129515901D01*
X106808137Y-128706697D01*
X108633397Y-128706697D01*
X108942606Y-128645192D01*
X109204739Y-128470039D01*
X112429132Y-125245646D01*
X112604285Y-124983513D01*
X112614489Y-124932212D01*
X112665790Y-124674304D01*
X112665790Y-60113509D01*
X112665930Y-59952893D01*
X112543179Y-59655812D01*
X112316083Y-59428319D01*
X112019216Y-59305049D01*
X111697774Y-59304769D01*
X111400693Y-59427520D01*
X111173200Y-59654616D01*
X111049930Y-59951483D01*
X111049650Y-60272925D01*
X111049790Y-60273264D01*
X111049790Y-124339620D01*
X108298713Y-127090697D01*
X106473453Y-127090697D01*
X106215545Y-127141998D01*
X106164244Y-127152202D01*
X105902111Y-127327355D01*
X104619591Y-128609875D01*
X104444438Y-128872008D01*
X104389568Y-129147860D01*
X104382933Y-129181217D01*
X102583000Y-129181217D01*
X102583000Y-123607468D01*
X104571635Y-123607468D01*
X104891883Y-124382526D01*
X105484355Y-124976033D01*
X106258853Y-125297633D01*
X107097468Y-125298365D01*
X107872526Y-124978117D01*
X108466033Y-124385645D01*
X108787633Y-123611147D01*
X108788365Y-122772532D01*
X108468117Y-121997474D01*
X107875645Y-121403967D01*
X107101147Y-121082367D01*
X106262532Y-121081635D01*
X105487474Y-121401883D01*
X104893967Y-121994355D01*
X104572367Y-122768853D01*
X104571635Y-123607468D01*
X102583000Y-123607468D01*
X102583000Y-44867468D01*
X104571635Y-44867468D01*
X104891883Y-45642526D01*
X105484355Y-46236033D01*
X106258853Y-46557633D01*
X107097468Y-46558365D01*
X107872526Y-46238117D01*
X108466033Y-45645645D01*
X108787633Y-44871147D01*
X108788365Y-44032532D01*
X108468117Y-43257474D01*
X107875645Y-42663967D01*
X107101147Y-42342367D01*
X106262532Y-42341635D01*
X105487474Y-42661883D01*
X104893967Y-43254355D01*
X104572367Y-44028853D01*
X104571635Y-44867468D01*
X102583000Y-44867468D01*
X102583000Y-43057421D01*
X102777535Y-42079426D01*
X103298998Y-41299001D01*
X104079425Y-40777535D01*
X105057422Y-40583000D01*
X178942579Y-40583000D01*
X179920574Y-40777535D01*
G36*
X161071899Y-47089041D02*
X161478816Y-47496669D01*
X161492000Y-47502143D01*
X161492000Y-48508000D01*
X161553505Y-48817209D01*
X161728658Y-49079342D01*
X163512658Y-50863342D01*
X163774791Y-51038495D01*
X164084000Y-51100000D01*
X167639295Y-51100000D01*
X167800016Y-51100140D01*
X168097097Y-50977389D01*
X168182000Y-50892634D01*
X168182000Y-54162048D01*
X166840000Y-54162048D01*
X166651747Y-54197470D01*
X166478847Y-54308728D01*
X166362855Y-54478488D01*
X166322048Y-54680000D01*
X166322048Y-55014430D01*
X166308434Y-54945988D01*
X166024896Y-54521642D01*
X165600550Y-54238104D01*
X165100000Y-54138538D01*
X164599450Y-54238104D01*
X164175104Y-54521642D01*
X163891566Y-54945988D01*
X163830000Y-55255500D01*
X163768434Y-54945988D01*
X163484896Y-54521642D01*
X163060550Y-54238104D01*
X162560000Y-54138538D01*
X162059450Y-54238104D01*
X161635104Y-54521642D01*
X161351566Y-54945988D01*
X161326501Y-55072000D01*
X161253499Y-55072000D01*
X161228434Y-54945988D01*
X160944896Y-54521642D01*
X160520550Y-54238104D01*
X160020000Y-54138538D01*
X159519450Y-54238104D01*
X159095104Y-54521642D01*
X158811566Y-54945988D01*
X158786501Y-55072000D01*
X158713499Y-55072000D01*
X158688434Y-54945988D01*
X158404896Y-54521642D01*
X157980550Y-54238104D01*
X157480000Y-54138538D01*
X156979450Y-54238104D01*
X156555104Y-54521642D01*
X156271566Y-54945988D01*
X156210000Y-55255500D01*
X156148434Y-54945988D01*
X155864896Y-54521642D01*
X155440550Y-54238104D01*
X154940000Y-54138538D01*
X154439450Y-54238104D01*
X154015104Y-54521642D01*
X153731566Y-54945988D01*
X153725235Y-54977818D01*
X153677166Y-54813517D01*
X153324896Y-54375500D01*
X152831819Y-54105633D01*
X152749039Y-54088096D01*
X152527000Y-54210085D01*
X152527000Y-55753000D01*
X152547000Y-55753000D01*
X152547000Y-56007000D01*
X152527000Y-56007000D01*
X152527000Y-57549915D01*
X152749039Y-57671904D01*
X152831819Y-57654367D01*
X153324896Y-57384500D01*
X153677166Y-56946483D01*
X153725235Y-56782182D01*
X153731566Y-56814012D01*
X154015104Y-57238358D01*
X154439450Y-57521896D01*
X154940000Y-57621462D01*
X155440550Y-57521896D01*
X155864896Y-57238358D01*
X156148434Y-56814012D01*
X156210000Y-56504500D01*
X156271566Y-56814012D01*
X156555104Y-57238358D01*
X156672000Y-57316465D01*
X156672000Y-58085316D01*
X156129316Y-58628000D01*
X151892000Y-58628000D01*
X151582792Y-58689505D01*
X151523371Y-58729209D01*
X151320657Y-58864658D01*
X147764658Y-62420658D01*
X147620000Y-62637152D01*
X147620000Y-60138984D01*
X149447092Y-58311892D01*
X149622245Y-58049759D01*
X149632449Y-57998458D01*
X149683750Y-57740550D01*
X149683750Y-56007000D01*
X150965000Y-56007000D01*
X150965000Y-56407000D01*
X151122834Y-56946483D01*
X151475104Y-57384500D01*
X151968181Y-57654367D01*
X152050961Y-57671904D01*
X152273000Y-57549915D01*
X152273000Y-56007000D01*
X150965000Y-56007000D01*
X149683750Y-56007000D01*
X149683750Y-55353000D01*
X150965000Y-55353000D01*
X150965000Y-55753000D01*
X152273000Y-55753000D01*
X152273000Y-54210085D01*
X152050961Y-54088096D01*
X151968181Y-54105633D01*
X151475104Y-54375500D01*
X151122834Y-54813517D01*
X150965000Y-55353000D01*
X149683750Y-55353000D01*
X149683750Y-48799750D01*
X149652112Y-48640692D01*
X149652140Y-48607984D01*
X149639540Y-48577489D01*
X149622245Y-48490542D01*
X149622245Y-48490541D01*
X149573424Y-48417475D01*
X149529389Y-48310903D01*
X149447201Y-48228572D01*
X149447092Y-48228408D01*
X149416127Y-48197443D01*
X149302293Y-48083410D01*
X149005426Y-47960140D01*
X148683984Y-47959860D01*
X148386903Y-48082611D01*
X148159410Y-48309707D01*
X148036140Y-48606574D01*
X148035860Y-48928016D01*
X148067750Y-49005196D01*
X148067750Y-57405866D01*
X146240658Y-59232958D01*
X146065505Y-59495091D01*
X146033774Y-59654616D01*
X146004000Y-59804300D01*
X146004000Y-67055295D01*
X146003860Y-67216016D01*
X146126611Y-67513097D01*
X146353707Y-67740590D01*
X146650574Y-67863860D01*
X146972016Y-67864140D01*
X147269097Y-67741389D01*
X147496590Y-67514293D01*
X147619860Y-67217426D01*
X147620140Y-66895984D01*
X147620000Y-66895645D01*
X147620000Y-65407012D01*
X147650611Y-65481097D01*
X147877707Y-65708590D01*
X148174574Y-65831860D01*
X148496016Y-65832140D01*
X148793097Y-65709389D01*
X149020590Y-65482293D01*
X149143860Y-65185426D01*
X149144140Y-64863984D01*
X149144000Y-64863645D01*
X149144000Y-63326684D01*
X152226685Y-60244000D01*
X156464000Y-60244000D01*
X156773209Y-60182495D01*
X157035342Y-60007342D01*
X158051342Y-58991342D01*
X158226495Y-58729209D01*
X158288000Y-58420000D01*
X158288000Y-57316465D01*
X158404896Y-57238358D01*
X158688434Y-56814012D01*
X158713499Y-56688000D01*
X158786501Y-56688000D01*
X158811566Y-56814012D01*
X159095104Y-57238358D01*
X159519450Y-57521896D01*
X160020000Y-57621462D01*
X160520550Y-57521896D01*
X160944896Y-57238358D01*
X161228434Y-56814012D01*
X161253499Y-56688000D01*
X161326501Y-56688000D01*
X161351566Y-56814012D01*
X161635104Y-57238358D01*
X162059450Y-57521896D01*
X162560000Y-57621462D01*
X163060550Y-57521896D01*
X163484896Y-57238358D01*
X163768434Y-56814012D01*
X163830000Y-56504500D01*
X163891566Y-56814012D01*
X164175104Y-57238358D01*
X164292000Y-57316465D01*
X164292000Y-62063535D01*
X164175104Y-62141642D01*
X163891566Y-62565988D01*
X163830000Y-62875500D01*
X163768434Y-62565988D01*
X163484896Y-62141642D01*
X163060550Y-61858104D01*
X162560000Y-61758538D01*
X162059450Y-61858104D01*
X161635104Y-62141642D01*
X161351566Y-62565988D01*
X161290000Y-62875500D01*
X161228434Y-62565988D01*
X160944896Y-62141642D01*
X160520550Y-61858104D01*
X160020000Y-61758538D01*
X159519450Y-61858104D01*
X159095104Y-62141642D01*
X158811566Y-62565988D01*
X158750000Y-62875500D01*
X158688434Y-62565988D01*
X158404896Y-62141642D01*
X157980550Y-61858104D01*
X157480000Y-61758538D01*
X156979450Y-61858104D01*
X156555104Y-62141642D01*
X156271566Y-62565988D01*
X156210000Y-62875500D01*
X156148434Y-62565988D01*
X155864896Y-62141642D01*
X155440550Y-61858104D01*
X154940000Y-61758538D01*
X154439450Y-61858104D01*
X154015104Y-62141642D01*
X153731566Y-62565988D01*
X153670000Y-62875500D01*
X153608434Y-62565988D01*
X153324896Y-62141642D01*
X152900550Y-61858104D01*
X152400000Y-61758538D01*
X151899450Y-61858104D01*
X151475104Y-62141642D01*
X151191566Y-62565988D01*
X151092000Y-63066538D01*
X151092000Y-63933462D01*
X151191566Y-64434012D01*
X151475104Y-64858358D01*
X151899450Y-65141896D01*
X152400000Y-65241462D01*
X152900550Y-65141896D01*
X153324896Y-64858358D01*
X153608434Y-64434012D01*
X153670000Y-64124500D01*
X153731566Y-64434012D01*
X154015104Y-64858358D01*
X154439450Y-65141896D01*
X154940000Y-65241462D01*
X155440550Y-65141896D01*
X155864896Y-64858358D01*
X156148434Y-64434012D01*
X156210000Y-64124500D01*
X156271566Y-64434012D01*
X156555104Y-64858358D01*
X156979450Y-65141896D01*
X157480000Y-65241462D01*
X157980550Y-65141896D01*
X158404896Y-64858358D01*
X158688434Y-64434012D01*
X158750000Y-64124500D01*
X158811566Y-64434012D01*
X159095104Y-64858358D01*
X159212000Y-64936465D01*
X159212000Y-69088000D01*
X159273505Y-69397209D01*
X159448658Y-69659342D01*
X165342000Y-75552684D01*
X165342000Y-129808195D01*
X165180132Y-129916352D01*
X164882807Y-130361331D01*
X164880000Y-130375443D01*
X164877193Y-130361331D01*
X164579868Y-129916352D01*
X164134889Y-129619027D01*
X163610000Y-129514620D01*
X163085111Y-129619027D01*
X162640132Y-129916352D01*
X162342807Y-130361331D01*
X162340000Y-130375443D01*
X162337193Y-130361331D01*
X162039868Y-129916352D01*
X161594889Y-129619027D01*
X161070000Y-129514620D01*
X160545111Y-129619027D01*
X160100132Y-129916352D01*
X159802807Y-130361331D01*
X159800000Y-130375443D01*
X159797193Y-130361331D01*
X159499868Y-129916352D01*
X159054889Y-129619027D01*
X158530000Y-129514620D01*
X158005111Y-129619027D01*
X157560132Y-129916352D01*
X157262807Y-130361331D01*
X157260000Y-130375443D01*
X157257193Y-130361331D01*
X156959868Y-129916352D01*
X156514889Y-129619027D01*
X155990000Y-129514620D01*
X155465111Y-129619027D01*
X155319000Y-129716655D01*
X155319000Y-86677505D01*
X155319001Y-86677500D01*
X155270817Y-86435262D01*
X155225285Y-86367119D01*
X155133599Y-86229901D01*
X155133596Y-86229899D01*
X145413000Y-76509302D01*
X145413000Y-58287056D01*
X145730521Y-58074896D01*
X146014059Y-57650550D01*
X146113625Y-57150000D01*
X146014059Y-56649450D01*
X145730521Y-56225104D01*
X145306175Y-55941566D01*
X144805625Y-55842000D01*
X144754375Y-55842000D01*
X144253825Y-55941566D01*
X144064000Y-56068403D01*
X144064000Y-53166684D01*
X147631342Y-49599343D01*
X147806494Y-49337209D01*
X147806495Y-49337208D01*
X147868000Y-49028000D01*
X147868000Y-47502663D01*
X147879041Y-47498101D01*
X148286669Y-47091184D01*
X148329833Y-46987234D01*
X148371899Y-47089041D01*
X148778816Y-47496669D01*
X149310751Y-47717548D01*
X149886722Y-47718051D01*
X150419041Y-47498101D01*
X150826669Y-47091184D01*
X150869833Y-46987234D01*
X150911899Y-47089041D01*
X151318816Y-47496669D01*
X151850751Y-47717548D01*
X152426722Y-47718051D01*
X152959041Y-47498101D01*
X153366669Y-47091184D01*
X153409833Y-46987234D01*
X153451899Y-47089041D01*
X153858816Y-47496669D01*
X154390751Y-47717548D01*
X154966722Y-47718051D01*
X155499041Y-47498101D01*
X155906669Y-47091184D01*
X155949833Y-46987234D01*
X155991899Y-47089041D01*
X156398816Y-47496669D01*
X156930751Y-47717548D01*
X157506722Y-47718051D01*
X158039041Y-47498101D01*
X158446669Y-47091184D01*
X158489833Y-46987234D01*
X158531899Y-47089041D01*
X158938816Y-47496669D01*
X159470751Y-47717548D01*
X160046722Y-47718051D01*
X160579041Y-47498101D01*
X160986669Y-47091184D01*
X161029833Y-46987234D01*
X161071899Y-47089041D01*
X161071899Y-47089041D01*
G37*
X161071899Y-47089041D02*
X161478816Y-47496669D01*
X161492000Y-47502143D01*
X161492000Y-48508000D01*
X161553505Y-48817209D01*
X161728658Y-49079342D01*
X163512658Y-50863342D01*
X163774791Y-51038495D01*
X164084000Y-51100000D01*
X167639295Y-51100000D01*
X167800016Y-51100140D01*
X168097097Y-50977389D01*
X168182000Y-50892634D01*
X168182000Y-54162048D01*
X166840000Y-54162048D01*
X166651747Y-54197470D01*
X166478847Y-54308728D01*
X166362855Y-54478488D01*
X166322048Y-54680000D01*
X166322048Y-55014430D01*
X166308434Y-54945988D01*
X166024896Y-54521642D01*
X165600550Y-54238104D01*
X165100000Y-54138538D01*
X164599450Y-54238104D01*
X164175104Y-54521642D01*
X163891566Y-54945988D01*
X163830000Y-55255500D01*
X163768434Y-54945988D01*
X163484896Y-54521642D01*
X163060550Y-54238104D01*
X162560000Y-54138538D01*
X162059450Y-54238104D01*
X161635104Y-54521642D01*
X161351566Y-54945988D01*
X161326501Y-55072000D01*
X161253499Y-55072000D01*
X161228434Y-54945988D01*
X160944896Y-54521642D01*
X160520550Y-54238104D01*
X160020000Y-54138538D01*
X159519450Y-54238104D01*
X159095104Y-54521642D01*
X158811566Y-54945988D01*
X158786501Y-55072000D01*
X158713499Y-55072000D01*
X158688434Y-54945988D01*
X158404896Y-54521642D01*
X157980550Y-54238104D01*
X157480000Y-54138538D01*
X156979450Y-54238104D01*
X156555104Y-54521642D01*
X156271566Y-54945988D01*
X156210000Y-55255500D01*
X156148434Y-54945988D01*
X155864896Y-54521642D01*
X155440550Y-54238104D01*
X154940000Y-54138538D01*
X154439450Y-54238104D01*
X154015104Y-54521642D01*
X153731566Y-54945988D01*
X153725235Y-54977818D01*
X153677166Y-54813517D01*
X153324896Y-54375500D01*
X152831819Y-54105633D01*
X152749039Y-54088096D01*
X152527000Y-54210085D01*
X152527000Y-55753000D01*
X152547000Y-55753000D01*
X152547000Y-56007000D01*
X152527000Y-56007000D01*
X152527000Y-57549915D01*
X152749039Y-57671904D01*
X152831819Y-57654367D01*
X153324896Y-57384500D01*
X153677166Y-56946483D01*
X153725235Y-56782182D01*
X153731566Y-56814012D01*
X154015104Y-57238358D01*
X154439450Y-57521896D01*
X154940000Y-57621462D01*
X155440550Y-57521896D01*
X155864896Y-57238358D01*
X156148434Y-56814012D01*
X156210000Y-56504500D01*
X156271566Y-56814012D01*
X156555104Y-57238358D01*
X156672000Y-57316465D01*
X156672000Y-58085316D01*
X156129316Y-58628000D01*
X151892000Y-58628000D01*
X151582792Y-58689505D01*
X151523371Y-58729209D01*
X151320657Y-58864658D01*
X147764658Y-62420658D01*
X147620000Y-62637152D01*
X147620000Y-60138984D01*
X149447092Y-58311892D01*
X149622245Y-58049759D01*
X149632449Y-57998458D01*
X149683750Y-57740550D01*
X149683750Y-56007000D01*
X150965000Y-56007000D01*
X150965000Y-56407000D01*
X151122834Y-56946483D01*
X151475104Y-57384500D01*
X151968181Y-57654367D01*
X152050961Y-57671904D01*
X152273000Y-57549915D01*
X152273000Y-56007000D01*
X150965000Y-56007000D01*
X149683750Y-56007000D01*
X149683750Y-55353000D01*
X150965000Y-55353000D01*
X150965000Y-55753000D01*
X152273000Y-55753000D01*
X152273000Y-54210085D01*
X152050961Y-54088096D01*
X151968181Y-54105633D01*
X151475104Y-54375500D01*
X151122834Y-54813517D01*
X150965000Y-55353000D01*
X149683750Y-55353000D01*
X149683750Y-48799750D01*
X149652112Y-48640692D01*
X149652140Y-48607984D01*
X149639540Y-48577489D01*
X149622245Y-48490542D01*
X149622245Y-48490541D01*
X149573424Y-48417475D01*
X149529389Y-48310903D01*
X149447201Y-48228572D01*
X149447092Y-48228408D01*
X149416127Y-48197443D01*
X149302293Y-48083410D01*
X149005426Y-47960140D01*
X148683984Y-47959860D01*
X148386903Y-48082611D01*
X148159410Y-48309707D01*
X148036140Y-48606574D01*
X148035860Y-48928016D01*
X148067750Y-49005196D01*
X148067750Y-57405866D01*
X146240658Y-59232958D01*
X146065505Y-59495091D01*
X146033774Y-59654616D01*
X146004000Y-59804300D01*
X146004000Y-67055295D01*
X146003860Y-67216016D01*
X146126611Y-67513097D01*
X146353707Y-67740590D01*
X146650574Y-67863860D01*
X146972016Y-67864140D01*
X147269097Y-67741389D01*
X147496590Y-67514293D01*
X147619860Y-67217426D01*
X147620140Y-66895984D01*
X147620000Y-66895645D01*
X147620000Y-65407012D01*
X147650611Y-65481097D01*
X147877707Y-65708590D01*
X148174574Y-65831860D01*
X148496016Y-65832140D01*
X148793097Y-65709389D01*
X149020590Y-65482293D01*
X149143860Y-65185426D01*
X149144140Y-64863984D01*
X149144000Y-64863645D01*
X149144000Y-63326684D01*
X152226685Y-60244000D01*
X156464000Y-60244000D01*
X156773209Y-60182495D01*
X157035342Y-60007342D01*
X158051342Y-58991342D01*
X158226495Y-58729209D01*
X158288000Y-58420000D01*
X158288000Y-57316465D01*
X158404896Y-57238358D01*
X158688434Y-56814012D01*
X158713499Y-56688000D01*
X158786501Y-56688000D01*
X158811566Y-56814012D01*
X159095104Y-57238358D01*
X159519450Y-57521896D01*
X160020000Y-57621462D01*
X160520550Y-57521896D01*
X160944896Y-57238358D01*
X161228434Y-56814012D01*
X161253499Y-56688000D01*
X161326501Y-56688000D01*
X161351566Y-56814012D01*
X161635104Y-57238358D01*
X162059450Y-57521896D01*
X162560000Y-57621462D01*
X163060550Y-57521896D01*
X163484896Y-57238358D01*
X163768434Y-56814012D01*
X163830000Y-56504500D01*
X163891566Y-56814012D01*
X164175104Y-57238358D01*
X164292000Y-57316465D01*
X164292000Y-62063535D01*
X164175104Y-62141642D01*
X163891566Y-62565988D01*
X163830000Y-62875500D01*
X163768434Y-62565988D01*
X163484896Y-62141642D01*
X163060550Y-61858104D01*
X162560000Y-61758538D01*
X162059450Y-61858104D01*
X161635104Y-62141642D01*
X161351566Y-62565988D01*
X161290000Y-62875500D01*
X161228434Y-62565988D01*
X160944896Y-62141642D01*
X160520550Y-61858104D01*
X160020000Y-61758538D01*
X159519450Y-61858104D01*
X159095104Y-62141642D01*
X158811566Y-62565988D01*
X158750000Y-62875500D01*
X158688434Y-62565988D01*
X158404896Y-62141642D01*
X157980550Y-61858104D01*
X157480000Y-61758538D01*
X156979450Y-61858104D01*
X156555104Y-62141642D01*
X156271566Y-62565988D01*
X156210000Y-62875500D01*
X156148434Y-62565988D01*
X155864896Y-62141642D01*
X155440550Y-61858104D01*
X154940000Y-61758538D01*
X154439450Y-61858104D01*
X154015104Y-62141642D01*
X153731566Y-62565988D01*
X153670000Y-62875500D01*
X153608434Y-62565988D01*
X153324896Y-62141642D01*
X152900550Y-61858104D01*
X152400000Y-61758538D01*
X151899450Y-61858104D01*
X151475104Y-62141642D01*
X151191566Y-62565988D01*
X151092000Y-63066538D01*
X151092000Y-63933462D01*
X151191566Y-64434012D01*
X151475104Y-64858358D01*
X151899450Y-65141896D01*
X152400000Y-65241462D01*
X152900550Y-65141896D01*
X153324896Y-64858358D01*
X153608434Y-64434012D01*
X153670000Y-64124500D01*
X153731566Y-64434012D01*
X154015104Y-64858358D01*
X154439450Y-65141896D01*
X154940000Y-65241462D01*
X155440550Y-65141896D01*
X155864896Y-64858358D01*
X156148434Y-64434012D01*
X156210000Y-64124500D01*
X156271566Y-64434012D01*
X156555104Y-64858358D01*
X156979450Y-65141896D01*
X157480000Y-65241462D01*
X157980550Y-65141896D01*
X158404896Y-64858358D01*
X158688434Y-64434012D01*
X158750000Y-64124500D01*
X158811566Y-64434012D01*
X159095104Y-64858358D01*
X159212000Y-64936465D01*
X159212000Y-69088000D01*
X159273505Y-69397209D01*
X159448658Y-69659342D01*
X165342000Y-75552684D01*
X165342000Y-129808195D01*
X165180132Y-129916352D01*
X164882807Y-130361331D01*
X164880000Y-130375443D01*
X164877193Y-130361331D01*
X164579868Y-129916352D01*
X164134889Y-129619027D01*
X163610000Y-129514620D01*
X163085111Y-129619027D01*
X162640132Y-129916352D01*
X162342807Y-130361331D01*
X162340000Y-130375443D01*
X162337193Y-130361331D01*
X162039868Y-129916352D01*
X161594889Y-129619027D01*
X161070000Y-129514620D01*
X160545111Y-129619027D01*
X160100132Y-129916352D01*
X159802807Y-130361331D01*
X159800000Y-130375443D01*
X159797193Y-130361331D01*
X159499868Y-129916352D01*
X159054889Y-129619027D01*
X158530000Y-129514620D01*
X158005111Y-129619027D01*
X157560132Y-129916352D01*
X157262807Y-130361331D01*
X157260000Y-130375443D01*
X157257193Y-130361331D01*
X156959868Y-129916352D01*
X156514889Y-129619027D01*
X155990000Y-129514620D01*
X155465111Y-129619027D01*
X155319000Y-129716655D01*
X155319000Y-86677505D01*
X155319001Y-86677500D01*
X155270817Y-86435262D01*
X155225285Y-86367119D01*
X155133599Y-86229901D01*
X155133596Y-86229899D01*
X145413000Y-76509302D01*
X145413000Y-58287056D01*
X145730521Y-58074896D01*
X146014059Y-57650550D01*
X146113625Y-57150000D01*
X146014059Y-56649450D01*
X145730521Y-56225104D01*
X145306175Y-55941566D01*
X144805625Y-55842000D01*
X144754375Y-55842000D01*
X144253825Y-55941566D01*
X144064000Y-56068403D01*
X144064000Y-53166684D01*
X147631342Y-49599343D01*
X147806494Y-49337209D01*
X147806495Y-49337208D01*
X147868000Y-49028000D01*
X147868000Y-47502663D01*
X147879041Y-47498101D01*
X148286669Y-47091184D01*
X148329833Y-46987234D01*
X148371899Y-47089041D01*
X148778816Y-47496669D01*
X149310751Y-47717548D01*
X149886722Y-47718051D01*
X150419041Y-47498101D01*
X150826669Y-47091184D01*
X150869833Y-46987234D01*
X150911899Y-47089041D01*
X151318816Y-47496669D01*
X151850751Y-47717548D01*
X152426722Y-47718051D01*
X152959041Y-47498101D01*
X153366669Y-47091184D01*
X153409833Y-46987234D01*
X153451899Y-47089041D01*
X153858816Y-47496669D01*
X154390751Y-47717548D01*
X154966722Y-47718051D01*
X155499041Y-47498101D01*
X155906669Y-47091184D01*
X155949833Y-46987234D01*
X155991899Y-47089041D01*
X156398816Y-47496669D01*
X156930751Y-47717548D01*
X157506722Y-47718051D01*
X158039041Y-47498101D01*
X158446669Y-47091184D01*
X158489833Y-46987234D01*
X158531899Y-47089041D01*
X158938816Y-47496669D01*
X159470751Y-47717548D01*
X160046722Y-47718051D01*
X160579041Y-47498101D01*
X160986669Y-47091184D01*
X161029833Y-46987234D01*
X161071899Y-47089041D01*
G36*
X153750637Y-42621032D02*
X154680000Y-43550395D01*
X155609363Y-42621032D01*
X155536845Y-42414000D01*
X156613691Y-42414000D01*
X156400959Y-42501899D01*
X156020468Y-42881726D01*
X155788968Y-42800637D01*
X154859605Y-43730000D01*
X155788968Y-44659363D01*
X156020922Y-44578115D01*
X156398816Y-44956669D01*
X156502766Y-44999833D01*
X156400959Y-45041899D01*
X155993331Y-45448816D01*
X155950167Y-45552766D01*
X155908101Y-45450959D01*
X155528274Y-45070468D01*
X155609363Y-44838968D01*
X154680000Y-43909605D01*
X153750637Y-44838968D01*
X153831885Y-45070922D01*
X153453331Y-45448816D01*
X153410167Y-45552766D01*
X153368101Y-45450959D01*
X152961184Y-45043331D01*
X152857234Y-45000167D01*
X152959041Y-44958101D01*
X153339532Y-44578274D01*
X153571032Y-44659363D01*
X154500395Y-43730000D01*
X153571032Y-42800637D01*
X153339078Y-42881885D01*
X152961184Y-42503331D01*
X152746051Y-42414000D01*
X153823155Y-42414000D01*
X153750637Y-42621032D01*
X153750637Y-42621032D01*
G37*
X153750637Y-42621032D02*
X154680000Y-43550395D01*
X155609363Y-42621032D01*
X155536845Y-42414000D01*
X156613691Y-42414000D01*
X156400959Y-42501899D01*
X156020468Y-42881726D01*
X155788968Y-42800637D01*
X154859605Y-43730000D01*
X155788968Y-44659363D01*
X156020922Y-44578115D01*
X156398816Y-44956669D01*
X156502766Y-44999833D01*
X156400959Y-45041899D01*
X155993331Y-45448816D01*
X155950167Y-45552766D01*
X155908101Y-45450959D01*
X155528274Y-45070468D01*
X155609363Y-44838968D01*
X154680000Y-43909605D01*
X153750637Y-44838968D01*
X153831885Y-45070922D01*
X153453331Y-45448816D01*
X153410167Y-45552766D01*
X153368101Y-45450959D01*
X152961184Y-45043331D01*
X152857234Y-45000167D01*
X152959041Y-44958101D01*
X153339532Y-44578274D01*
X153571032Y-44659363D01*
X154500395Y-43730000D01*
X153571032Y-42800637D01*
X153339078Y-42881885D01*
X152961184Y-42503331D01*
X152746051Y-42414000D01*
X153823155Y-42414000D01*
X153750637Y-42621032D01*
G36*
X167573748Y-43715858D02*
X167559605Y-43730000D01*
X167573748Y-43744143D01*
X167394143Y-43923748D01*
X167380000Y-43909605D01*
X166450637Y-44838968D01*
X166531885Y-45070922D01*
X166153331Y-45448816D01*
X166110167Y-45552766D01*
X166068101Y-45450959D01*
X165661184Y-45043331D01*
X165557234Y-45000167D01*
X165659041Y-44958101D01*
X166039532Y-44578274D01*
X166271032Y-44659363D01*
X167200395Y-43730000D01*
X167186253Y-43715858D01*
X167365858Y-43536253D01*
X167380000Y-43550395D01*
X167394143Y-43536253D01*
X167573748Y-43715858D01*
X167573748Y-43715858D01*
G37*
X167573748Y-43715858D02*
X167559605Y-43730000D01*
X167573748Y-43744143D01*
X167394143Y-43923748D01*
X167380000Y-43909605D01*
X166450637Y-44838968D01*
X166531885Y-45070922D01*
X166153331Y-45448816D01*
X166110167Y-45552766D01*
X166068101Y-45450959D01*
X165661184Y-45043331D01*
X165557234Y-45000167D01*
X165659041Y-44958101D01*
X166039532Y-44578274D01*
X166271032Y-44659363D01*
X167200395Y-43730000D01*
X167186253Y-43715858D01*
X167365858Y-43536253D01*
X167380000Y-43550395D01*
X167394143Y-43536253D01*
X167573748Y-43715858D01*
M02*
