G04 #@! TF.FileFunction,Copper,L1,Top,Signal*
%FSLAX46Y46*%
G04 Gerber Fmt 4.6, Leading zero omitted, Abs format (unit mm)*
G04 Created by KiCad (PCBNEW 4.0.5) date 06/12/17 14:20:53*
%MOMM*%
%LPD*%
G01*
G04 APERTURE LIST*
%ADD10C,0.100000*%
%ADD11O,1.727200X2.800000*%
%ADD12R,1.879600X1.879600*%
%ADD13C,1.879600*%
%ADD14O,1.500000X0.900000*%
%ADD15R,1.500000X0.900000*%
%ADD16C,1.600000*%
%ADD17O,1.600000X1.600000*%
%ADD18R,1.600000X2.400000*%
%ADD19O,1.600000X2.400000*%
%ADD20C,0.900000*%
%ADD21C,0.600000*%
%ADD22C,0.600000*%
%ADD23C,0.254000*%
G04 APERTURE END LIST*
D10*
D11*
X176310000Y-136540000D03*
X173770000Y-136540000D03*
X171230000Y-136540000D03*
X168690000Y-136540000D03*
X166150000Y-136540000D03*
X163610000Y-136540000D03*
X161070000Y-136540000D03*
X158530000Y-136540000D03*
X176310000Y-131460000D03*
X173770000Y-131460000D03*
X171230000Y-131460000D03*
X168690000Y-131460000D03*
X166150000Y-131460000D03*
X163610000Y-131460000D03*
X161070000Y-131460000D03*
X158530000Y-131460000D03*
X107730000Y-131460000D03*
X107730000Y-136540000D03*
X110270000Y-131460000D03*
X110270000Y-136540000D03*
X112810000Y-131460000D03*
X112810000Y-136540000D03*
X115350000Y-131460000D03*
X115350000Y-136540000D03*
X120430000Y-131460000D03*
X120430000Y-136540000D03*
X122970000Y-131460000D03*
X122970000Y-136540000D03*
X125510000Y-131460000D03*
X125510000Y-136540000D03*
X128050000Y-131460000D03*
X128050000Y-136540000D03*
X130590000Y-131460000D03*
X130590000Y-136540000D03*
X133130000Y-131460000D03*
X133130000Y-136540000D03*
X135670000Y-131460000D03*
X135670000Y-136540000D03*
X138210000Y-131460000D03*
X138210000Y-136540000D03*
X140750000Y-131460000D03*
X140750000Y-136540000D03*
X143290000Y-131460000D03*
X143290000Y-136540000D03*
X145830000Y-131460000D03*
X145830000Y-136540000D03*
X148370000Y-131460000D03*
X148370000Y-136540000D03*
X150910000Y-131460000D03*
X150910000Y-136540000D03*
X153450000Y-131460000D03*
X153450000Y-136540000D03*
X155990000Y-131460000D03*
X155990000Y-136540000D03*
D12*
X119120000Y-46270000D03*
D13*
X119120000Y-43730000D03*
X121660000Y-46270000D03*
X121660000Y-43730000D03*
X124200000Y-46270000D03*
X124200000Y-43730000D03*
X126740000Y-46270000D03*
X126740000Y-43730000D03*
X129280000Y-46270000D03*
X129280000Y-43730000D03*
X131820000Y-46270000D03*
X131820000Y-43730000D03*
X134360000Y-46270000D03*
X134360000Y-43730000D03*
X136900000Y-46270000D03*
X136900000Y-43730000D03*
X139440000Y-46270000D03*
X139440000Y-43730000D03*
X141980000Y-46270000D03*
X141980000Y-43730000D03*
X144520000Y-46270000D03*
X144520000Y-43730000D03*
X147060000Y-46270000D03*
X147060000Y-43730000D03*
X149600000Y-46270000D03*
X149600000Y-43730000D03*
X152140000Y-46270000D03*
X152140000Y-43730000D03*
X154680000Y-46270000D03*
X154680000Y-43730000D03*
X157220000Y-46270000D03*
X157220000Y-43730000D03*
X159760000Y-46270000D03*
X159760000Y-43730000D03*
X162300000Y-46270000D03*
X162300000Y-43730000D03*
X164840000Y-46270000D03*
X164840000Y-43730000D03*
X167380000Y-46270000D03*
X167380000Y-43730000D03*
D14*
X119380000Y-57150000D03*
X119380000Y-58420000D03*
D15*
X119380000Y-55880000D03*
D16*
X129540000Y-57150000D03*
D17*
X144780000Y-57150000D03*
D18*
X167640000Y-55880000D03*
D19*
X152400000Y-63500000D03*
X165100000Y-55880000D03*
X154940000Y-63500000D03*
X162560000Y-55880000D03*
X157480000Y-63500000D03*
X160020000Y-55880000D03*
X160020000Y-63500000D03*
X157480000Y-55880000D03*
X162560000Y-63500000D03*
X154940000Y-55880000D03*
X165100000Y-63500000D03*
X152400000Y-55880000D03*
X167640000Y-63500000D03*
D20*
X169960000Y-93610000D03*
D21*
X178452780Y-52387500D03*
X172720000Y-50292000D03*
X167640000Y-50292000D03*
X111857790Y-60112909D03*
X115713509Y-54021990D03*
X144296130Y-114819430D03*
X129539724Y-78255598D03*
X119380000Y-88900000D03*
X136652000Y-71120000D03*
X121412000Y-81280000D03*
X129540000Y-73152000D03*
X136652000Y-66548000D03*
X123444000Y-75184000D03*
X129540000Y-68580000D03*
X136652000Y-61976000D03*
X124989590Y-55307230D03*
X127508000Y-55372000D03*
X137160000Y-125984000D03*
X137160000Y-110744000D03*
X135636000Y-111760000D03*
X148365513Y-101211323D03*
X148336000Y-65024000D03*
X146812000Y-121412000D03*
X146812000Y-104140000D03*
X146812000Y-67056000D03*
X148844000Y-48768000D03*
D22*
X165100000Y-55880000D02*
X165100000Y-52547793D01*
X165819093Y-51828700D02*
X177893980Y-51828700D01*
X165100000Y-52547793D02*
X165819093Y-51828700D01*
X177893980Y-51828700D02*
X178452780Y-52387500D01*
X165100000Y-55880000D02*
X167640000Y-55880000D01*
X167640000Y-50292000D02*
X172720000Y-50292000D01*
X112157789Y-59812910D02*
X111857790Y-60112909D01*
X121170699Y-50800000D02*
X112157789Y-59812910D01*
X155230000Y-50800000D02*
X121170699Y-50800000D01*
X159760000Y-46270000D02*
X155230000Y-50800000D01*
X116013508Y-53721991D02*
X115713509Y-54021990D01*
X121660000Y-48075499D02*
X116013508Y-53721991D01*
X121660000Y-46270000D02*
X121660000Y-48075499D01*
X167640000Y-91475560D02*
X144596129Y-114519431D01*
X167640000Y-63500000D02*
X167640000Y-91475560D01*
X144596129Y-114519431D02*
X144296130Y-114819430D01*
X129539724Y-78232276D02*
X129539724Y-78255598D01*
X136652000Y-71120000D02*
X129539724Y-78232276D01*
X119380000Y-88900000D02*
X119380000Y-126899821D01*
X119380000Y-126899821D02*
X120430000Y-127949821D01*
X120430000Y-127949821D02*
X120430000Y-131460000D01*
X136652000Y-66548000D02*
X136160028Y-66548000D01*
X136160028Y-66548000D02*
X129556028Y-73152000D01*
X129556028Y-73152000D02*
X129540000Y-73152000D01*
X121412000Y-81280000D02*
X121412000Y-124442783D01*
X121412000Y-124442783D02*
X122936000Y-125966783D01*
X122936000Y-131426000D02*
X122970000Y-131460000D01*
X122936000Y-125966783D02*
X122936000Y-131426000D01*
X136652000Y-61976000D02*
X136130854Y-61976000D01*
X136130854Y-61976000D02*
X129540000Y-68566854D01*
X129540000Y-68566854D02*
X129540000Y-68580000D01*
X123444000Y-75184000D02*
X123444000Y-121928921D01*
X123444000Y-121928921D02*
X125510000Y-123994921D01*
X125510000Y-123994921D02*
X125510000Y-131460000D01*
X128050000Y-131460000D02*
X128050000Y-121932237D01*
X128050000Y-121932237D02*
X125464570Y-119346807D01*
X125464570Y-119346807D02*
X125464570Y-55782210D01*
X125289589Y-55607229D02*
X124989590Y-55307230D01*
X125464570Y-55782210D02*
X125289589Y-55607229D01*
X127508000Y-55372000D02*
X127518160Y-55382160D01*
X127518160Y-55382160D02*
X127518160Y-116797712D01*
X127518160Y-116797712D02*
X130590000Y-119869552D01*
X130590000Y-119869552D02*
X130590000Y-131460000D01*
X137160000Y-110744000D02*
X137160000Y-125984000D01*
X135670000Y-111794000D02*
X135670000Y-131460000D01*
X135636000Y-111760000D02*
X135670000Y-111794000D01*
X148336000Y-101181810D02*
X148365513Y-101211323D01*
X148336000Y-65024000D02*
X148336000Y-101181810D01*
X149600000Y-46270000D02*
X149600000Y-47719998D01*
X150876000Y-125476000D02*
X150876000Y-131426000D01*
X146812000Y-121412000D02*
X150876000Y-125476000D01*
X146812000Y-67056000D02*
X146812000Y-104140000D01*
X148844000Y-48475998D02*
X148844000Y-48768000D01*
X149600000Y-47719998D02*
X148844000Y-48475998D01*
X150876000Y-131426000D02*
X150910000Y-131460000D01*
X164840000Y-46270000D02*
X164840000Y-46996000D01*
X164840000Y-46996000D02*
X159004000Y-52832000D01*
X159004000Y-52832000D02*
X150644815Y-52832000D01*
X150644815Y-52832000D02*
X148844000Y-54632815D01*
X148844000Y-54632815D02*
X148844000Y-59944000D01*
X148844000Y-59944000D02*
X152400000Y-63500000D01*
X162560000Y-63500000D02*
X162560000Y-65532000D01*
X154940000Y-65532000D02*
X154940000Y-63500000D01*
X155956000Y-66548000D02*
X154940000Y-65532000D01*
X161544000Y-66548000D02*
X155956000Y-66548000D01*
X162560000Y-65532000D02*
X161544000Y-66548000D01*
X154940000Y-55880000D02*
X154940000Y-58478712D01*
X154940000Y-58478712D02*
X157480000Y-61018712D01*
X157480000Y-61018712D02*
X157480000Y-63500000D01*
D23*
G36*
X179920574Y-40777535D02*
X180700999Y-41298998D01*
X181222465Y-42079425D01*
X181417000Y-43057422D01*
X181417000Y-136942578D01*
X181222465Y-137920575D01*
X180700999Y-138701002D01*
X179920574Y-139222465D01*
X178942579Y-139417000D01*
X105057422Y-139417000D01*
X104079425Y-139222465D01*
X103298998Y-138700999D01*
X102777535Y-137920574D01*
X102583000Y-136942579D01*
X102583000Y-135966220D01*
X106358400Y-135966220D01*
X106358400Y-137113780D01*
X106462807Y-137638669D01*
X106760132Y-138083648D01*
X107205111Y-138380973D01*
X107730000Y-138485380D01*
X108254889Y-138380973D01*
X108699868Y-138083648D01*
X108997193Y-137638669D01*
X109000000Y-137624557D01*
X109002807Y-137638669D01*
X109300132Y-138083648D01*
X109745111Y-138380973D01*
X110270000Y-138485380D01*
X110794889Y-138380973D01*
X111239868Y-138083648D01*
X111537193Y-137638669D01*
X111540000Y-137624557D01*
X111542807Y-137638669D01*
X111840132Y-138083648D01*
X112285111Y-138380973D01*
X112810000Y-138485380D01*
X113334889Y-138380973D01*
X113779868Y-138083648D01*
X114077193Y-137638669D01*
X114080000Y-137624557D01*
X114082807Y-137638669D01*
X114380132Y-138083648D01*
X114825111Y-138380973D01*
X115350000Y-138485380D01*
X115874889Y-138380973D01*
X116319868Y-138083648D01*
X116617193Y-137638669D01*
X116721600Y-137113780D01*
X116721600Y-136667000D01*
X118931400Y-136667000D01*
X118931400Y-137203400D01*
X119094075Y-137767222D01*
X119460132Y-138225873D01*
X119973843Y-138509527D01*
X120070974Y-138531358D01*
X120303000Y-138410217D01*
X120303000Y-136667000D01*
X120557000Y-136667000D01*
X120557000Y-138410217D01*
X120789026Y-138531358D01*
X120886157Y-138509527D01*
X121399868Y-138225873D01*
X121700000Y-137849823D01*
X122000132Y-138225873D01*
X122513843Y-138509527D01*
X122610974Y-138531358D01*
X122843000Y-138410217D01*
X122843000Y-136667000D01*
X120557000Y-136667000D01*
X120303000Y-136667000D01*
X118931400Y-136667000D01*
X116721600Y-136667000D01*
X116721600Y-135966220D01*
X116703774Y-135876600D01*
X118931400Y-135876600D01*
X118931400Y-136413000D01*
X120303000Y-136413000D01*
X120303000Y-134669783D01*
X120557000Y-134669783D01*
X120557000Y-136413000D01*
X122843000Y-136413000D01*
X122843000Y-134669783D01*
X123097000Y-134669783D01*
X123097000Y-136413000D01*
X123117000Y-136413000D01*
X123117000Y-136667000D01*
X123097000Y-136667000D01*
X123097000Y-138410217D01*
X123329026Y-138531358D01*
X123426157Y-138509527D01*
X123939868Y-138225873D01*
X124305925Y-137767222D01*
X124312794Y-137743413D01*
X124540132Y-138083648D01*
X124985111Y-138380973D01*
X125510000Y-138485380D01*
X126034889Y-138380973D01*
X126479868Y-138083648D01*
X126777193Y-137638669D01*
X126780000Y-137624557D01*
X126782807Y-137638669D01*
X127080132Y-138083648D01*
X127525111Y-138380973D01*
X128050000Y-138485380D01*
X128574889Y-138380973D01*
X129019868Y-138083648D01*
X129317193Y-137638669D01*
X129320000Y-137624557D01*
X129322807Y-137638669D01*
X129620132Y-138083648D01*
X130065111Y-138380973D01*
X130590000Y-138485380D01*
X131114889Y-138380973D01*
X131559868Y-138083648D01*
X131857193Y-137638669D01*
X131860000Y-137624557D01*
X131862807Y-137638669D01*
X132160132Y-138083648D01*
X132605111Y-138380973D01*
X133130000Y-138485380D01*
X133654889Y-138380973D01*
X134099868Y-138083648D01*
X134397193Y-137638669D01*
X134400000Y-137624557D01*
X134402807Y-137638669D01*
X134700132Y-138083648D01*
X135145111Y-138380973D01*
X135670000Y-138485380D01*
X136194889Y-138380973D01*
X136639868Y-138083648D01*
X136937193Y-137638669D01*
X136940000Y-137624557D01*
X136942807Y-137638669D01*
X137240132Y-138083648D01*
X137685111Y-138380973D01*
X138210000Y-138485380D01*
X138734889Y-138380973D01*
X139179868Y-138083648D01*
X139407206Y-137743413D01*
X139414075Y-137767222D01*
X139780132Y-138225873D01*
X140293843Y-138509527D01*
X140390974Y-138531358D01*
X140623000Y-138410217D01*
X140623000Y-136667000D01*
X140603000Y-136667000D01*
X140603000Y-136413000D01*
X140623000Y-136413000D01*
X140623000Y-134669783D01*
X140877000Y-134669783D01*
X140877000Y-136413000D01*
X140897000Y-136413000D01*
X140897000Y-136667000D01*
X140877000Y-136667000D01*
X140877000Y-138410217D01*
X141109026Y-138531358D01*
X141206157Y-138509527D01*
X141719868Y-138225873D01*
X142085925Y-137767222D01*
X142092794Y-137743413D01*
X142320132Y-138083648D01*
X142765111Y-138380973D01*
X143290000Y-138485380D01*
X143814889Y-138380973D01*
X144259868Y-138083648D01*
X144557193Y-137638669D01*
X144560000Y-137624557D01*
X144562807Y-137638669D01*
X144860132Y-138083648D01*
X145305111Y-138380973D01*
X145830000Y-138485380D01*
X146354889Y-138380973D01*
X146799868Y-138083648D01*
X147097193Y-137638669D01*
X147100000Y-137624557D01*
X147102807Y-137638669D01*
X147400132Y-138083648D01*
X147845111Y-138380973D01*
X148370000Y-138485380D01*
X148894889Y-138380973D01*
X149339868Y-138083648D01*
X149637193Y-137638669D01*
X149640000Y-137624557D01*
X149642807Y-137638669D01*
X149940132Y-138083648D01*
X150385111Y-138380973D01*
X150910000Y-138485380D01*
X151434889Y-138380973D01*
X151879868Y-138083648D01*
X152177193Y-137638669D01*
X152180000Y-137624557D01*
X152182807Y-137638669D01*
X152480132Y-138083648D01*
X152925111Y-138380973D01*
X153450000Y-138485380D01*
X153974889Y-138380973D01*
X154419868Y-138083648D01*
X154717193Y-137638669D01*
X154720000Y-137624557D01*
X154722807Y-137638669D01*
X155020132Y-138083648D01*
X155465111Y-138380973D01*
X155990000Y-138485380D01*
X156514889Y-138380973D01*
X156959868Y-138083648D01*
X157257193Y-137638669D01*
X157260000Y-137624557D01*
X157262807Y-137638669D01*
X157560132Y-138083648D01*
X158005111Y-138380973D01*
X158530000Y-138485380D01*
X159054889Y-138380973D01*
X159499868Y-138083648D01*
X159797193Y-137638669D01*
X159800000Y-137624557D01*
X159802807Y-137638669D01*
X160100132Y-138083648D01*
X160545111Y-138380973D01*
X161070000Y-138485380D01*
X161594889Y-138380973D01*
X162039868Y-138083648D01*
X162337193Y-137638669D01*
X162340000Y-137624557D01*
X162342807Y-137638669D01*
X162640132Y-138083648D01*
X163085111Y-138380973D01*
X163610000Y-138485380D01*
X164134889Y-138380973D01*
X164579868Y-138083648D01*
X164877193Y-137638669D01*
X164880000Y-137624557D01*
X164882807Y-137638669D01*
X165180132Y-138083648D01*
X165625111Y-138380973D01*
X166150000Y-138485380D01*
X166674889Y-138380973D01*
X167119868Y-138083648D01*
X167417193Y-137638669D01*
X167420000Y-137624557D01*
X167422807Y-137638669D01*
X167720132Y-138083648D01*
X168165111Y-138380973D01*
X168690000Y-138485380D01*
X169214889Y-138380973D01*
X169659868Y-138083648D01*
X169957193Y-137638669D01*
X169960000Y-137624557D01*
X169962807Y-137638669D01*
X170260132Y-138083648D01*
X170705111Y-138380973D01*
X171230000Y-138485380D01*
X171754889Y-138380973D01*
X172199868Y-138083648D01*
X172497193Y-137638669D01*
X172500000Y-137624557D01*
X172502807Y-137638669D01*
X172800132Y-138083648D01*
X173245111Y-138380973D01*
X173770000Y-138485380D01*
X174294889Y-138380973D01*
X174739868Y-138083648D01*
X175037193Y-137638669D01*
X175040000Y-137624557D01*
X175042807Y-137638669D01*
X175340132Y-138083648D01*
X175785111Y-138380973D01*
X176310000Y-138485380D01*
X176834889Y-138380973D01*
X177279868Y-138083648D01*
X177577193Y-137638669D01*
X177681600Y-137113780D01*
X177681600Y-135966220D01*
X177577193Y-135441331D01*
X177279868Y-134996352D01*
X176834889Y-134699027D01*
X176310000Y-134594620D01*
X175785111Y-134699027D01*
X175340132Y-134996352D01*
X175042807Y-135441331D01*
X175040000Y-135455443D01*
X175037193Y-135441331D01*
X174739868Y-134996352D01*
X174294889Y-134699027D01*
X173770000Y-134594620D01*
X173245111Y-134699027D01*
X172800132Y-134996352D01*
X172502807Y-135441331D01*
X172500000Y-135455443D01*
X172497193Y-135441331D01*
X172199868Y-134996352D01*
X171754889Y-134699027D01*
X171230000Y-134594620D01*
X170705111Y-134699027D01*
X170260132Y-134996352D01*
X169962807Y-135441331D01*
X169960000Y-135455443D01*
X169957193Y-135441331D01*
X169659868Y-134996352D01*
X169214889Y-134699027D01*
X168690000Y-134594620D01*
X168165111Y-134699027D01*
X167720132Y-134996352D01*
X167422807Y-135441331D01*
X167420000Y-135455443D01*
X167417193Y-135441331D01*
X167119868Y-134996352D01*
X166674889Y-134699027D01*
X166150000Y-134594620D01*
X165625111Y-134699027D01*
X165180132Y-134996352D01*
X164882807Y-135441331D01*
X164880000Y-135455443D01*
X164877193Y-135441331D01*
X164579868Y-134996352D01*
X164134889Y-134699027D01*
X163610000Y-134594620D01*
X163085111Y-134699027D01*
X162640132Y-134996352D01*
X162342807Y-135441331D01*
X162340000Y-135455443D01*
X162337193Y-135441331D01*
X162039868Y-134996352D01*
X161594889Y-134699027D01*
X161070000Y-134594620D01*
X160545111Y-134699027D01*
X160100132Y-134996352D01*
X159802807Y-135441331D01*
X159800000Y-135455443D01*
X159797193Y-135441331D01*
X159499868Y-134996352D01*
X159054889Y-134699027D01*
X158530000Y-134594620D01*
X158005111Y-134699027D01*
X157560132Y-134996352D01*
X157262807Y-135441331D01*
X157260000Y-135455443D01*
X157257193Y-135441331D01*
X156959868Y-134996352D01*
X156514889Y-134699027D01*
X155990000Y-134594620D01*
X155465111Y-134699027D01*
X155020132Y-134996352D01*
X154722807Y-135441331D01*
X154720000Y-135455443D01*
X154717193Y-135441331D01*
X154419868Y-134996352D01*
X153974889Y-134699027D01*
X153450000Y-134594620D01*
X152925111Y-134699027D01*
X152480132Y-134996352D01*
X152182807Y-135441331D01*
X152180000Y-135455443D01*
X152177193Y-135441331D01*
X151879868Y-134996352D01*
X151434889Y-134699027D01*
X150910000Y-134594620D01*
X150385111Y-134699027D01*
X149940132Y-134996352D01*
X149642807Y-135441331D01*
X149640000Y-135455443D01*
X149637193Y-135441331D01*
X149339868Y-134996352D01*
X148894889Y-134699027D01*
X148370000Y-134594620D01*
X147845111Y-134699027D01*
X147400132Y-134996352D01*
X147102807Y-135441331D01*
X147100000Y-135455443D01*
X147097193Y-135441331D01*
X146799868Y-134996352D01*
X146354889Y-134699027D01*
X145830000Y-134594620D01*
X145305111Y-134699027D01*
X144860132Y-134996352D01*
X144562807Y-135441331D01*
X144560000Y-135455443D01*
X144557193Y-135441331D01*
X144259868Y-134996352D01*
X143814889Y-134699027D01*
X143290000Y-134594620D01*
X142765111Y-134699027D01*
X142320132Y-134996352D01*
X142092794Y-135336587D01*
X142085925Y-135312778D01*
X141719868Y-134854127D01*
X141206157Y-134570473D01*
X141109026Y-134548642D01*
X140877000Y-134669783D01*
X140623000Y-134669783D01*
X140390974Y-134548642D01*
X140293843Y-134570473D01*
X139780132Y-134854127D01*
X139414075Y-135312778D01*
X139407206Y-135336587D01*
X139179868Y-134996352D01*
X138734889Y-134699027D01*
X138210000Y-134594620D01*
X137685111Y-134699027D01*
X137240132Y-134996352D01*
X136942807Y-135441331D01*
X136940000Y-135455443D01*
X136937193Y-135441331D01*
X136639868Y-134996352D01*
X136194889Y-134699027D01*
X135670000Y-134594620D01*
X135145111Y-134699027D01*
X134700132Y-134996352D01*
X134402807Y-135441331D01*
X134400000Y-135455443D01*
X134397193Y-135441331D01*
X134099868Y-134996352D01*
X133654889Y-134699027D01*
X133130000Y-134594620D01*
X132605111Y-134699027D01*
X132160132Y-134996352D01*
X131862807Y-135441331D01*
X131860000Y-135455443D01*
X131857193Y-135441331D01*
X131559868Y-134996352D01*
X131114889Y-134699027D01*
X130590000Y-134594620D01*
X130065111Y-134699027D01*
X129620132Y-134996352D01*
X129322807Y-135441331D01*
X129320000Y-135455443D01*
X129317193Y-135441331D01*
X129019868Y-134996352D01*
X128574889Y-134699027D01*
X128050000Y-134594620D01*
X127525111Y-134699027D01*
X127080132Y-134996352D01*
X126782807Y-135441331D01*
X126780000Y-135455443D01*
X126777193Y-135441331D01*
X126479868Y-134996352D01*
X126034889Y-134699027D01*
X125510000Y-134594620D01*
X124985111Y-134699027D01*
X124540132Y-134996352D01*
X124312794Y-135336587D01*
X124305925Y-135312778D01*
X123939868Y-134854127D01*
X123426157Y-134570473D01*
X123329026Y-134548642D01*
X123097000Y-134669783D01*
X122843000Y-134669783D01*
X122610974Y-134548642D01*
X122513843Y-134570473D01*
X122000132Y-134854127D01*
X121700000Y-135230177D01*
X121399868Y-134854127D01*
X120886157Y-134570473D01*
X120789026Y-134548642D01*
X120557000Y-134669783D01*
X120303000Y-134669783D01*
X120070974Y-134548642D01*
X119973843Y-134570473D01*
X119460132Y-134854127D01*
X119094075Y-135312778D01*
X118931400Y-135876600D01*
X116703774Y-135876600D01*
X116617193Y-135441331D01*
X116319868Y-134996352D01*
X115874889Y-134699027D01*
X115350000Y-134594620D01*
X114825111Y-134699027D01*
X114380132Y-134996352D01*
X114082807Y-135441331D01*
X114080000Y-135455443D01*
X114077193Y-135441331D01*
X113779868Y-134996352D01*
X113334889Y-134699027D01*
X112810000Y-134594620D01*
X112285111Y-134699027D01*
X111840132Y-134996352D01*
X111542807Y-135441331D01*
X111540000Y-135455443D01*
X111537193Y-135441331D01*
X111239868Y-134996352D01*
X110794889Y-134699027D01*
X110270000Y-134594620D01*
X109745111Y-134699027D01*
X109300132Y-134996352D01*
X109002807Y-135441331D01*
X109000000Y-135455443D01*
X108997193Y-135441331D01*
X108699868Y-134996352D01*
X108254889Y-134699027D01*
X107730000Y-134594620D01*
X107205111Y-134699027D01*
X106760132Y-134996352D01*
X106462807Y-135441331D01*
X106358400Y-135966220D01*
X102583000Y-135966220D01*
X102583000Y-130886220D01*
X106358400Y-130886220D01*
X106358400Y-132033780D01*
X106462807Y-132558669D01*
X106760132Y-133003648D01*
X107205111Y-133300973D01*
X107730000Y-133405380D01*
X108254889Y-133300973D01*
X108699868Y-133003648D01*
X108997193Y-132558669D01*
X109000000Y-132544557D01*
X109002807Y-132558669D01*
X109300132Y-133003648D01*
X109745111Y-133300973D01*
X110270000Y-133405380D01*
X110794889Y-133300973D01*
X111239868Y-133003648D01*
X111537193Y-132558669D01*
X111540000Y-132544557D01*
X111542807Y-132558669D01*
X111840132Y-133003648D01*
X112285111Y-133300973D01*
X112810000Y-133405380D01*
X113334889Y-133300973D01*
X113779868Y-133003648D01*
X114077193Y-132558669D01*
X114080000Y-132544557D01*
X114082807Y-132558669D01*
X114380132Y-133003648D01*
X114825111Y-133300973D01*
X115350000Y-133405380D01*
X115874889Y-133300973D01*
X116319868Y-133003648D01*
X116617193Y-132558669D01*
X116721600Y-132033780D01*
X116721600Y-130886220D01*
X116617193Y-130361331D01*
X116319868Y-129916352D01*
X115874889Y-129619027D01*
X115350000Y-129514620D01*
X114825111Y-129619027D01*
X114380132Y-129916352D01*
X114082807Y-130361331D01*
X114080000Y-130375443D01*
X114077193Y-130361331D01*
X113779868Y-129916352D01*
X113334889Y-129619027D01*
X112810000Y-129514620D01*
X112285111Y-129619027D01*
X111840132Y-129916352D01*
X111542807Y-130361331D01*
X111540000Y-130375443D01*
X111537193Y-130361331D01*
X111239868Y-129916352D01*
X110794889Y-129619027D01*
X110270000Y-129514620D01*
X109745111Y-129619027D01*
X109300132Y-129916352D01*
X109002807Y-130361331D01*
X109000000Y-130375443D01*
X108997193Y-130361331D01*
X108699868Y-129916352D01*
X108254889Y-129619027D01*
X107730000Y-129514620D01*
X107205111Y-129619027D01*
X106760132Y-129916352D01*
X106462807Y-130361331D01*
X106358400Y-130886220D01*
X102583000Y-130886220D01*
X102583000Y-123607468D01*
X104571635Y-123607468D01*
X104891883Y-124382526D01*
X105484355Y-124976033D01*
X106258853Y-125297633D01*
X107097468Y-125298365D01*
X107872526Y-124978117D01*
X108466033Y-124385645D01*
X108787633Y-123611147D01*
X108788365Y-122772532D01*
X108468117Y-121997474D01*
X107875645Y-121403967D01*
X107101147Y-121082367D01*
X106262532Y-121081635D01*
X105487474Y-121401883D01*
X104893967Y-121994355D01*
X104572367Y-122768853D01*
X104571635Y-123607468D01*
X102583000Y-123607468D01*
X102583000Y-89060016D01*
X118571860Y-89060016D01*
X118572000Y-89060355D01*
X118572000Y-126899821D01*
X118633505Y-127209030D01*
X118808658Y-127471163D01*
X119622000Y-128284505D01*
X119622000Y-129808195D01*
X119460132Y-129916352D01*
X119162807Y-130361331D01*
X119058400Y-130886220D01*
X119058400Y-132033780D01*
X119162807Y-132558669D01*
X119460132Y-133003648D01*
X119905111Y-133300973D01*
X120430000Y-133405380D01*
X120954889Y-133300973D01*
X121399868Y-133003648D01*
X121697193Y-132558669D01*
X121700000Y-132544557D01*
X121702807Y-132558669D01*
X122000132Y-133003648D01*
X122445111Y-133300973D01*
X122970000Y-133405380D01*
X123494889Y-133300973D01*
X123939868Y-133003648D01*
X124237193Y-132558669D01*
X124240000Y-132544557D01*
X124242807Y-132558669D01*
X124540132Y-133003648D01*
X124985111Y-133300973D01*
X125510000Y-133405380D01*
X126034889Y-133300973D01*
X126479868Y-133003648D01*
X126777193Y-132558669D01*
X126780000Y-132544557D01*
X126782807Y-132558669D01*
X127080132Y-133003648D01*
X127525111Y-133300973D01*
X128050000Y-133405380D01*
X128574889Y-133300973D01*
X129019868Y-133003648D01*
X129317193Y-132558669D01*
X129320000Y-132544557D01*
X129322807Y-132558669D01*
X129620132Y-133003648D01*
X130065111Y-133300973D01*
X130590000Y-133405380D01*
X131114889Y-133300973D01*
X131559868Y-133003648D01*
X131857193Y-132558669D01*
X131860000Y-132544557D01*
X131862807Y-132558669D01*
X132160132Y-133003648D01*
X132605111Y-133300973D01*
X133130000Y-133405380D01*
X133654889Y-133300973D01*
X134099868Y-133003648D01*
X134397193Y-132558669D01*
X134400000Y-132544557D01*
X134402807Y-132558669D01*
X134700132Y-133003648D01*
X135145111Y-133300973D01*
X135670000Y-133405380D01*
X136194889Y-133300973D01*
X136639868Y-133003648D01*
X136937193Y-132558669D01*
X136940000Y-132544557D01*
X136942807Y-132558669D01*
X137240132Y-133003648D01*
X137685111Y-133300973D01*
X138210000Y-133405380D01*
X138734889Y-133300973D01*
X139179868Y-133003648D01*
X139477193Y-132558669D01*
X139480000Y-132544557D01*
X139482807Y-132558669D01*
X139780132Y-133003648D01*
X140225111Y-133300973D01*
X140750000Y-133405380D01*
X141274889Y-133300973D01*
X141719868Y-133003648D01*
X142017193Y-132558669D01*
X142020000Y-132544557D01*
X142022807Y-132558669D01*
X142320132Y-133003648D01*
X142765111Y-133300973D01*
X143290000Y-133405380D01*
X143814889Y-133300973D01*
X144259868Y-133003648D01*
X144557193Y-132558669D01*
X144560000Y-132544557D01*
X144562807Y-132558669D01*
X144860132Y-133003648D01*
X145305111Y-133300973D01*
X145830000Y-133405380D01*
X146354889Y-133300973D01*
X146799868Y-133003648D01*
X147097193Y-132558669D01*
X147100000Y-132544557D01*
X147102807Y-132558669D01*
X147400132Y-133003648D01*
X147845111Y-133300973D01*
X148370000Y-133405380D01*
X148894889Y-133300973D01*
X149339868Y-133003648D01*
X149637193Y-132558669D01*
X149640000Y-132544557D01*
X149642807Y-132558669D01*
X149940132Y-133003648D01*
X150385111Y-133300973D01*
X150910000Y-133405380D01*
X151434889Y-133300973D01*
X151879868Y-133003648D01*
X152177193Y-132558669D01*
X152180000Y-132544557D01*
X152182807Y-132558669D01*
X152480132Y-133003648D01*
X152925111Y-133300973D01*
X153450000Y-133405380D01*
X153974889Y-133300973D01*
X154419868Y-133003648D01*
X154717193Y-132558669D01*
X154720000Y-132544557D01*
X154722807Y-132558669D01*
X155020132Y-133003648D01*
X155465111Y-133300973D01*
X155990000Y-133405380D01*
X156514889Y-133300973D01*
X156959868Y-133003648D01*
X157257193Y-132558669D01*
X157260000Y-132544557D01*
X157262807Y-132558669D01*
X157560132Y-133003648D01*
X158005111Y-133300973D01*
X158530000Y-133405380D01*
X159054889Y-133300973D01*
X159499868Y-133003648D01*
X159797193Y-132558669D01*
X159800000Y-132544557D01*
X159802807Y-132558669D01*
X160100132Y-133003648D01*
X160545111Y-133300973D01*
X161070000Y-133405380D01*
X161594889Y-133300973D01*
X162039868Y-133003648D01*
X162337193Y-132558669D01*
X162340000Y-132544557D01*
X162342807Y-132558669D01*
X162640132Y-133003648D01*
X163085111Y-133300973D01*
X163610000Y-133405380D01*
X164134889Y-133300973D01*
X164579868Y-133003648D01*
X164877193Y-132558669D01*
X164880000Y-132544557D01*
X164882807Y-132558669D01*
X165180132Y-133003648D01*
X165625111Y-133300973D01*
X166150000Y-133405380D01*
X166674889Y-133300973D01*
X167119868Y-133003648D01*
X167417193Y-132558669D01*
X167420000Y-132544557D01*
X167422807Y-132558669D01*
X167720132Y-133003648D01*
X168165111Y-133300973D01*
X168690000Y-133405380D01*
X169214889Y-133300973D01*
X169659868Y-133003648D01*
X169957193Y-132558669D01*
X169960000Y-132544557D01*
X169962807Y-132558669D01*
X170260132Y-133003648D01*
X170705111Y-133300973D01*
X171230000Y-133405380D01*
X171754889Y-133300973D01*
X172199868Y-133003648D01*
X172497193Y-132558669D01*
X172500000Y-132544557D01*
X172502807Y-132558669D01*
X172800132Y-133003648D01*
X173245111Y-133300973D01*
X173770000Y-133405380D01*
X174294889Y-133300973D01*
X174739868Y-133003648D01*
X175037193Y-132558669D01*
X175040000Y-132544557D01*
X175042807Y-132558669D01*
X175340132Y-133003648D01*
X175785111Y-133300973D01*
X176310000Y-133405380D01*
X176834889Y-133300973D01*
X177279868Y-133003648D01*
X177577193Y-132558669D01*
X177681600Y-132033780D01*
X177681600Y-130886220D01*
X177577193Y-130361331D01*
X177279868Y-129916352D01*
X176834889Y-129619027D01*
X176310000Y-129514620D01*
X175785111Y-129619027D01*
X175340132Y-129916352D01*
X175042807Y-130361331D01*
X175040000Y-130375443D01*
X175037193Y-130361331D01*
X174739868Y-129916352D01*
X174294889Y-129619027D01*
X173770000Y-129514620D01*
X173245111Y-129619027D01*
X172800132Y-129916352D01*
X172502807Y-130361331D01*
X172500000Y-130375443D01*
X172497193Y-130361331D01*
X172199868Y-129916352D01*
X171754889Y-129619027D01*
X171230000Y-129514620D01*
X170705111Y-129619027D01*
X170260132Y-129916352D01*
X169962807Y-130361331D01*
X169960000Y-130375443D01*
X169957193Y-130361331D01*
X169659868Y-129916352D01*
X169214889Y-129619027D01*
X168690000Y-129514620D01*
X168165111Y-129619027D01*
X167720132Y-129916352D01*
X167422807Y-130361331D01*
X167420000Y-130375443D01*
X167417193Y-130361331D01*
X167119868Y-129916352D01*
X166674889Y-129619027D01*
X166150000Y-129514620D01*
X165625111Y-129619027D01*
X165180132Y-129916352D01*
X164882807Y-130361331D01*
X164880000Y-130375443D01*
X164877193Y-130361331D01*
X164579868Y-129916352D01*
X164134889Y-129619027D01*
X163610000Y-129514620D01*
X163085111Y-129619027D01*
X162640132Y-129916352D01*
X162342807Y-130361331D01*
X162340000Y-130375443D01*
X162337193Y-130361331D01*
X162039868Y-129916352D01*
X161594889Y-129619027D01*
X161070000Y-129514620D01*
X160545111Y-129619027D01*
X160100132Y-129916352D01*
X159802807Y-130361331D01*
X159800000Y-130375443D01*
X159797193Y-130361331D01*
X159499868Y-129916352D01*
X159054889Y-129619027D01*
X158530000Y-129514620D01*
X158005111Y-129619027D01*
X157560132Y-129916352D01*
X157262807Y-130361331D01*
X157260000Y-130375443D01*
X157257193Y-130361331D01*
X156959868Y-129916352D01*
X156514889Y-129619027D01*
X155990000Y-129514620D01*
X155465111Y-129619027D01*
X155020132Y-129916352D01*
X154722807Y-130361331D01*
X154720000Y-130375443D01*
X154717193Y-130361331D01*
X154419868Y-129916352D01*
X153974889Y-129619027D01*
X153450000Y-129514620D01*
X152925111Y-129619027D01*
X152480132Y-129916352D01*
X152182807Y-130361331D01*
X152180000Y-130375443D01*
X152177193Y-130361331D01*
X151879868Y-129916352D01*
X151684000Y-129785477D01*
X151684000Y-125476000D01*
X151626968Y-125189278D01*
X151622495Y-125166791D01*
X151447342Y-124904658D01*
X150150152Y-123607468D01*
X175691635Y-123607468D01*
X176011883Y-124382526D01*
X176604355Y-124976033D01*
X177378853Y-125297633D01*
X178217468Y-125298365D01*
X178992526Y-124978117D01*
X179586033Y-124385645D01*
X179907633Y-123611147D01*
X179908365Y-122772532D01*
X179588117Y-121997474D01*
X178995645Y-121403967D01*
X178221147Y-121082367D01*
X177382532Y-121081635D01*
X176607474Y-121401883D01*
X176013967Y-121994355D01*
X175692367Y-122768853D01*
X175691635Y-123607468D01*
X150150152Y-123607468D01*
X147384127Y-120841443D01*
X147270293Y-120727410D01*
X146973426Y-120604140D01*
X146651984Y-120603860D01*
X146354903Y-120726611D01*
X146127410Y-120953707D01*
X146004140Y-121250574D01*
X146003860Y-121572016D01*
X146126611Y-121869097D01*
X146353707Y-122096590D01*
X146354047Y-122096731D01*
X150068000Y-125810684D01*
X150068000Y-129830913D01*
X149940132Y-129916352D01*
X149642807Y-130361331D01*
X149640000Y-130375443D01*
X149637193Y-130361331D01*
X149339868Y-129916352D01*
X148894889Y-129619027D01*
X148370000Y-129514620D01*
X147845111Y-129619027D01*
X147400132Y-129916352D01*
X147102807Y-130361331D01*
X147100000Y-130375443D01*
X147097193Y-130361331D01*
X146799868Y-129916352D01*
X146354889Y-129619027D01*
X145830000Y-129514620D01*
X145305111Y-129619027D01*
X144860132Y-129916352D01*
X144562807Y-130361331D01*
X144560000Y-130375443D01*
X144557193Y-130361331D01*
X144259868Y-129916352D01*
X143814889Y-129619027D01*
X143290000Y-129514620D01*
X142765111Y-129619027D01*
X142320132Y-129916352D01*
X142022807Y-130361331D01*
X142020000Y-130375443D01*
X142017193Y-130361331D01*
X141719868Y-129916352D01*
X141274889Y-129619027D01*
X140750000Y-129514620D01*
X140225111Y-129619027D01*
X139780132Y-129916352D01*
X139482807Y-130361331D01*
X139480000Y-130375443D01*
X139477193Y-130361331D01*
X139179868Y-129916352D01*
X138734889Y-129619027D01*
X138210000Y-129514620D01*
X137685111Y-129619027D01*
X137240132Y-129916352D01*
X136942807Y-130361331D01*
X136940000Y-130375443D01*
X136937193Y-130361331D01*
X136639868Y-129916352D01*
X136478000Y-129808195D01*
X136478000Y-126444492D01*
X136701707Y-126668590D01*
X136998574Y-126791860D01*
X137320016Y-126792140D01*
X137617097Y-126669389D01*
X137844590Y-126442293D01*
X137967860Y-126145426D01*
X137968140Y-125823984D01*
X137968000Y-125823645D01*
X137968000Y-110744705D01*
X137968140Y-110583984D01*
X137845389Y-110286903D01*
X137618293Y-110059410D01*
X137321426Y-109936140D01*
X136999984Y-109935860D01*
X136702903Y-110058611D01*
X136475410Y-110285707D01*
X136352140Y-110582574D01*
X136351860Y-110904016D01*
X136352000Y-110904355D01*
X136352000Y-111376988D01*
X136321389Y-111302903D01*
X136241459Y-111222834D01*
X136241342Y-111222658D01*
X136208127Y-111189443D01*
X136094293Y-111075410D01*
X135797426Y-110952140D01*
X135475984Y-110951860D01*
X135178903Y-111074611D01*
X134951410Y-111301707D01*
X134828140Y-111598574D01*
X134827860Y-111920016D01*
X134862000Y-112002641D01*
X134862000Y-129808195D01*
X134700132Y-129916352D01*
X134402807Y-130361331D01*
X134400000Y-130375443D01*
X134397193Y-130361331D01*
X134099868Y-129916352D01*
X133654889Y-129619027D01*
X133130000Y-129514620D01*
X132605111Y-129619027D01*
X132160132Y-129916352D01*
X131862807Y-130361331D01*
X131860000Y-130375443D01*
X131857193Y-130361331D01*
X131559868Y-129916352D01*
X131398000Y-129808195D01*
X131398000Y-119869552D01*
X131336495Y-119560344D01*
X131161342Y-119298210D01*
X128326160Y-116463028D01*
X128326160Y-78415614D01*
X128731584Y-78415614D01*
X128854335Y-78712695D01*
X129081431Y-78940188D01*
X129378298Y-79063458D01*
X129699740Y-79063738D01*
X129996821Y-78940987D01*
X130224314Y-78713891D01*
X130241016Y-78673668D01*
X137222557Y-71692127D01*
X137336590Y-71578293D01*
X137459860Y-71281426D01*
X137460140Y-70959984D01*
X137337389Y-70662903D01*
X137110293Y-70435410D01*
X136813426Y-70312140D01*
X136491984Y-70311860D01*
X136194903Y-70434611D01*
X135967410Y-70661707D01*
X135967269Y-70662047D01*
X128968382Y-77660934D01*
X128921585Y-77730970D01*
X128855134Y-77797305D01*
X128818810Y-77884782D01*
X128793229Y-77923067D01*
X128793229Y-77923068D01*
X128784325Y-77967832D01*
X128731864Y-78094172D01*
X128731744Y-78232177D01*
X128731724Y-78232276D01*
X128731724Y-78254893D01*
X128731584Y-78415614D01*
X128326160Y-78415614D01*
X128326160Y-73312016D01*
X128731860Y-73312016D01*
X128854611Y-73609097D01*
X129081707Y-73836590D01*
X129378574Y-73959860D01*
X129700016Y-73960140D01*
X129834330Y-73904643D01*
X129865237Y-73898495D01*
X129891209Y-73881141D01*
X129997097Y-73837389D01*
X130078900Y-73755729D01*
X130127370Y-73723342D01*
X136494713Y-67356000D01*
X136651295Y-67356000D01*
X136812016Y-67356140D01*
X137109097Y-67233389D01*
X137126500Y-67216016D01*
X146003860Y-67216016D01*
X146004000Y-67216355D01*
X146004000Y-104139295D01*
X146003860Y-104300016D01*
X146126611Y-104597097D01*
X146353707Y-104824590D01*
X146650574Y-104947860D01*
X146972016Y-104948140D01*
X147269097Y-104825389D01*
X147496590Y-104598293D01*
X147619860Y-104301426D01*
X147620140Y-103979984D01*
X147620000Y-103979645D01*
X147620000Y-101536658D01*
X147634887Y-101558937D01*
X147680124Y-101668420D01*
X147764557Y-101753000D01*
X147764658Y-101753152D01*
X147793954Y-101782449D01*
X147907220Y-101895913D01*
X148204087Y-102019183D01*
X148525529Y-102019463D01*
X148822610Y-101896712D01*
X148936854Y-101782667D01*
X148936856Y-101782666D01*
X148936857Y-101782664D01*
X149050103Y-101669616D01*
X149173373Y-101372749D01*
X149173653Y-101051307D01*
X149144000Y-100979541D01*
X149144000Y-65024705D01*
X149144140Y-64863984D01*
X149021389Y-64566903D01*
X148794293Y-64339410D01*
X148497426Y-64216140D01*
X148175984Y-64215860D01*
X147878903Y-64338611D01*
X147651410Y-64565707D01*
X147528140Y-64862574D01*
X147527860Y-65184016D01*
X147528000Y-65184355D01*
X147528000Y-66672988D01*
X147497389Y-66598903D01*
X147270293Y-66371410D01*
X146973426Y-66248140D01*
X146651984Y-66247860D01*
X146354903Y-66370611D01*
X146127410Y-66597707D01*
X146004140Y-66894574D01*
X146003860Y-67216016D01*
X137126500Y-67216016D01*
X137336590Y-67006293D01*
X137459860Y-66709426D01*
X137460140Y-66387984D01*
X137337389Y-66090903D01*
X137110293Y-65863410D01*
X136813426Y-65740140D01*
X136491984Y-65739860D01*
X136491645Y-65740000D01*
X136160028Y-65740000D01*
X135850820Y-65801505D01*
X135791399Y-65841209D01*
X135588685Y-65976658D01*
X129109879Y-72455465D01*
X129082903Y-72466611D01*
X128855410Y-72693707D01*
X128732140Y-72990574D01*
X128731860Y-73312016D01*
X128326160Y-73312016D01*
X128326160Y-68740016D01*
X128731860Y-68740016D01*
X128854611Y-69037097D01*
X129081707Y-69264590D01*
X129378574Y-69387860D01*
X129700016Y-69388140D01*
X129997097Y-69265389D01*
X130224590Y-69038293D01*
X130234066Y-69015472D01*
X136465538Y-62784000D01*
X136651295Y-62784000D01*
X136812016Y-62784140D01*
X137109097Y-62661389D01*
X137336590Y-62434293D01*
X137459860Y-62137426D01*
X137460140Y-61815984D01*
X137337389Y-61518903D01*
X137110293Y-61291410D01*
X136813426Y-61168140D01*
X136491984Y-61167860D01*
X136491645Y-61168000D01*
X136130854Y-61168000D01*
X135821645Y-61229505D01*
X135559512Y-61404658D01*
X128968658Y-67995512D01*
X128942281Y-68034987D01*
X128855410Y-68121707D01*
X128807924Y-68236065D01*
X128793505Y-68257645D01*
X128788486Y-68282878D01*
X128732140Y-68418574D01*
X128732011Y-68566799D01*
X128732000Y-68566854D01*
X128732000Y-68579295D01*
X128731860Y-68740016D01*
X128326160Y-68740016D01*
X128326160Y-57637468D01*
X128430485Y-57889954D01*
X128798110Y-58258222D01*
X129278681Y-58457772D01*
X129799036Y-58458226D01*
X130279954Y-58259515D01*
X130648222Y-57891890D01*
X130847772Y-57411319D01*
X130847999Y-57150000D01*
X143446375Y-57150000D01*
X143545941Y-57650550D01*
X143829479Y-58074896D01*
X144253825Y-58358434D01*
X144754375Y-58458000D01*
X144805625Y-58458000D01*
X145306175Y-58358434D01*
X145730521Y-58074896D01*
X146014059Y-57650550D01*
X146113625Y-57150000D01*
X146014059Y-56649450D01*
X145730521Y-56225104D01*
X145306175Y-55941566D01*
X144805625Y-55842000D01*
X144754375Y-55842000D01*
X144253825Y-55941566D01*
X143829479Y-56225104D01*
X143545941Y-56649450D01*
X143446375Y-57150000D01*
X130847999Y-57150000D01*
X130848226Y-56890964D01*
X130649515Y-56410046D01*
X130281890Y-56041778D01*
X129801319Y-55842228D01*
X129280964Y-55841774D01*
X128800046Y-56040485D01*
X128431778Y-56408110D01*
X128326160Y-56662467D01*
X128326160Y-55382160D01*
X128316036Y-55331263D01*
X128316140Y-55211984D01*
X128270189Y-55100774D01*
X128264655Y-55072952D01*
X128249033Y-55049572D01*
X128193389Y-54914903D01*
X128089537Y-54810870D01*
X128089502Y-54810817D01*
X128080085Y-54801401D01*
X127966293Y-54687410D01*
X127669426Y-54564140D01*
X127347984Y-54563860D01*
X127050903Y-54686611D01*
X126823410Y-54913707D01*
X126700140Y-55210574D01*
X126699860Y-55532016D01*
X126710160Y-55556944D01*
X126710160Y-116797712D01*
X126771665Y-117106921D01*
X126946818Y-117369054D01*
X129782000Y-120204236D01*
X129782000Y-129808195D01*
X129620132Y-129916352D01*
X129322807Y-130361331D01*
X129320000Y-130375443D01*
X129317193Y-130361331D01*
X129019868Y-129916352D01*
X128858000Y-129808195D01*
X128858000Y-121932237D01*
X128796495Y-121623029D01*
X128796495Y-121623028D01*
X128621342Y-121360895D01*
X126272570Y-119012123D01*
X126272570Y-55782210D01*
X126211065Y-55473002D01*
X126148462Y-55379310D01*
X126035913Y-55210868D01*
X125860934Y-55035890D01*
X125860932Y-55035887D01*
X125561716Y-54736672D01*
X125447883Y-54622640D01*
X125151016Y-54499370D01*
X124829574Y-54499090D01*
X124532493Y-54621841D01*
X124305000Y-54848937D01*
X124181730Y-55145804D01*
X124181450Y-55467246D01*
X124304201Y-55764327D01*
X124531297Y-55991820D01*
X124531637Y-55991961D01*
X124656570Y-56116895D01*
X124656570Y-119346807D01*
X124718075Y-119656016D01*
X124893228Y-119918149D01*
X127242000Y-122266921D01*
X127242000Y-129808195D01*
X127080132Y-129916352D01*
X126782807Y-130361331D01*
X126780000Y-130375443D01*
X126777193Y-130361331D01*
X126479868Y-129916352D01*
X126318000Y-129808195D01*
X126318000Y-123994921D01*
X126266699Y-123737013D01*
X126256495Y-123685712D01*
X126081342Y-123423579D01*
X124252000Y-121594237D01*
X124252000Y-75184705D01*
X124252140Y-75023984D01*
X124129389Y-74726903D01*
X123902293Y-74499410D01*
X123605426Y-74376140D01*
X123283984Y-74375860D01*
X122986903Y-74498611D01*
X122759410Y-74725707D01*
X122636140Y-75022574D01*
X122635860Y-75344016D01*
X122636000Y-75344355D01*
X122636000Y-121928921D01*
X122697505Y-122238130D01*
X122872658Y-122500263D01*
X124702000Y-124329605D01*
X124702000Y-129808195D01*
X124540132Y-129916352D01*
X124242807Y-130361331D01*
X124240000Y-130375443D01*
X124237193Y-130361331D01*
X123939868Y-129916352D01*
X123744000Y-129785477D01*
X123744000Y-125966783D01*
X123682495Y-125657575D01*
X123624375Y-125570593D01*
X123507342Y-125395440D01*
X122220000Y-124108099D01*
X122220000Y-81280705D01*
X122220140Y-81119984D01*
X122097389Y-80822903D01*
X121870293Y-80595410D01*
X121573426Y-80472140D01*
X121251984Y-80471860D01*
X120954903Y-80594611D01*
X120727410Y-80821707D01*
X120604140Y-81118574D01*
X120603860Y-81440016D01*
X120604000Y-81440355D01*
X120604000Y-124442783D01*
X120665505Y-124751992D01*
X120840658Y-125014125D01*
X122128000Y-126301468D01*
X122128000Y-129830913D01*
X122000132Y-129916352D01*
X121702807Y-130361331D01*
X121700000Y-130375443D01*
X121697193Y-130361331D01*
X121399868Y-129916352D01*
X121238000Y-129808195D01*
X121238000Y-127949821D01*
X121186699Y-127691913D01*
X121176495Y-127640612D01*
X121001342Y-127378479D01*
X120188000Y-126565137D01*
X120188000Y-88900705D01*
X120188140Y-88739984D01*
X120065389Y-88442903D01*
X119838293Y-88215410D01*
X119541426Y-88092140D01*
X119219984Y-88091860D01*
X118922903Y-88214611D01*
X118695410Y-88441707D01*
X118572140Y-88738574D01*
X118571860Y-89060016D01*
X102583000Y-89060016D01*
X102583000Y-60272925D01*
X111049650Y-60272925D01*
X111172401Y-60570006D01*
X111399497Y-60797499D01*
X111696364Y-60920769D01*
X112017806Y-60921049D01*
X112314887Y-60798298D01*
X112542380Y-60571202D01*
X112542521Y-60570862D01*
X112729132Y-60384252D01*
X112729134Y-60384249D01*
X114399382Y-58714001D01*
X118035592Y-58714001D01*
X118222987Y-59097408D01*
X118547456Y-59373808D01*
X118953000Y-59505000D01*
X119253000Y-59505000D01*
X119253000Y-58547000D01*
X119507000Y-58547000D01*
X119507000Y-59505000D01*
X119807000Y-59505000D01*
X120212544Y-59373808D01*
X120537013Y-59097408D01*
X120724408Y-58714001D01*
X120597502Y-58547000D01*
X119507000Y-58547000D01*
X119253000Y-58547000D01*
X118162498Y-58547000D01*
X118035592Y-58714001D01*
X114399382Y-58714001D01*
X114987384Y-58125999D01*
X118035592Y-58125999D01*
X118162498Y-58293000D01*
X119253000Y-58293000D01*
X119253000Y-58273000D01*
X119507000Y-58273000D01*
X119507000Y-58293000D01*
X120597502Y-58293000D01*
X120724408Y-58125999D01*
X120537013Y-57742592D01*
X120474378Y-57689236D01*
X120589723Y-57516611D01*
X120662646Y-57150000D01*
X120589723Y-56783389D01*
X120513247Y-56668936D01*
X120607145Y-56531512D01*
X120647952Y-56330000D01*
X120647952Y-55430000D01*
X120612530Y-55241747D01*
X120501272Y-55068847D01*
X120331512Y-54952855D01*
X120130000Y-54912048D01*
X118630000Y-54912048D01*
X118441747Y-54947470D01*
X118268847Y-55058728D01*
X118152855Y-55228488D01*
X118112048Y-55430000D01*
X118112048Y-56330000D01*
X118147470Y-56518253D01*
X118245570Y-56670705D01*
X118170277Y-56783389D01*
X118097354Y-57150000D01*
X118170277Y-57516611D01*
X118285622Y-57689236D01*
X118222987Y-57742592D01*
X118035592Y-58125999D01*
X114987384Y-58125999D01*
X121505384Y-51608000D01*
X155230000Y-51608000D01*
X155539209Y-51546495D01*
X155801342Y-51371342D01*
X159459718Y-47712967D01*
X159470751Y-47717548D01*
X160046722Y-47718051D01*
X160579041Y-47498101D01*
X160986669Y-47091184D01*
X161029833Y-46987234D01*
X161071899Y-47089041D01*
X161478816Y-47496669D01*
X162010751Y-47717548D01*
X162586722Y-47718051D01*
X163119041Y-47498101D01*
X163526669Y-47091184D01*
X163569833Y-46987234D01*
X163609670Y-47083645D01*
X158669316Y-52024000D01*
X150644815Y-52024000D01*
X150335606Y-52085505D01*
X150073473Y-52260658D01*
X148272658Y-54061473D01*
X148097505Y-54323606D01*
X148049716Y-54563860D01*
X148036000Y-54632815D01*
X148036000Y-59944000D01*
X148097505Y-60253209D01*
X148272658Y-60515342D01*
X151092000Y-63334685D01*
X151092000Y-63933462D01*
X151191566Y-64434012D01*
X151475104Y-64858358D01*
X151899450Y-65141896D01*
X152400000Y-65241462D01*
X152900550Y-65141896D01*
X153324896Y-64858358D01*
X153608434Y-64434012D01*
X153670000Y-64124500D01*
X153731566Y-64434012D01*
X154015104Y-64858358D01*
X154132000Y-64936465D01*
X154132000Y-65532000D01*
X154193505Y-65841209D01*
X154368658Y-66103342D01*
X155384658Y-67119342D01*
X155646791Y-67294495D01*
X155956000Y-67356000D01*
X161544000Y-67356000D01*
X161853209Y-67294495D01*
X162115342Y-67119342D01*
X163131342Y-66103342D01*
X163306495Y-65841209D01*
X163368000Y-65532000D01*
X163368000Y-64936465D01*
X163484896Y-64858358D01*
X163768434Y-64434012D01*
X163830000Y-64124500D01*
X163891566Y-64434012D01*
X164175104Y-64858358D01*
X164599450Y-65141896D01*
X165100000Y-65241462D01*
X165600550Y-65141896D01*
X166024896Y-64858358D01*
X166308434Y-64434012D01*
X166370000Y-64124500D01*
X166431566Y-64434012D01*
X166715104Y-64858358D01*
X166832000Y-64936465D01*
X166832000Y-91140876D01*
X144024790Y-113948086D01*
X144024787Y-113948088D01*
X143725572Y-114247304D01*
X143611540Y-114361137D01*
X143488270Y-114658004D01*
X143487990Y-114979446D01*
X143610741Y-115276527D01*
X143837837Y-115504020D01*
X144134704Y-115627290D01*
X144456146Y-115627570D01*
X144753227Y-115504819D01*
X144980720Y-115277723D01*
X144980861Y-115277383D01*
X145167472Y-115090773D01*
X145167474Y-115090770D01*
X166458522Y-93799722D01*
X169001834Y-93799722D01*
X169147374Y-94151954D01*
X169416628Y-94421679D01*
X169768606Y-94567833D01*
X170149722Y-94568166D01*
X170501954Y-94422626D01*
X170771679Y-94153372D01*
X170917833Y-93801394D01*
X170918166Y-93420278D01*
X170772626Y-93068046D01*
X170503372Y-92798321D01*
X170151394Y-92652167D01*
X169770278Y-92651834D01*
X169418046Y-92797374D01*
X169148321Y-93066628D01*
X169002167Y-93418606D01*
X169001834Y-93799722D01*
X166458522Y-93799722D01*
X168211342Y-92046902D01*
X168386495Y-91784769D01*
X168448000Y-91475560D01*
X168448000Y-64936465D01*
X168564896Y-64858358D01*
X168848434Y-64434012D01*
X168948000Y-63933462D01*
X168948000Y-63066538D01*
X168848434Y-62565988D01*
X168564896Y-62141642D01*
X168140550Y-61858104D01*
X167640000Y-61758538D01*
X167139450Y-61858104D01*
X166715104Y-62141642D01*
X166431566Y-62565988D01*
X166370000Y-62875500D01*
X166308434Y-62565988D01*
X166024896Y-62141642D01*
X165600550Y-61858104D01*
X165100000Y-61758538D01*
X164599450Y-61858104D01*
X164175104Y-62141642D01*
X163891566Y-62565988D01*
X163830000Y-62875500D01*
X163768434Y-62565988D01*
X163484896Y-62141642D01*
X163060550Y-61858104D01*
X162560000Y-61758538D01*
X162059450Y-61858104D01*
X161635104Y-62141642D01*
X161351566Y-62565988D01*
X161290000Y-62875500D01*
X161228434Y-62565988D01*
X160944896Y-62141642D01*
X160520550Y-61858104D01*
X160020000Y-61758538D01*
X159519450Y-61858104D01*
X159095104Y-62141642D01*
X158811566Y-62565988D01*
X158750000Y-62875500D01*
X158688434Y-62565988D01*
X158404896Y-62141642D01*
X158288000Y-62063535D01*
X158288000Y-61018712D01*
X158226495Y-60709504D01*
X158096760Y-60515342D01*
X158051342Y-60447369D01*
X155748000Y-58144028D01*
X155748000Y-57316465D01*
X155864896Y-57238358D01*
X156148434Y-56814012D01*
X156210000Y-56504500D01*
X156271566Y-56814012D01*
X156555104Y-57238358D01*
X156979450Y-57521896D01*
X157480000Y-57621462D01*
X157980550Y-57521896D01*
X158404896Y-57238358D01*
X158688434Y-56814012D01*
X158750000Y-56504500D01*
X158811566Y-56814012D01*
X159095104Y-57238358D01*
X159519450Y-57521896D01*
X160020000Y-57621462D01*
X160520550Y-57521896D01*
X160944896Y-57238358D01*
X161228434Y-56814012D01*
X161290000Y-56504500D01*
X161351566Y-56814012D01*
X161635104Y-57238358D01*
X162059450Y-57521896D01*
X162560000Y-57621462D01*
X163060550Y-57521896D01*
X163484896Y-57238358D01*
X163768434Y-56814012D01*
X163830000Y-56504500D01*
X163891566Y-56814012D01*
X164175104Y-57238358D01*
X164599450Y-57521896D01*
X165100000Y-57621462D01*
X165600550Y-57521896D01*
X166024896Y-57238358D01*
X166308434Y-56814012D01*
X166322048Y-56745570D01*
X166322048Y-57080000D01*
X166357470Y-57268253D01*
X166468728Y-57441153D01*
X166638488Y-57557145D01*
X166840000Y-57597952D01*
X168440000Y-57597952D01*
X168628253Y-57562530D01*
X168801153Y-57451272D01*
X168917145Y-57281512D01*
X168957952Y-57080000D01*
X168957952Y-54680000D01*
X168922530Y-54491747D01*
X168811272Y-54318847D01*
X168641512Y-54202855D01*
X168440000Y-54162048D01*
X166840000Y-54162048D01*
X166651747Y-54197470D01*
X166478847Y-54308728D01*
X166362855Y-54478488D01*
X166322048Y-54680000D01*
X166322048Y-55014430D01*
X166308434Y-54945988D01*
X166024896Y-54521642D01*
X165908000Y-54443535D01*
X165908000Y-52882477D01*
X166153777Y-52636700D01*
X177559296Y-52636700D01*
X177881225Y-52958630D01*
X177994487Y-53072090D01*
X178291354Y-53195360D01*
X178612796Y-53195640D01*
X178909877Y-53072889D01*
X179024121Y-52958844D01*
X179024123Y-52958843D01*
X179024124Y-52958841D01*
X179137370Y-52845793D01*
X179260640Y-52548926D01*
X179260920Y-52227484D01*
X179138169Y-51930403D01*
X178911073Y-51702910D01*
X178910734Y-51702769D01*
X178465322Y-51257358D01*
X178203189Y-51082205D01*
X177893980Y-51020700D01*
X173072276Y-51020700D01*
X173177097Y-50977389D01*
X173404590Y-50750293D01*
X173527860Y-50453426D01*
X173528140Y-50131984D01*
X173405389Y-49834903D01*
X173178293Y-49607410D01*
X172881426Y-49484140D01*
X172559984Y-49483860D01*
X172559645Y-49484000D01*
X167640705Y-49484000D01*
X167479984Y-49483860D01*
X167182903Y-49606611D01*
X166955410Y-49833707D01*
X166832140Y-50130574D01*
X166831860Y-50452016D01*
X166954611Y-50749097D01*
X167181707Y-50976590D01*
X167287936Y-51020700D01*
X165819093Y-51020700D01*
X165509884Y-51082205D01*
X165247751Y-51257358D01*
X164528658Y-51976451D01*
X164353505Y-52238584D01*
X164353505Y-52238585D01*
X164292000Y-52547793D01*
X164292000Y-54443535D01*
X164175104Y-54521642D01*
X163891566Y-54945988D01*
X163830000Y-55255500D01*
X163768434Y-54945988D01*
X163484896Y-54521642D01*
X163060550Y-54238104D01*
X162560000Y-54138538D01*
X162059450Y-54238104D01*
X161635104Y-54521642D01*
X161351566Y-54945988D01*
X161290000Y-55255500D01*
X161228434Y-54945988D01*
X160944896Y-54521642D01*
X160520550Y-54238104D01*
X160020000Y-54138538D01*
X159519450Y-54238104D01*
X159095104Y-54521642D01*
X158811566Y-54945988D01*
X158750000Y-55255500D01*
X158688434Y-54945988D01*
X158404896Y-54521642D01*
X157980550Y-54238104D01*
X157480000Y-54138538D01*
X156979450Y-54238104D01*
X156555104Y-54521642D01*
X156271566Y-54945988D01*
X156210000Y-55255500D01*
X156148434Y-54945988D01*
X155864896Y-54521642D01*
X155440550Y-54238104D01*
X154940000Y-54138538D01*
X154439450Y-54238104D01*
X154015104Y-54521642D01*
X153731566Y-54945988D01*
X153725235Y-54977818D01*
X153677166Y-54813517D01*
X153324896Y-54375500D01*
X152831819Y-54105633D01*
X152749039Y-54088096D01*
X152527000Y-54210085D01*
X152527000Y-55753000D01*
X152547000Y-55753000D01*
X152547000Y-56007000D01*
X152527000Y-56007000D01*
X152527000Y-57549915D01*
X152749039Y-57671904D01*
X152831819Y-57654367D01*
X153324896Y-57384500D01*
X153677166Y-56946483D01*
X153725235Y-56782182D01*
X153731566Y-56814012D01*
X154015104Y-57238358D01*
X154132000Y-57316465D01*
X154132000Y-58478712D01*
X154193505Y-58787921D01*
X154368658Y-59050054D01*
X156672000Y-61353397D01*
X156672000Y-62063535D01*
X156555104Y-62141642D01*
X156271566Y-62565988D01*
X156210000Y-62875500D01*
X156148434Y-62565988D01*
X155864896Y-62141642D01*
X155440550Y-61858104D01*
X154940000Y-61758538D01*
X154439450Y-61858104D01*
X154015104Y-62141642D01*
X153731566Y-62565988D01*
X153670000Y-62875500D01*
X153608434Y-62565988D01*
X153324896Y-62141642D01*
X152900550Y-61858104D01*
X152400000Y-61758538D01*
X151900567Y-61857882D01*
X149652000Y-59609316D01*
X149652000Y-56007000D01*
X150965000Y-56007000D01*
X150965000Y-56407000D01*
X151122834Y-56946483D01*
X151475104Y-57384500D01*
X151968181Y-57654367D01*
X152050961Y-57671904D01*
X152273000Y-57549915D01*
X152273000Y-56007000D01*
X150965000Y-56007000D01*
X149652000Y-56007000D01*
X149652000Y-55353000D01*
X150965000Y-55353000D01*
X150965000Y-55753000D01*
X152273000Y-55753000D01*
X152273000Y-54210085D01*
X152050961Y-54088096D01*
X151968181Y-54105633D01*
X151475104Y-54375500D01*
X151122834Y-54813517D01*
X150965000Y-55353000D01*
X149652000Y-55353000D01*
X149652000Y-54967499D01*
X150979499Y-53640000D01*
X159004000Y-53640000D01*
X159313209Y-53578495D01*
X159575342Y-53403342D01*
X165354926Y-47623759D01*
X165659041Y-47498101D01*
X166066669Y-47091184D01*
X166109833Y-46987234D01*
X166151899Y-47089041D01*
X166558816Y-47496669D01*
X167090751Y-47717548D01*
X167666722Y-47718051D01*
X168199041Y-47498101D01*
X168606669Y-47091184D01*
X168827548Y-46559249D01*
X168828051Y-45983278D01*
X168608101Y-45450959D01*
X168228274Y-45070468D01*
X168299380Y-44867468D01*
X175691635Y-44867468D01*
X176011883Y-45642526D01*
X176604355Y-46236033D01*
X177378853Y-46557633D01*
X178217468Y-46558365D01*
X178992526Y-46238117D01*
X179586033Y-45645645D01*
X179907633Y-44871147D01*
X179908365Y-44032532D01*
X179588117Y-43257474D01*
X178995645Y-42663967D01*
X178221147Y-42342367D01*
X177382532Y-42341635D01*
X176607474Y-42661883D01*
X176013967Y-43254355D01*
X175692367Y-44028853D01*
X175691635Y-44867468D01*
X168299380Y-44867468D01*
X168309363Y-44838968D01*
X167380000Y-43909605D01*
X166450637Y-44838968D01*
X166531885Y-45070922D01*
X166153331Y-45448816D01*
X166110167Y-45552766D01*
X166068101Y-45450959D01*
X165661184Y-45043331D01*
X165557234Y-45000167D01*
X165659041Y-44958101D01*
X166039532Y-44578274D01*
X166271032Y-44659363D01*
X167200395Y-43730000D01*
X167559605Y-43730000D01*
X168488968Y-44659363D01*
X168749580Y-44568077D01*
X168966045Y-43980167D01*
X168941049Y-43354172D01*
X168749580Y-42891923D01*
X168488968Y-42800637D01*
X167559605Y-43730000D01*
X167200395Y-43730000D01*
X166271032Y-42800637D01*
X166039078Y-42881885D01*
X165778680Y-42621032D01*
X166450637Y-42621032D01*
X167380000Y-43550395D01*
X168309363Y-42621032D01*
X168218077Y-42360420D01*
X167630167Y-42143955D01*
X167004172Y-42168951D01*
X166541923Y-42360420D01*
X166450637Y-42621032D01*
X165778680Y-42621032D01*
X165661184Y-42503331D01*
X165129249Y-42282452D01*
X164553278Y-42281949D01*
X164020959Y-42501899D01*
X163613331Y-42908816D01*
X163570167Y-43012766D01*
X163528101Y-42910959D01*
X163121184Y-42503331D01*
X162589249Y-42282452D01*
X162013278Y-42281949D01*
X161480959Y-42501899D01*
X161073331Y-42908816D01*
X161030167Y-43012766D01*
X160988101Y-42910959D01*
X160581184Y-42503331D01*
X160049249Y-42282452D01*
X159473278Y-42281949D01*
X158940959Y-42501899D01*
X158533331Y-42908816D01*
X158490167Y-43012766D01*
X158448101Y-42910959D01*
X158041184Y-42503331D01*
X157509249Y-42282452D01*
X156933278Y-42281949D01*
X156400959Y-42501899D01*
X156020468Y-42881726D01*
X155788968Y-42800637D01*
X154859605Y-43730000D01*
X155788968Y-44659363D01*
X156020922Y-44578115D01*
X156398816Y-44956669D01*
X156502766Y-44999833D01*
X156400959Y-45041899D01*
X155993331Y-45448816D01*
X155950167Y-45552766D01*
X155908101Y-45450959D01*
X155528274Y-45070468D01*
X155609363Y-44838968D01*
X154680000Y-43909605D01*
X153750637Y-44838968D01*
X153831885Y-45070922D01*
X153453331Y-45448816D01*
X153410167Y-45552766D01*
X153368101Y-45450959D01*
X152961184Y-45043331D01*
X152857234Y-45000167D01*
X152959041Y-44958101D01*
X153339532Y-44578274D01*
X153571032Y-44659363D01*
X154500395Y-43730000D01*
X153571032Y-42800637D01*
X153339078Y-42881885D01*
X153078680Y-42621032D01*
X153750637Y-42621032D01*
X154680000Y-43550395D01*
X155609363Y-42621032D01*
X155518077Y-42360420D01*
X154930167Y-42143955D01*
X154304172Y-42168951D01*
X153841923Y-42360420D01*
X153750637Y-42621032D01*
X153078680Y-42621032D01*
X152961184Y-42503331D01*
X152429249Y-42282452D01*
X151853278Y-42281949D01*
X151320959Y-42501899D01*
X150940468Y-42881726D01*
X150708968Y-42800637D01*
X149779605Y-43730000D01*
X150708968Y-44659363D01*
X150940922Y-44578115D01*
X151318816Y-44956669D01*
X151422766Y-44999833D01*
X151320959Y-45041899D01*
X150913331Y-45448816D01*
X150870167Y-45552766D01*
X150828101Y-45450959D01*
X150448274Y-45070468D01*
X150529363Y-44838968D01*
X149600000Y-43909605D01*
X148670637Y-44838968D01*
X148751885Y-45070922D01*
X148373331Y-45448816D01*
X148330167Y-45552766D01*
X148288101Y-45450959D01*
X147908274Y-45070468D01*
X147989363Y-44838968D01*
X147060000Y-43909605D01*
X146130637Y-44838968D01*
X146211885Y-45070922D01*
X145833331Y-45448816D01*
X145790167Y-45552766D01*
X145748101Y-45450959D01*
X145368274Y-45070468D01*
X145449363Y-44838968D01*
X144520000Y-43909605D01*
X143590637Y-44838968D01*
X143671885Y-45070922D01*
X143320468Y-45421726D01*
X143088968Y-45340637D01*
X142159605Y-46270000D01*
X143088968Y-47199363D01*
X143320922Y-47118115D01*
X143698816Y-47496669D01*
X144230751Y-47717548D01*
X144806722Y-47718051D01*
X145339041Y-47498101D01*
X145746669Y-47091184D01*
X145789833Y-46987234D01*
X145831899Y-47089041D01*
X146238816Y-47496669D01*
X146770751Y-47717548D01*
X147346722Y-47718051D01*
X147879041Y-47498101D01*
X148286669Y-47091184D01*
X148329833Y-46987234D01*
X148371899Y-47089041D01*
X148729773Y-47447540D01*
X148272658Y-47904656D01*
X148097505Y-48166789D01*
X148072730Y-48291341D01*
X148036000Y-48475998D01*
X148036000Y-48767295D01*
X148035860Y-48928016D01*
X148158611Y-49225097D01*
X148385707Y-49452590D01*
X148682574Y-49575860D01*
X149004016Y-49576140D01*
X149301097Y-49453389D01*
X149528590Y-49226293D01*
X149651860Y-48929426D01*
X149651963Y-48810719D01*
X150171342Y-48291341D01*
X150346494Y-48029207D01*
X150346495Y-48029206D01*
X150408000Y-47719998D01*
X150408000Y-47502663D01*
X150419041Y-47498101D01*
X150826669Y-47091184D01*
X150869833Y-46987234D01*
X150911899Y-47089041D01*
X151318816Y-47496669D01*
X151850751Y-47717548D01*
X152426722Y-47718051D01*
X152959041Y-47498101D01*
X153366669Y-47091184D01*
X153409833Y-46987234D01*
X153451899Y-47089041D01*
X153858816Y-47496669D01*
X154390751Y-47717548D01*
X154966722Y-47718051D01*
X155499041Y-47498101D01*
X155906669Y-47091184D01*
X155949833Y-46987234D01*
X155991899Y-47089041D01*
X156398816Y-47496669D01*
X156930751Y-47717548D01*
X157169559Y-47717757D01*
X154895316Y-49992000D01*
X121170699Y-49992000D01*
X120861491Y-50053505D01*
X120750551Y-50127632D01*
X122231343Y-48646841D01*
X122406495Y-48384707D01*
X122468000Y-48075499D01*
X122468000Y-47502663D01*
X122479041Y-47498101D01*
X122886669Y-47091184D01*
X122929833Y-46987234D01*
X122971899Y-47089041D01*
X123378816Y-47496669D01*
X123910751Y-47717548D01*
X124486722Y-47718051D01*
X125019041Y-47498101D01*
X125426669Y-47091184D01*
X125469833Y-46987234D01*
X125511899Y-47089041D01*
X125918816Y-47496669D01*
X126450751Y-47717548D01*
X127026722Y-47718051D01*
X127559041Y-47498101D01*
X127966669Y-47091184D01*
X128009833Y-46987234D01*
X128051899Y-47089041D01*
X128458816Y-47496669D01*
X128990751Y-47717548D01*
X129566722Y-47718051D01*
X130099041Y-47498101D01*
X130506669Y-47091184D01*
X130549833Y-46987234D01*
X130591899Y-47089041D01*
X130998816Y-47496669D01*
X131530751Y-47717548D01*
X132106722Y-47718051D01*
X132639041Y-47498101D01*
X133046669Y-47091184D01*
X133089833Y-46987234D01*
X133131899Y-47089041D01*
X133538816Y-47496669D01*
X134070751Y-47717548D01*
X134646722Y-47718051D01*
X135179041Y-47498101D01*
X135586669Y-47091184D01*
X135629833Y-46987234D01*
X135671899Y-47089041D01*
X136078816Y-47496669D01*
X136610751Y-47717548D01*
X137186722Y-47718051D01*
X137719041Y-47498101D01*
X138126669Y-47091184D01*
X138169833Y-46987234D01*
X138211899Y-47089041D01*
X138618816Y-47496669D01*
X139150751Y-47717548D01*
X139726722Y-47718051D01*
X140259041Y-47498101D01*
X140378382Y-47378968D01*
X141050637Y-47378968D01*
X141141923Y-47639580D01*
X141729833Y-47856045D01*
X142355828Y-47831049D01*
X142818077Y-47639580D01*
X142909363Y-47378968D01*
X141980000Y-46449605D01*
X141050637Y-47378968D01*
X140378382Y-47378968D01*
X140639532Y-47118274D01*
X140871032Y-47199363D01*
X141800395Y-46270000D01*
X140871032Y-45340637D01*
X140639078Y-45421885D01*
X140261184Y-45043331D01*
X140157234Y-45000167D01*
X140259041Y-44958101D01*
X140666669Y-44551184D01*
X140709833Y-44447234D01*
X140751899Y-44549041D01*
X141131726Y-44929532D01*
X141050637Y-45161032D01*
X141980000Y-46090395D01*
X142909363Y-45161032D01*
X142828115Y-44929078D01*
X143179532Y-44578274D01*
X143411032Y-44659363D01*
X144340395Y-43730000D01*
X144699605Y-43730000D01*
X145628968Y-44659363D01*
X145790000Y-44602957D01*
X145951032Y-44659363D01*
X146880395Y-43730000D01*
X147239605Y-43730000D01*
X148168968Y-44659363D01*
X148330000Y-44602957D01*
X148491032Y-44659363D01*
X149420395Y-43730000D01*
X148491032Y-42800637D01*
X148330000Y-42857043D01*
X148168968Y-42800637D01*
X147239605Y-43730000D01*
X146880395Y-43730000D01*
X145951032Y-42800637D01*
X145790000Y-42857043D01*
X145628968Y-42800637D01*
X144699605Y-43730000D01*
X144340395Y-43730000D01*
X143411032Y-42800637D01*
X143179078Y-42881885D01*
X142918680Y-42621032D01*
X143590637Y-42621032D01*
X144520000Y-43550395D01*
X145449363Y-42621032D01*
X146130637Y-42621032D01*
X147060000Y-43550395D01*
X147989363Y-42621032D01*
X148670637Y-42621032D01*
X149600000Y-43550395D01*
X150529363Y-42621032D01*
X150438077Y-42360420D01*
X149850167Y-42143955D01*
X149224172Y-42168951D01*
X148761923Y-42360420D01*
X148670637Y-42621032D01*
X147989363Y-42621032D01*
X147898077Y-42360420D01*
X147310167Y-42143955D01*
X146684172Y-42168951D01*
X146221923Y-42360420D01*
X146130637Y-42621032D01*
X145449363Y-42621032D01*
X145358077Y-42360420D01*
X144770167Y-42143955D01*
X144144172Y-42168951D01*
X143681923Y-42360420D01*
X143590637Y-42621032D01*
X142918680Y-42621032D01*
X142801184Y-42503331D01*
X142269249Y-42282452D01*
X141693278Y-42281949D01*
X141160959Y-42501899D01*
X140753331Y-42908816D01*
X140710167Y-43012766D01*
X140668101Y-42910959D01*
X140261184Y-42503331D01*
X139729249Y-42282452D01*
X139153278Y-42281949D01*
X138620959Y-42501899D01*
X138213331Y-42908816D01*
X138170167Y-43012766D01*
X138128101Y-42910959D01*
X137721184Y-42503331D01*
X137189249Y-42282452D01*
X136613278Y-42281949D01*
X136080959Y-42501899D01*
X135673331Y-42908816D01*
X135630167Y-43012766D01*
X135588101Y-42910959D01*
X135181184Y-42503331D01*
X134649249Y-42282452D01*
X134073278Y-42281949D01*
X133540959Y-42501899D01*
X133133331Y-42908816D01*
X133090167Y-43012766D01*
X133048101Y-42910959D01*
X132641184Y-42503331D01*
X132109249Y-42282452D01*
X131533278Y-42281949D01*
X131000959Y-42501899D01*
X130593331Y-42908816D01*
X130550167Y-43012766D01*
X130508101Y-42910959D01*
X130101184Y-42503331D01*
X129569249Y-42282452D01*
X128993278Y-42281949D01*
X128460959Y-42501899D01*
X128053331Y-42908816D01*
X128010167Y-43012766D01*
X127968101Y-42910959D01*
X127561184Y-42503331D01*
X127029249Y-42282452D01*
X126453278Y-42281949D01*
X125920959Y-42501899D01*
X125513331Y-42908816D01*
X125470167Y-43012766D01*
X125428101Y-42910959D01*
X125021184Y-42503331D01*
X124489249Y-42282452D01*
X123913278Y-42281949D01*
X123380959Y-42501899D01*
X122973331Y-42908816D01*
X122930167Y-43012766D01*
X122888101Y-42910959D01*
X122481184Y-42503331D01*
X121949249Y-42282452D01*
X121373278Y-42281949D01*
X120840959Y-42501899D01*
X120460468Y-42881726D01*
X120228968Y-42800637D01*
X119299605Y-43730000D01*
X119313748Y-43744143D01*
X119134143Y-43923748D01*
X119120000Y-43909605D01*
X119105858Y-43923748D01*
X118926253Y-43744143D01*
X118940395Y-43730000D01*
X118011032Y-42800637D01*
X117750420Y-42891923D01*
X117533955Y-43479833D01*
X117558951Y-44105828D01*
X117750420Y-44568077D01*
X118011030Y-44659362D01*
X117896588Y-44773804D01*
X117978869Y-44856085D01*
X117819047Y-44958928D01*
X117703055Y-45128688D01*
X117662248Y-45330200D01*
X117662248Y-47209800D01*
X117697670Y-47398053D01*
X117808928Y-47570953D01*
X117978688Y-47686945D01*
X118180200Y-47727752D01*
X120059800Y-47727752D01*
X120248053Y-47692330D01*
X120420953Y-47581072D01*
X120536945Y-47411312D01*
X120573484Y-47230874D01*
X120838816Y-47496669D01*
X120852000Y-47502143D01*
X120852000Y-47740814D01*
X115442169Y-53150646D01*
X115442166Y-53150648D01*
X115142951Y-53449864D01*
X115028919Y-53563697D01*
X114905649Y-53860564D01*
X114905369Y-54182006D01*
X115028120Y-54479087D01*
X115255216Y-54706580D01*
X115552083Y-54829850D01*
X115873525Y-54830130D01*
X116085450Y-54742565D01*
X111586450Y-59241565D01*
X111586447Y-59241567D01*
X111287232Y-59540783D01*
X111173200Y-59654616D01*
X111049930Y-59951483D01*
X111049650Y-60272925D01*
X102583000Y-60272925D01*
X102583000Y-44867468D01*
X104571635Y-44867468D01*
X104891883Y-45642526D01*
X105484355Y-46236033D01*
X106258853Y-46557633D01*
X107097468Y-46558365D01*
X107872526Y-46238117D01*
X108466033Y-45645645D01*
X108787633Y-44871147D01*
X108788365Y-44032532D01*
X108468117Y-43257474D01*
X107875645Y-42663967D01*
X107772247Y-42621032D01*
X118190637Y-42621032D01*
X119120000Y-43550395D01*
X120049363Y-42621032D01*
X119958077Y-42360420D01*
X119370167Y-42143955D01*
X118744172Y-42168951D01*
X118281923Y-42360420D01*
X118190637Y-42621032D01*
X107772247Y-42621032D01*
X107101147Y-42342367D01*
X106262532Y-42341635D01*
X105487474Y-42661883D01*
X104893967Y-43254355D01*
X104572367Y-44028853D01*
X104571635Y-44867468D01*
X102583000Y-44867468D01*
X102583000Y-43057421D01*
X102777535Y-42079426D01*
X103298998Y-41299001D01*
X104079425Y-40777535D01*
X105057422Y-40583000D01*
X178942579Y-40583000D01*
X179920574Y-40777535D01*
X179920574Y-40777535D01*
G37*
X179920574Y-40777535D02*
X180700999Y-41298998D01*
X181222465Y-42079425D01*
X181417000Y-43057422D01*
X181417000Y-136942578D01*
X181222465Y-137920575D01*
X180700999Y-138701002D01*
X179920574Y-139222465D01*
X178942579Y-139417000D01*
X105057422Y-139417000D01*
X104079425Y-139222465D01*
X103298998Y-138700999D01*
X102777535Y-137920574D01*
X102583000Y-136942579D01*
X102583000Y-135966220D01*
X106358400Y-135966220D01*
X106358400Y-137113780D01*
X106462807Y-137638669D01*
X106760132Y-138083648D01*
X107205111Y-138380973D01*
X107730000Y-138485380D01*
X108254889Y-138380973D01*
X108699868Y-138083648D01*
X108997193Y-137638669D01*
X109000000Y-137624557D01*
X109002807Y-137638669D01*
X109300132Y-138083648D01*
X109745111Y-138380973D01*
X110270000Y-138485380D01*
X110794889Y-138380973D01*
X111239868Y-138083648D01*
X111537193Y-137638669D01*
X111540000Y-137624557D01*
X111542807Y-137638669D01*
X111840132Y-138083648D01*
X112285111Y-138380973D01*
X112810000Y-138485380D01*
X113334889Y-138380973D01*
X113779868Y-138083648D01*
X114077193Y-137638669D01*
X114080000Y-137624557D01*
X114082807Y-137638669D01*
X114380132Y-138083648D01*
X114825111Y-138380973D01*
X115350000Y-138485380D01*
X115874889Y-138380973D01*
X116319868Y-138083648D01*
X116617193Y-137638669D01*
X116721600Y-137113780D01*
X116721600Y-136667000D01*
X118931400Y-136667000D01*
X118931400Y-137203400D01*
X119094075Y-137767222D01*
X119460132Y-138225873D01*
X119973843Y-138509527D01*
X120070974Y-138531358D01*
X120303000Y-138410217D01*
X120303000Y-136667000D01*
X120557000Y-136667000D01*
X120557000Y-138410217D01*
X120789026Y-138531358D01*
X120886157Y-138509527D01*
X121399868Y-138225873D01*
X121700000Y-137849823D01*
X122000132Y-138225873D01*
X122513843Y-138509527D01*
X122610974Y-138531358D01*
X122843000Y-138410217D01*
X122843000Y-136667000D01*
X120557000Y-136667000D01*
X120303000Y-136667000D01*
X118931400Y-136667000D01*
X116721600Y-136667000D01*
X116721600Y-135966220D01*
X116703774Y-135876600D01*
X118931400Y-135876600D01*
X118931400Y-136413000D01*
X120303000Y-136413000D01*
X120303000Y-134669783D01*
X120557000Y-134669783D01*
X120557000Y-136413000D01*
X122843000Y-136413000D01*
X122843000Y-134669783D01*
X123097000Y-134669783D01*
X123097000Y-136413000D01*
X123117000Y-136413000D01*
X123117000Y-136667000D01*
X123097000Y-136667000D01*
X123097000Y-138410217D01*
X123329026Y-138531358D01*
X123426157Y-138509527D01*
X123939868Y-138225873D01*
X124305925Y-137767222D01*
X124312794Y-137743413D01*
X124540132Y-138083648D01*
X124985111Y-138380973D01*
X125510000Y-138485380D01*
X126034889Y-138380973D01*
X126479868Y-138083648D01*
X126777193Y-137638669D01*
X126780000Y-137624557D01*
X126782807Y-137638669D01*
X127080132Y-138083648D01*
X127525111Y-138380973D01*
X128050000Y-138485380D01*
X128574889Y-138380973D01*
X129019868Y-138083648D01*
X129317193Y-137638669D01*
X129320000Y-137624557D01*
X129322807Y-137638669D01*
X129620132Y-138083648D01*
X130065111Y-138380973D01*
X130590000Y-138485380D01*
X131114889Y-138380973D01*
X131559868Y-138083648D01*
X131857193Y-137638669D01*
X131860000Y-137624557D01*
X131862807Y-137638669D01*
X132160132Y-138083648D01*
X132605111Y-138380973D01*
X133130000Y-138485380D01*
X133654889Y-138380973D01*
X134099868Y-138083648D01*
X134397193Y-137638669D01*
X134400000Y-137624557D01*
X134402807Y-137638669D01*
X134700132Y-138083648D01*
X135145111Y-138380973D01*
X135670000Y-138485380D01*
X136194889Y-138380973D01*
X136639868Y-138083648D01*
X136937193Y-137638669D01*
X136940000Y-137624557D01*
X136942807Y-137638669D01*
X137240132Y-138083648D01*
X137685111Y-138380973D01*
X138210000Y-138485380D01*
X138734889Y-138380973D01*
X139179868Y-138083648D01*
X139407206Y-137743413D01*
X139414075Y-137767222D01*
X139780132Y-138225873D01*
X140293843Y-138509527D01*
X140390974Y-138531358D01*
X140623000Y-138410217D01*
X140623000Y-136667000D01*
X140603000Y-136667000D01*
X140603000Y-136413000D01*
X140623000Y-136413000D01*
X140623000Y-134669783D01*
X140877000Y-134669783D01*
X140877000Y-136413000D01*
X140897000Y-136413000D01*
X140897000Y-136667000D01*
X140877000Y-136667000D01*
X140877000Y-138410217D01*
X141109026Y-138531358D01*
X141206157Y-138509527D01*
X141719868Y-138225873D01*
X142085925Y-137767222D01*
X142092794Y-137743413D01*
X142320132Y-138083648D01*
X142765111Y-138380973D01*
X143290000Y-138485380D01*
X143814889Y-138380973D01*
X144259868Y-138083648D01*
X144557193Y-137638669D01*
X144560000Y-137624557D01*
X144562807Y-137638669D01*
X144860132Y-138083648D01*
X145305111Y-138380973D01*
X145830000Y-138485380D01*
X146354889Y-138380973D01*
X146799868Y-138083648D01*
X147097193Y-137638669D01*
X147100000Y-137624557D01*
X147102807Y-137638669D01*
X147400132Y-138083648D01*
X147845111Y-138380973D01*
X148370000Y-138485380D01*
X148894889Y-138380973D01*
X149339868Y-138083648D01*
X149637193Y-137638669D01*
X149640000Y-137624557D01*
X149642807Y-137638669D01*
X149940132Y-138083648D01*
X150385111Y-138380973D01*
X150910000Y-138485380D01*
X151434889Y-138380973D01*
X151879868Y-138083648D01*
X152177193Y-137638669D01*
X152180000Y-137624557D01*
X152182807Y-137638669D01*
X152480132Y-138083648D01*
X152925111Y-138380973D01*
X153450000Y-138485380D01*
X153974889Y-138380973D01*
X154419868Y-138083648D01*
X154717193Y-137638669D01*
X154720000Y-137624557D01*
X154722807Y-137638669D01*
X155020132Y-138083648D01*
X155465111Y-138380973D01*
X155990000Y-138485380D01*
X156514889Y-138380973D01*
X156959868Y-138083648D01*
X157257193Y-137638669D01*
X157260000Y-137624557D01*
X157262807Y-137638669D01*
X157560132Y-138083648D01*
X158005111Y-138380973D01*
X158530000Y-138485380D01*
X159054889Y-138380973D01*
X159499868Y-138083648D01*
X159797193Y-137638669D01*
X159800000Y-137624557D01*
X159802807Y-137638669D01*
X160100132Y-138083648D01*
X160545111Y-138380973D01*
X161070000Y-138485380D01*
X161594889Y-138380973D01*
X162039868Y-138083648D01*
X162337193Y-137638669D01*
X162340000Y-137624557D01*
X162342807Y-137638669D01*
X162640132Y-138083648D01*
X163085111Y-138380973D01*
X163610000Y-138485380D01*
X164134889Y-138380973D01*
X164579868Y-138083648D01*
X164877193Y-137638669D01*
X164880000Y-137624557D01*
X164882807Y-137638669D01*
X165180132Y-138083648D01*
X165625111Y-138380973D01*
X166150000Y-138485380D01*
X166674889Y-138380973D01*
X167119868Y-138083648D01*
X167417193Y-137638669D01*
X167420000Y-137624557D01*
X167422807Y-137638669D01*
X167720132Y-138083648D01*
X168165111Y-138380973D01*
X168690000Y-138485380D01*
X169214889Y-138380973D01*
X169659868Y-138083648D01*
X169957193Y-137638669D01*
X169960000Y-137624557D01*
X169962807Y-137638669D01*
X170260132Y-138083648D01*
X170705111Y-138380973D01*
X171230000Y-138485380D01*
X171754889Y-138380973D01*
X172199868Y-138083648D01*
X172497193Y-137638669D01*
X172500000Y-137624557D01*
X172502807Y-137638669D01*
X172800132Y-138083648D01*
X173245111Y-138380973D01*
X173770000Y-138485380D01*
X174294889Y-138380973D01*
X174739868Y-138083648D01*
X175037193Y-137638669D01*
X175040000Y-137624557D01*
X175042807Y-137638669D01*
X175340132Y-138083648D01*
X175785111Y-138380973D01*
X176310000Y-138485380D01*
X176834889Y-138380973D01*
X177279868Y-138083648D01*
X177577193Y-137638669D01*
X177681600Y-137113780D01*
X177681600Y-135966220D01*
X177577193Y-135441331D01*
X177279868Y-134996352D01*
X176834889Y-134699027D01*
X176310000Y-134594620D01*
X175785111Y-134699027D01*
X175340132Y-134996352D01*
X175042807Y-135441331D01*
X175040000Y-135455443D01*
X175037193Y-135441331D01*
X174739868Y-134996352D01*
X174294889Y-134699027D01*
X173770000Y-134594620D01*
X173245111Y-134699027D01*
X172800132Y-134996352D01*
X172502807Y-135441331D01*
X172500000Y-135455443D01*
X172497193Y-135441331D01*
X172199868Y-134996352D01*
X171754889Y-134699027D01*
X171230000Y-134594620D01*
X170705111Y-134699027D01*
X170260132Y-134996352D01*
X169962807Y-135441331D01*
X169960000Y-135455443D01*
X169957193Y-135441331D01*
X169659868Y-134996352D01*
X169214889Y-134699027D01*
X168690000Y-134594620D01*
X168165111Y-134699027D01*
X167720132Y-134996352D01*
X167422807Y-135441331D01*
X167420000Y-135455443D01*
X167417193Y-135441331D01*
X167119868Y-134996352D01*
X166674889Y-134699027D01*
X166150000Y-134594620D01*
X165625111Y-134699027D01*
X165180132Y-134996352D01*
X164882807Y-135441331D01*
X164880000Y-135455443D01*
X164877193Y-135441331D01*
X164579868Y-134996352D01*
X164134889Y-134699027D01*
X163610000Y-134594620D01*
X163085111Y-134699027D01*
X162640132Y-134996352D01*
X162342807Y-135441331D01*
X162340000Y-135455443D01*
X162337193Y-135441331D01*
X162039868Y-134996352D01*
X161594889Y-134699027D01*
X161070000Y-134594620D01*
X160545111Y-134699027D01*
X160100132Y-134996352D01*
X159802807Y-135441331D01*
X159800000Y-135455443D01*
X159797193Y-135441331D01*
X159499868Y-134996352D01*
X159054889Y-134699027D01*
X158530000Y-134594620D01*
X158005111Y-134699027D01*
X157560132Y-134996352D01*
X157262807Y-135441331D01*
X157260000Y-135455443D01*
X157257193Y-135441331D01*
X156959868Y-134996352D01*
X156514889Y-134699027D01*
X155990000Y-134594620D01*
X155465111Y-134699027D01*
X155020132Y-134996352D01*
X154722807Y-135441331D01*
X154720000Y-135455443D01*
X154717193Y-135441331D01*
X154419868Y-134996352D01*
X153974889Y-134699027D01*
X153450000Y-134594620D01*
X152925111Y-134699027D01*
X152480132Y-134996352D01*
X152182807Y-135441331D01*
X152180000Y-135455443D01*
X152177193Y-135441331D01*
X151879868Y-134996352D01*
X151434889Y-134699027D01*
X150910000Y-134594620D01*
X150385111Y-134699027D01*
X149940132Y-134996352D01*
X149642807Y-135441331D01*
X149640000Y-135455443D01*
X149637193Y-135441331D01*
X149339868Y-134996352D01*
X148894889Y-134699027D01*
X148370000Y-134594620D01*
X147845111Y-134699027D01*
X147400132Y-134996352D01*
X147102807Y-135441331D01*
X147100000Y-135455443D01*
X147097193Y-135441331D01*
X146799868Y-134996352D01*
X146354889Y-134699027D01*
X145830000Y-134594620D01*
X145305111Y-134699027D01*
X144860132Y-134996352D01*
X144562807Y-135441331D01*
X144560000Y-135455443D01*
X144557193Y-135441331D01*
X144259868Y-134996352D01*
X143814889Y-134699027D01*
X143290000Y-134594620D01*
X142765111Y-134699027D01*
X142320132Y-134996352D01*
X142092794Y-135336587D01*
X142085925Y-135312778D01*
X141719868Y-134854127D01*
X141206157Y-134570473D01*
X141109026Y-134548642D01*
X140877000Y-134669783D01*
X140623000Y-134669783D01*
X140390974Y-134548642D01*
X140293843Y-134570473D01*
X139780132Y-134854127D01*
X139414075Y-135312778D01*
X139407206Y-135336587D01*
X139179868Y-134996352D01*
X138734889Y-134699027D01*
X138210000Y-134594620D01*
X137685111Y-134699027D01*
X137240132Y-134996352D01*
X136942807Y-135441331D01*
X136940000Y-135455443D01*
X136937193Y-135441331D01*
X136639868Y-134996352D01*
X136194889Y-134699027D01*
X135670000Y-134594620D01*
X135145111Y-134699027D01*
X134700132Y-134996352D01*
X134402807Y-135441331D01*
X134400000Y-135455443D01*
X134397193Y-135441331D01*
X134099868Y-134996352D01*
X133654889Y-134699027D01*
X133130000Y-134594620D01*
X132605111Y-134699027D01*
X132160132Y-134996352D01*
X131862807Y-135441331D01*
X131860000Y-135455443D01*
X131857193Y-135441331D01*
X131559868Y-134996352D01*
X131114889Y-134699027D01*
X130590000Y-134594620D01*
X130065111Y-134699027D01*
X129620132Y-134996352D01*
X129322807Y-135441331D01*
X129320000Y-135455443D01*
X129317193Y-135441331D01*
X129019868Y-134996352D01*
X128574889Y-134699027D01*
X128050000Y-134594620D01*
X127525111Y-134699027D01*
X127080132Y-134996352D01*
X126782807Y-135441331D01*
X126780000Y-135455443D01*
X126777193Y-135441331D01*
X126479868Y-134996352D01*
X126034889Y-134699027D01*
X125510000Y-134594620D01*
X124985111Y-134699027D01*
X124540132Y-134996352D01*
X124312794Y-135336587D01*
X124305925Y-135312778D01*
X123939868Y-134854127D01*
X123426157Y-134570473D01*
X123329026Y-134548642D01*
X123097000Y-134669783D01*
X122843000Y-134669783D01*
X122610974Y-134548642D01*
X122513843Y-134570473D01*
X122000132Y-134854127D01*
X121700000Y-135230177D01*
X121399868Y-134854127D01*
X120886157Y-134570473D01*
X120789026Y-134548642D01*
X120557000Y-134669783D01*
X120303000Y-134669783D01*
X120070974Y-134548642D01*
X119973843Y-134570473D01*
X119460132Y-134854127D01*
X119094075Y-135312778D01*
X118931400Y-135876600D01*
X116703774Y-135876600D01*
X116617193Y-135441331D01*
X116319868Y-134996352D01*
X115874889Y-134699027D01*
X115350000Y-134594620D01*
X114825111Y-134699027D01*
X114380132Y-134996352D01*
X114082807Y-135441331D01*
X114080000Y-135455443D01*
X114077193Y-135441331D01*
X113779868Y-134996352D01*
X113334889Y-134699027D01*
X112810000Y-134594620D01*
X112285111Y-134699027D01*
X111840132Y-134996352D01*
X111542807Y-135441331D01*
X111540000Y-135455443D01*
X111537193Y-135441331D01*
X111239868Y-134996352D01*
X110794889Y-134699027D01*
X110270000Y-134594620D01*
X109745111Y-134699027D01*
X109300132Y-134996352D01*
X109002807Y-135441331D01*
X109000000Y-135455443D01*
X108997193Y-135441331D01*
X108699868Y-134996352D01*
X108254889Y-134699027D01*
X107730000Y-134594620D01*
X107205111Y-134699027D01*
X106760132Y-134996352D01*
X106462807Y-135441331D01*
X106358400Y-135966220D01*
X102583000Y-135966220D01*
X102583000Y-130886220D01*
X106358400Y-130886220D01*
X106358400Y-132033780D01*
X106462807Y-132558669D01*
X106760132Y-133003648D01*
X107205111Y-133300973D01*
X107730000Y-133405380D01*
X108254889Y-133300973D01*
X108699868Y-133003648D01*
X108997193Y-132558669D01*
X109000000Y-132544557D01*
X109002807Y-132558669D01*
X109300132Y-133003648D01*
X109745111Y-133300973D01*
X110270000Y-133405380D01*
X110794889Y-133300973D01*
X111239868Y-133003648D01*
X111537193Y-132558669D01*
X111540000Y-132544557D01*
X111542807Y-132558669D01*
X111840132Y-133003648D01*
X112285111Y-133300973D01*
X112810000Y-133405380D01*
X113334889Y-133300973D01*
X113779868Y-133003648D01*
X114077193Y-132558669D01*
X114080000Y-132544557D01*
X114082807Y-132558669D01*
X114380132Y-133003648D01*
X114825111Y-133300973D01*
X115350000Y-133405380D01*
X115874889Y-133300973D01*
X116319868Y-133003648D01*
X116617193Y-132558669D01*
X116721600Y-132033780D01*
X116721600Y-130886220D01*
X116617193Y-130361331D01*
X116319868Y-129916352D01*
X115874889Y-129619027D01*
X115350000Y-129514620D01*
X114825111Y-129619027D01*
X114380132Y-129916352D01*
X114082807Y-130361331D01*
X114080000Y-130375443D01*
X114077193Y-130361331D01*
X113779868Y-129916352D01*
X113334889Y-129619027D01*
X112810000Y-129514620D01*
X112285111Y-129619027D01*
X111840132Y-129916352D01*
X111542807Y-130361331D01*
X111540000Y-130375443D01*
X111537193Y-130361331D01*
X111239868Y-129916352D01*
X110794889Y-129619027D01*
X110270000Y-129514620D01*
X109745111Y-129619027D01*
X109300132Y-129916352D01*
X109002807Y-130361331D01*
X109000000Y-130375443D01*
X108997193Y-130361331D01*
X108699868Y-129916352D01*
X108254889Y-129619027D01*
X107730000Y-129514620D01*
X107205111Y-129619027D01*
X106760132Y-129916352D01*
X106462807Y-130361331D01*
X106358400Y-130886220D01*
X102583000Y-130886220D01*
X102583000Y-123607468D01*
X104571635Y-123607468D01*
X104891883Y-124382526D01*
X105484355Y-124976033D01*
X106258853Y-125297633D01*
X107097468Y-125298365D01*
X107872526Y-124978117D01*
X108466033Y-124385645D01*
X108787633Y-123611147D01*
X108788365Y-122772532D01*
X108468117Y-121997474D01*
X107875645Y-121403967D01*
X107101147Y-121082367D01*
X106262532Y-121081635D01*
X105487474Y-121401883D01*
X104893967Y-121994355D01*
X104572367Y-122768853D01*
X104571635Y-123607468D01*
X102583000Y-123607468D01*
X102583000Y-89060016D01*
X118571860Y-89060016D01*
X118572000Y-89060355D01*
X118572000Y-126899821D01*
X118633505Y-127209030D01*
X118808658Y-127471163D01*
X119622000Y-128284505D01*
X119622000Y-129808195D01*
X119460132Y-129916352D01*
X119162807Y-130361331D01*
X119058400Y-130886220D01*
X119058400Y-132033780D01*
X119162807Y-132558669D01*
X119460132Y-133003648D01*
X119905111Y-133300973D01*
X120430000Y-133405380D01*
X120954889Y-133300973D01*
X121399868Y-133003648D01*
X121697193Y-132558669D01*
X121700000Y-132544557D01*
X121702807Y-132558669D01*
X122000132Y-133003648D01*
X122445111Y-133300973D01*
X122970000Y-133405380D01*
X123494889Y-133300973D01*
X123939868Y-133003648D01*
X124237193Y-132558669D01*
X124240000Y-132544557D01*
X124242807Y-132558669D01*
X124540132Y-133003648D01*
X124985111Y-133300973D01*
X125510000Y-133405380D01*
X126034889Y-133300973D01*
X126479868Y-133003648D01*
X126777193Y-132558669D01*
X126780000Y-132544557D01*
X126782807Y-132558669D01*
X127080132Y-133003648D01*
X127525111Y-133300973D01*
X128050000Y-133405380D01*
X128574889Y-133300973D01*
X129019868Y-133003648D01*
X129317193Y-132558669D01*
X129320000Y-132544557D01*
X129322807Y-132558669D01*
X129620132Y-133003648D01*
X130065111Y-133300973D01*
X130590000Y-133405380D01*
X131114889Y-133300973D01*
X131559868Y-133003648D01*
X131857193Y-132558669D01*
X131860000Y-132544557D01*
X131862807Y-132558669D01*
X132160132Y-133003648D01*
X132605111Y-133300973D01*
X133130000Y-133405380D01*
X133654889Y-133300973D01*
X134099868Y-133003648D01*
X134397193Y-132558669D01*
X134400000Y-132544557D01*
X134402807Y-132558669D01*
X134700132Y-133003648D01*
X135145111Y-133300973D01*
X135670000Y-133405380D01*
X136194889Y-133300973D01*
X136639868Y-133003648D01*
X136937193Y-132558669D01*
X136940000Y-132544557D01*
X136942807Y-132558669D01*
X137240132Y-133003648D01*
X137685111Y-133300973D01*
X138210000Y-133405380D01*
X138734889Y-133300973D01*
X139179868Y-133003648D01*
X139477193Y-132558669D01*
X139480000Y-132544557D01*
X139482807Y-132558669D01*
X139780132Y-133003648D01*
X140225111Y-133300973D01*
X140750000Y-133405380D01*
X141274889Y-133300973D01*
X141719868Y-133003648D01*
X142017193Y-132558669D01*
X142020000Y-132544557D01*
X142022807Y-132558669D01*
X142320132Y-133003648D01*
X142765111Y-133300973D01*
X143290000Y-133405380D01*
X143814889Y-133300973D01*
X144259868Y-133003648D01*
X144557193Y-132558669D01*
X144560000Y-132544557D01*
X144562807Y-132558669D01*
X144860132Y-133003648D01*
X145305111Y-133300973D01*
X145830000Y-133405380D01*
X146354889Y-133300973D01*
X146799868Y-133003648D01*
X147097193Y-132558669D01*
X147100000Y-132544557D01*
X147102807Y-132558669D01*
X147400132Y-133003648D01*
X147845111Y-133300973D01*
X148370000Y-133405380D01*
X148894889Y-133300973D01*
X149339868Y-133003648D01*
X149637193Y-132558669D01*
X149640000Y-132544557D01*
X149642807Y-132558669D01*
X149940132Y-133003648D01*
X150385111Y-133300973D01*
X150910000Y-133405380D01*
X151434889Y-133300973D01*
X151879868Y-133003648D01*
X152177193Y-132558669D01*
X152180000Y-132544557D01*
X152182807Y-132558669D01*
X152480132Y-133003648D01*
X152925111Y-133300973D01*
X153450000Y-133405380D01*
X153974889Y-133300973D01*
X154419868Y-133003648D01*
X154717193Y-132558669D01*
X154720000Y-132544557D01*
X154722807Y-132558669D01*
X155020132Y-133003648D01*
X155465111Y-133300973D01*
X155990000Y-133405380D01*
X156514889Y-133300973D01*
X156959868Y-133003648D01*
X157257193Y-132558669D01*
X157260000Y-132544557D01*
X157262807Y-132558669D01*
X157560132Y-133003648D01*
X158005111Y-133300973D01*
X158530000Y-133405380D01*
X159054889Y-133300973D01*
X159499868Y-133003648D01*
X159797193Y-132558669D01*
X159800000Y-132544557D01*
X159802807Y-132558669D01*
X160100132Y-133003648D01*
X160545111Y-133300973D01*
X161070000Y-133405380D01*
X161594889Y-133300973D01*
X162039868Y-133003648D01*
X162337193Y-132558669D01*
X162340000Y-132544557D01*
X162342807Y-132558669D01*
X162640132Y-133003648D01*
X163085111Y-133300973D01*
X163610000Y-133405380D01*
X164134889Y-133300973D01*
X164579868Y-133003648D01*
X164877193Y-132558669D01*
X164880000Y-132544557D01*
X164882807Y-132558669D01*
X165180132Y-133003648D01*
X165625111Y-133300973D01*
X166150000Y-133405380D01*
X166674889Y-133300973D01*
X167119868Y-133003648D01*
X167417193Y-132558669D01*
X167420000Y-132544557D01*
X167422807Y-132558669D01*
X167720132Y-133003648D01*
X168165111Y-133300973D01*
X168690000Y-133405380D01*
X169214889Y-133300973D01*
X169659868Y-133003648D01*
X169957193Y-132558669D01*
X169960000Y-132544557D01*
X169962807Y-132558669D01*
X170260132Y-133003648D01*
X170705111Y-133300973D01*
X171230000Y-133405380D01*
X171754889Y-133300973D01*
X172199868Y-133003648D01*
X172497193Y-132558669D01*
X172500000Y-132544557D01*
X172502807Y-132558669D01*
X172800132Y-133003648D01*
X173245111Y-133300973D01*
X173770000Y-133405380D01*
X174294889Y-133300973D01*
X174739868Y-133003648D01*
X175037193Y-132558669D01*
X175040000Y-132544557D01*
X175042807Y-132558669D01*
X175340132Y-133003648D01*
X175785111Y-133300973D01*
X176310000Y-133405380D01*
X176834889Y-133300973D01*
X177279868Y-133003648D01*
X177577193Y-132558669D01*
X177681600Y-132033780D01*
X177681600Y-130886220D01*
X177577193Y-130361331D01*
X177279868Y-129916352D01*
X176834889Y-129619027D01*
X176310000Y-129514620D01*
X175785111Y-129619027D01*
X175340132Y-129916352D01*
X175042807Y-130361331D01*
X175040000Y-130375443D01*
X175037193Y-130361331D01*
X174739868Y-129916352D01*
X174294889Y-129619027D01*
X173770000Y-129514620D01*
X173245111Y-129619027D01*
X172800132Y-129916352D01*
X172502807Y-130361331D01*
X172500000Y-130375443D01*
X172497193Y-130361331D01*
X172199868Y-129916352D01*
X171754889Y-129619027D01*
X171230000Y-129514620D01*
X170705111Y-129619027D01*
X170260132Y-129916352D01*
X169962807Y-130361331D01*
X169960000Y-130375443D01*
X169957193Y-130361331D01*
X169659868Y-129916352D01*
X169214889Y-129619027D01*
X168690000Y-129514620D01*
X168165111Y-129619027D01*
X167720132Y-129916352D01*
X167422807Y-130361331D01*
X167420000Y-130375443D01*
X167417193Y-130361331D01*
X167119868Y-129916352D01*
X166674889Y-129619027D01*
X166150000Y-129514620D01*
X165625111Y-129619027D01*
X165180132Y-129916352D01*
X164882807Y-130361331D01*
X164880000Y-130375443D01*
X164877193Y-130361331D01*
X164579868Y-129916352D01*
X164134889Y-129619027D01*
X163610000Y-129514620D01*
X163085111Y-129619027D01*
X162640132Y-129916352D01*
X162342807Y-130361331D01*
X162340000Y-130375443D01*
X162337193Y-130361331D01*
X162039868Y-129916352D01*
X161594889Y-129619027D01*
X161070000Y-129514620D01*
X160545111Y-129619027D01*
X160100132Y-129916352D01*
X159802807Y-130361331D01*
X159800000Y-130375443D01*
X159797193Y-130361331D01*
X159499868Y-129916352D01*
X159054889Y-129619027D01*
X158530000Y-129514620D01*
X158005111Y-129619027D01*
X157560132Y-129916352D01*
X157262807Y-130361331D01*
X157260000Y-130375443D01*
X157257193Y-130361331D01*
X156959868Y-129916352D01*
X156514889Y-129619027D01*
X155990000Y-129514620D01*
X155465111Y-129619027D01*
X155020132Y-129916352D01*
X154722807Y-130361331D01*
X154720000Y-130375443D01*
X154717193Y-130361331D01*
X154419868Y-129916352D01*
X153974889Y-129619027D01*
X153450000Y-129514620D01*
X152925111Y-129619027D01*
X152480132Y-129916352D01*
X152182807Y-130361331D01*
X152180000Y-130375443D01*
X152177193Y-130361331D01*
X151879868Y-129916352D01*
X151684000Y-129785477D01*
X151684000Y-125476000D01*
X151626968Y-125189278D01*
X151622495Y-125166791D01*
X151447342Y-124904658D01*
X150150152Y-123607468D01*
X175691635Y-123607468D01*
X176011883Y-124382526D01*
X176604355Y-124976033D01*
X177378853Y-125297633D01*
X178217468Y-125298365D01*
X178992526Y-124978117D01*
X179586033Y-124385645D01*
X179907633Y-123611147D01*
X179908365Y-122772532D01*
X179588117Y-121997474D01*
X178995645Y-121403967D01*
X178221147Y-121082367D01*
X177382532Y-121081635D01*
X176607474Y-121401883D01*
X176013967Y-121994355D01*
X175692367Y-122768853D01*
X175691635Y-123607468D01*
X150150152Y-123607468D01*
X147384127Y-120841443D01*
X147270293Y-120727410D01*
X146973426Y-120604140D01*
X146651984Y-120603860D01*
X146354903Y-120726611D01*
X146127410Y-120953707D01*
X146004140Y-121250574D01*
X146003860Y-121572016D01*
X146126611Y-121869097D01*
X146353707Y-122096590D01*
X146354047Y-122096731D01*
X150068000Y-125810684D01*
X150068000Y-129830913D01*
X149940132Y-129916352D01*
X149642807Y-130361331D01*
X149640000Y-130375443D01*
X149637193Y-130361331D01*
X149339868Y-129916352D01*
X148894889Y-129619027D01*
X148370000Y-129514620D01*
X147845111Y-129619027D01*
X147400132Y-129916352D01*
X147102807Y-130361331D01*
X147100000Y-130375443D01*
X147097193Y-130361331D01*
X146799868Y-129916352D01*
X146354889Y-129619027D01*
X145830000Y-129514620D01*
X145305111Y-129619027D01*
X144860132Y-129916352D01*
X144562807Y-130361331D01*
X144560000Y-130375443D01*
X144557193Y-130361331D01*
X144259868Y-129916352D01*
X143814889Y-129619027D01*
X143290000Y-129514620D01*
X142765111Y-129619027D01*
X142320132Y-129916352D01*
X142022807Y-130361331D01*
X142020000Y-130375443D01*
X142017193Y-130361331D01*
X141719868Y-129916352D01*
X141274889Y-129619027D01*
X140750000Y-129514620D01*
X140225111Y-129619027D01*
X139780132Y-129916352D01*
X139482807Y-130361331D01*
X139480000Y-130375443D01*
X139477193Y-130361331D01*
X139179868Y-129916352D01*
X138734889Y-129619027D01*
X138210000Y-129514620D01*
X137685111Y-129619027D01*
X137240132Y-129916352D01*
X136942807Y-130361331D01*
X136940000Y-130375443D01*
X136937193Y-130361331D01*
X136639868Y-129916352D01*
X136478000Y-129808195D01*
X136478000Y-126444492D01*
X136701707Y-126668590D01*
X136998574Y-126791860D01*
X137320016Y-126792140D01*
X137617097Y-126669389D01*
X137844590Y-126442293D01*
X137967860Y-126145426D01*
X137968140Y-125823984D01*
X137968000Y-125823645D01*
X137968000Y-110744705D01*
X137968140Y-110583984D01*
X137845389Y-110286903D01*
X137618293Y-110059410D01*
X137321426Y-109936140D01*
X136999984Y-109935860D01*
X136702903Y-110058611D01*
X136475410Y-110285707D01*
X136352140Y-110582574D01*
X136351860Y-110904016D01*
X136352000Y-110904355D01*
X136352000Y-111376988D01*
X136321389Y-111302903D01*
X136241459Y-111222834D01*
X136241342Y-111222658D01*
X136208127Y-111189443D01*
X136094293Y-111075410D01*
X135797426Y-110952140D01*
X135475984Y-110951860D01*
X135178903Y-111074611D01*
X134951410Y-111301707D01*
X134828140Y-111598574D01*
X134827860Y-111920016D01*
X134862000Y-112002641D01*
X134862000Y-129808195D01*
X134700132Y-129916352D01*
X134402807Y-130361331D01*
X134400000Y-130375443D01*
X134397193Y-130361331D01*
X134099868Y-129916352D01*
X133654889Y-129619027D01*
X133130000Y-129514620D01*
X132605111Y-129619027D01*
X132160132Y-129916352D01*
X131862807Y-130361331D01*
X131860000Y-130375443D01*
X131857193Y-130361331D01*
X131559868Y-129916352D01*
X131398000Y-129808195D01*
X131398000Y-119869552D01*
X131336495Y-119560344D01*
X131161342Y-119298210D01*
X128326160Y-116463028D01*
X128326160Y-78415614D01*
X128731584Y-78415614D01*
X128854335Y-78712695D01*
X129081431Y-78940188D01*
X129378298Y-79063458D01*
X129699740Y-79063738D01*
X129996821Y-78940987D01*
X130224314Y-78713891D01*
X130241016Y-78673668D01*
X137222557Y-71692127D01*
X137336590Y-71578293D01*
X137459860Y-71281426D01*
X137460140Y-70959984D01*
X137337389Y-70662903D01*
X137110293Y-70435410D01*
X136813426Y-70312140D01*
X136491984Y-70311860D01*
X136194903Y-70434611D01*
X135967410Y-70661707D01*
X135967269Y-70662047D01*
X128968382Y-77660934D01*
X128921585Y-77730970D01*
X128855134Y-77797305D01*
X128818810Y-77884782D01*
X128793229Y-77923067D01*
X128793229Y-77923068D01*
X128784325Y-77967832D01*
X128731864Y-78094172D01*
X128731744Y-78232177D01*
X128731724Y-78232276D01*
X128731724Y-78254893D01*
X128731584Y-78415614D01*
X128326160Y-78415614D01*
X128326160Y-73312016D01*
X128731860Y-73312016D01*
X128854611Y-73609097D01*
X129081707Y-73836590D01*
X129378574Y-73959860D01*
X129700016Y-73960140D01*
X129834330Y-73904643D01*
X129865237Y-73898495D01*
X129891209Y-73881141D01*
X129997097Y-73837389D01*
X130078900Y-73755729D01*
X130127370Y-73723342D01*
X136494713Y-67356000D01*
X136651295Y-67356000D01*
X136812016Y-67356140D01*
X137109097Y-67233389D01*
X137126500Y-67216016D01*
X146003860Y-67216016D01*
X146004000Y-67216355D01*
X146004000Y-104139295D01*
X146003860Y-104300016D01*
X146126611Y-104597097D01*
X146353707Y-104824590D01*
X146650574Y-104947860D01*
X146972016Y-104948140D01*
X147269097Y-104825389D01*
X147496590Y-104598293D01*
X147619860Y-104301426D01*
X147620140Y-103979984D01*
X147620000Y-103979645D01*
X147620000Y-101536658D01*
X147634887Y-101558937D01*
X147680124Y-101668420D01*
X147764557Y-101753000D01*
X147764658Y-101753152D01*
X147793954Y-101782449D01*
X147907220Y-101895913D01*
X148204087Y-102019183D01*
X148525529Y-102019463D01*
X148822610Y-101896712D01*
X148936854Y-101782667D01*
X148936856Y-101782666D01*
X148936857Y-101782664D01*
X149050103Y-101669616D01*
X149173373Y-101372749D01*
X149173653Y-101051307D01*
X149144000Y-100979541D01*
X149144000Y-65024705D01*
X149144140Y-64863984D01*
X149021389Y-64566903D01*
X148794293Y-64339410D01*
X148497426Y-64216140D01*
X148175984Y-64215860D01*
X147878903Y-64338611D01*
X147651410Y-64565707D01*
X147528140Y-64862574D01*
X147527860Y-65184016D01*
X147528000Y-65184355D01*
X147528000Y-66672988D01*
X147497389Y-66598903D01*
X147270293Y-66371410D01*
X146973426Y-66248140D01*
X146651984Y-66247860D01*
X146354903Y-66370611D01*
X146127410Y-66597707D01*
X146004140Y-66894574D01*
X146003860Y-67216016D01*
X137126500Y-67216016D01*
X137336590Y-67006293D01*
X137459860Y-66709426D01*
X137460140Y-66387984D01*
X137337389Y-66090903D01*
X137110293Y-65863410D01*
X136813426Y-65740140D01*
X136491984Y-65739860D01*
X136491645Y-65740000D01*
X136160028Y-65740000D01*
X135850820Y-65801505D01*
X135791399Y-65841209D01*
X135588685Y-65976658D01*
X129109879Y-72455465D01*
X129082903Y-72466611D01*
X128855410Y-72693707D01*
X128732140Y-72990574D01*
X128731860Y-73312016D01*
X128326160Y-73312016D01*
X128326160Y-68740016D01*
X128731860Y-68740016D01*
X128854611Y-69037097D01*
X129081707Y-69264590D01*
X129378574Y-69387860D01*
X129700016Y-69388140D01*
X129997097Y-69265389D01*
X130224590Y-69038293D01*
X130234066Y-69015472D01*
X136465538Y-62784000D01*
X136651295Y-62784000D01*
X136812016Y-62784140D01*
X137109097Y-62661389D01*
X137336590Y-62434293D01*
X137459860Y-62137426D01*
X137460140Y-61815984D01*
X137337389Y-61518903D01*
X137110293Y-61291410D01*
X136813426Y-61168140D01*
X136491984Y-61167860D01*
X136491645Y-61168000D01*
X136130854Y-61168000D01*
X135821645Y-61229505D01*
X135559512Y-61404658D01*
X128968658Y-67995512D01*
X128942281Y-68034987D01*
X128855410Y-68121707D01*
X128807924Y-68236065D01*
X128793505Y-68257645D01*
X128788486Y-68282878D01*
X128732140Y-68418574D01*
X128732011Y-68566799D01*
X128732000Y-68566854D01*
X128732000Y-68579295D01*
X128731860Y-68740016D01*
X128326160Y-68740016D01*
X128326160Y-57637468D01*
X128430485Y-57889954D01*
X128798110Y-58258222D01*
X129278681Y-58457772D01*
X129799036Y-58458226D01*
X130279954Y-58259515D01*
X130648222Y-57891890D01*
X130847772Y-57411319D01*
X130847999Y-57150000D01*
X143446375Y-57150000D01*
X143545941Y-57650550D01*
X143829479Y-58074896D01*
X144253825Y-58358434D01*
X144754375Y-58458000D01*
X144805625Y-58458000D01*
X145306175Y-58358434D01*
X145730521Y-58074896D01*
X146014059Y-57650550D01*
X146113625Y-57150000D01*
X146014059Y-56649450D01*
X145730521Y-56225104D01*
X145306175Y-55941566D01*
X144805625Y-55842000D01*
X144754375Y-55842000D01*
X144253825Y-55941566D01*
X143829479Y-56225104D01*
X143545941Y-56649450D01*
X143446375Y-57150000D01*
X130847999Y-57150000D01*
X130848226Y-56890964D01*
X130649515Y-56410046D01*
X130281890Y-56041778D01*
X129801319Y-55842228D01*
X129280964Y-55841774D01*
X128800046Y-56040485D01*
X128431778Y-56408110D01*
X128326160Y-56662467D01*
X128326160Y-55382160D01*
X128316036Y-55331263D01*
X128316140Y-55211984D01*
X128270189Y-55100774D01*
X128264655Y-55072952D01*
X128249033Y-55049572D01*
X128193389Y-54914903D01*
X128089537Y-54810870D01*
X128089502Y-54810817D01*
X128080085Y-54801401D01*
X127966293Y-54687410D01*
X127669426Y-54564140D01*
X127347984Y-54563860D01*
X127050903Y-54686611D01*
X126823410Y-54913707D01*
X126700140Y-55210574D01*
X126699860Y-55532016D01*
X126710160Y-55556944D01*
X126710160Y-116797712D01*
X126771665Y-117106921D01*
X126946818Y-117369054D01*
X129782000Y-120204236D01*
X129782000Y-129808195D01*
X129620132Y-129916352D01*
X129322807Y-130361331D01*
X129320000Y-130375443D01*
X129317193Y-130361331D01*
X129019868Y-129916352D01*
X128858000Y-129808195D01*
X128858000Y-121932237D01*
X128796495Y-121623029D01*
X128796495Y-121623028D01*
X128621342Y-121360895D01*
X126272570Y-119012123D01*
X126272570Y-55782210D01*
X126211065Y-55473002D01*
X126148462Y-55379310D01*
X126035913Y-55210868D01*
X125860934Y-55035890D01*
X125860932Y-55035887D01*
X125561716Y-54736672D01*
X125447883Y-54622640D01*
X125151016Y-54499370D01*
X124829574Y-54499090D01*
X124532493Y-54621841D01*
X124305000Y-54848937D01*
X124181730Y-55145804D01*
X124181450Y-55467246D01*
X124304201Y-55764327D01*
X124531297Y-55991820D01*
X124531637Y-55991961D01*
X124656570Y-56116895D01*
X124656570Y-119346807D01*
X124718075Y-119656016D01*
X124893228Y-119918149D01*
X127242000Y-122266921D01*
X127242000Y-129808195D01*
X127080132Y-129916352D01*
X126782807Y-130361331D01*
X126780000Y-130375443D01*
X126777193Y-130361331D01*
X126479868Y-129916352D01*
X126318000Y-129808195D01*
X126318000Y-123994921D01*
X126266699Y-123737013D01*
X126256495Y-123685712D01*
X126081342Y-123423579D01*
X124252000Y-121594237D01*
X124252000Y-75184705D01*
X124252140Y-75023984D01*
X124129389Y-74726903D01*
X123902293Y-74499410D01*
X123605426Y-74376140D01*
X123283984Y-74375860D01*
X122986903Y-74498611D01*
X122759410Y-74725707D01*
X122636140Y-75022574D01*
X122635860Y-75344016D01*
X122636000Y-75344355D01*
X122636000Y-121928921D01*
X122697505Y-122238130D01*
X122872658Y-122500263D01*
X124702000Y-124329605D01*
X124702000Y-129808195D01*
X124540132Y-129916352D01*
X124242807Y-130361331D01*
X124240000Y-130375443D01*
X124237193Y-130361331D01*
X123939868Y-129916352D01*
X123744000Y-129785477D01*
X123744000Y-125966783D01*
X123682495Y-125657575D01*
X123624375Y-125570593D01*
X123507342Y-125395440D01*
X122220000Y-124108099D01*
X122220000Y-81280705D01*
X122220140Y-81119984D01*
X122097389Y-80822903D01*
X121870293Y-80595410D01*
X121573426Y-80472140D01*
X121251984Y-80471860D01*
X120954903Y-80594611D01*
X120727410Y-80821707D01*
X120604140Y-81118574D01*
X120603860Y-81440016D01*
X120604000Y-81440355D01*
X120604000Y-124442783D01*
X120665505Y-124751992D01*
X120840658Y-125014125D01*
X122128000Y-126301468D01*
X122128000Y-129830913D01*
X122000132Y-129916352D01*
X121702807Y-130361331D01*
X121700000Y-130375443D01*
X121697193Y-130361331D01*
X121399868Y-129916352D01*
X121238000Y-129808195D01*
X121238000Y-127949821D01*
X121186699Y-127691913D01*
X121176495Y-127640612D01*
X121001342Y-127378479D01*
X120188000Y-126565137D01*
X120188000Y-88900705D01*
X120188140Y-88739984D01*
X120065389Y-88442903D01*
X119838293Y-88215410D01*
X119541426Y-88092140D01*
X119219984Y-88091860D01*
X118922903Y-88214611D01*
X118695410Y-88441707D01*
X118572140Y-88738574D01*
X118571860Y-89060016D01*
X102583000Y-89060016D01*
X102583000Y-60272925D01*
X111049650Y-60272925D01*
X111172401Y-60570006D01*
X111399497Y-60797499D01*
X111696364Y-60920769D01*
X112017806Y-60921049D01*
X112314887Y-60798298D01*
X112542380Y-60571202D01*
X112542521Y-60570862D01*
X112729132Y-60384252D01*
X112729134Y-60384249D01*
X114399382Y-58714001D01*
X118035592Y-58714001D01*
X118222987Y-59097408D01*
X118547456Y-59373808D01*
X118953000Y-59505000D01*
X119253000Y-59505000D01*
X119253000Y-58547000D01*
X119507000Y-58547000D01*
X119507000Y-59505000D01*
X119807000Y-59505000D01*
X120212544Y-59373808D01*
X120537013Y-59097408D01*
X120724408Y-58714001D01*
X120597502Y-58547000D01*
X119507000Y-58547000D01*
X119253000Y-58547000D01*
X118162498Y-58547000D01*
X118035592Y-58714001D01*
X114399382Y-58714001D01*
X114987384Y-58125999D01*
X118035592Y-58125999D01*
X118162498Y-58293000D01*
X119253000Y-58293000D01*
X119253000Y-58273000D01*
X119507000Y-58273000D01*
X119507000Y-58293000D01*
X120597502Y-58293000D01*
X120724408Y-58125999D01*
X120537013Y-57742592D01*
X120474378Y-57689236D01*
X120589723Y-57516611D01*
X120662646Y-57150000D01*
X120589723Y-56783389D01*
X120513247Y-56668936D01*
X120607145Y-56531512D01*
X120647952Y-56330000D01*
X120647952Y-55430000D01*
X120612530Y-55241747D01*
X120501272Y-55068847D01*
X120331512Y-54952855D01*
X120130000Y-54912048D01*
X118630000Y-54912048D01*
X118441747Y-54947470D01*
X118268847Y-55058728D01*
X118152855Y-55228488D01*
X118112048Y-55430000D01*
X118112048Y-56330000D01*
X118147470Y-56518253D01*
X118245570Y-56670705D01*
X118170277Y-56783389D01*
X118097354Y-57150000D01*
X118170277Y-57516611D01*
X118285622Y-57689236D01*
X118222987Y-57742592D01*
X118035592Y-58125999D01*
X114987384Y-58125999D01*
X121505384Y-51608000D01*
X155230000Y-51608000D01*
X155539209Y-51546495D01*
X155801342Y-51371342D01*
X159459718Y-47712967D01*
X159470751Y-47717548D01*
X160046722Y-47718051D01*
X160579041Y-47498101D01*
X160986669Y-47091184D01*
X161029833Y-46987234D01*
X161071899Y-47089041D01*
X161478816Y-47496669D01*
X162010751Y-47717548D01*
X162586722Y-47718051D01*
X163119041Y-47498101D01*
X163526669Y-47091184D01*
X163569833Y-46987234D01*
X163609670Y-47083645D01*
X158669316Y-52024000D01*
X150644815Y-52024000D01*
X150335606Y-52085505D01*
X150073473Y-52260658D01*
X148272658Y-54061473D01*
X148097505Y-54323606D01*
X148049716Y-54563860D01*
X148036000Y-54632815D01*
X148036000Y-59944000D01*
X148097505Y-60253209D01*
X148272658Y-60515342D01*
X151092000Y-63334685D01*
X151092000Y-63933462D01*
X151191566Y-64434012D01*
X151475104Y-64858358D01*
X151899450Y-65141896D01*
X152400000Y-65241462D01*
X152900550Y-65141896D01*
X153324896Y-64858358D01*
X153608434Y-64434012D01*
X153670000Y-64124500D01*
X153731566Y-64434012D01*
X154015104Y-64858358D01*
X154132000Y-64936465D01*
X154132000Y-65532000D01*
X154193505Y-65841209D01*
X154368658Y-66103342D01*
X155384658Y-67119342D01*
X155646791Y-67294495D01*
X155956000Y-67356000D01*
X161544000Y-67356000D01*
X161853209Y-67294495D01*
X162115342Y-67119342D01*
X163131342Y-66103342D01*
X163306495Y-65841209D01*
X163368000Y-65532000D01*
X163368000Y-64936465D01*
X163484896Y-64858358D01*
X163768434Y-64434012D01*
X163830000Y-64124500D01*
X163891566Y-64434012D01*
X164175104Y-64858358D01*
X164599450Y-65141896D01*
X165100000Y-65241462D01*
X165600550Y-65141896D01*
X166024896Y-64858358D01*
X166308434Y-64434012D01*
X166370000Y-64124500D01*
X166431566Y-64434012D01*
X166715104Y-64858358D01*
X166832000Y-64936465D01*
X166832000Y-91140876D01*
X144024790Y-113948086D01*
X144024787Y-113948088D01*
X143725572Y-114247304D01*
X143611540Y-114361137D01*
X143488270Y-114658004D01*
X143487990Y-114979446D01*
X143610741Y-115276527D01*
X143837837Y-115504020D01*
X144134704Y-115627290D01*
X144456146Y-115627570D01*
X144753227Y-115504819D01*
X144980720Y-115277723D01*
X144980861Y-115277383D01*
X145167472Y-115090773D01*
X145167474Y-115090770D01*
X166458522Y-93799722D01*
X169001834Y-93799722D01*
X169147374Y-94151954D01*
X169416628Y-94421679D01*
X169768606Y-94567833D01*
X170149722Y-94568166D01*
X170501954Y-94422626D01*
X170771679Y-94153372D01*
X170917833Y-93801394D01*
X170918166Y-93420278D01*
X170772626Y-93068046D01*
X170503372Y-92798321D01*
X170151394Y-92652167D01*
X169770278Y-92651834D01*
X169418046Y-92797374D01*
X169148321Y-93066628D01*
X169002167Y-93418606D01*
X169001834Y-93799722D01*
X166458522Y-93799722D01*
X168211342Y-92046902D01*
X168386495Y-91784769D01*
X168448000Y-91475560D01*
X168448000Y-64936465D01*
X168564896Y-64858358D01*
X168848434Y-64434012D01*
X168948000Y-63933462D01*
X168948000Y-63066538D01*
X168848434Y-62565988D01*
X168564896Y-62141642D01*
X168140550Y-61858104D01*
X167640000Y-61758538D01*
X167139450Y-61858104D01*
X166715104Y-62141642D01*
X166431566Y-62565988D01*
X166370000Y-62875500D01*
X166308434Y-62565988D01*
X166024896Y-62141642D01*
X165600550Y-61858104D01*
X165100000Y-61758538D01*
X164599450Y-61858104D01*
X164175104Y-62141642D01*
X163891566Y-62565988D01*
X163830000Y-62875500D01*
X163768434Y-62565988D01*
X163484896Y-62141642D01*
X163060550Y-61858104D01*
X162560000Y-61758538D01*
X162059450Y-61858104D01*
X161635104Y-62141642D01*
X161351566Y-62565988D01*
X161290000Y-62875500D01*
X161228434Y-62565988D01*
X160944896Y-62141642D01*
X160520550Y-61858104D01*
X160020000Y-61758538D01*
X159519450Y-61858104D01*
X159095104Y-62141642D01*
X158811566Y-62565988D01*
X158750000Y-62875500D01*
X158688434Y-62565988D01*
X158404896Y-62141642D01*
X158288000Y-62063535D01*
X158288000Y-61018712D01*
X158226495Y-60709504D01*
X158096760Y-60515342D01*
X158051342Y-60447369D01*
X155748000Y-58144028D01*
X155748000Y-57316465D01*
X155864896Y-57238358D01*
X156148434Y-56814012D01*
X156210000Y-56504500D01*
X156271566Y-56814012D01*
X156555104Y-57238358D01*
X156979450Y-57521896D01*
X157480000Y-57621462D01*
X157980550Y-57521896D01*
X158404896Y-57238358D01*
X158688434Y-56814012D01*
X158750000Y-56504500D01*
X158811566Y-56814012D01*
X159095104Y-57238358D01*
X159519450Y-57521896D01*
X160020000Y-57621462D01*
X160520550Y-57521896D01*
X160944896Y-57238358D01*
X161228434Y-56814012D01*
X161290000Y-56504500D01*
X161351566Y-56814012D01*
X161635104Y-57238358D01*
X162059450Y-57521896D01*
X162560000Y-57621462D01*
X163060550Y-57521896D01*
X163484896Y-57238358D01*
X163768434Y-56814012D01*
X163830000Y-56504500D01*
X163891566Y-56814012D01*
X164175104Y-57238358D01*
X164599450Y-57521896D01*
X165100000Y-57621462D01*
X165600550Y-57521896D01*
X166024896Y-57238358D01*
X166308434Y-56814012D01*
X166322048Y-56745570D01*
X166322048Y-57080000D01*
X166357470Y-57268253D01*
X166468728Y-57441153D01*
X166638488Y-57557145D01*
X166840000Y-57597952D01*
X168440000Y-57597952D01*
X168628253Y-57562530D01*
X168801153Y-57451272D01*
X168917145Y-57281512D01*
X168957952Y-57080000D01*
X168957952Y-54680000D01*
X168922530Y-54491747D01*
X168811272Y-54318847D01*
X168641512Y-54202855D01*
X168440000Y-54162048D01*
X166840000Y-54162048D01*
X166651747Y-54197470D01*
X166478847Y-54308728D01*
X166362855Y-54478488D01*
X166322048Y-54680000D01*
X166322048Y-55014430D01*
X166308434Y-54945988D01*
X166024896Y-54521642D01*
X165908000Y-54443535D01*
X165908000Y-52882477D01*
X166153777Y-52636700D01*
X177559296Y-52636700D01*
X177881225Y-52958630D01*
X177994487Y-53072090D01*
X178291354Y-53195360D01*
X178612796Y-53195640D01*
X178909877Y-53072889D01*
X179024121Y-52958844D01*
X179024123Y-52958843D01*
X179024124Y-52958841D01*
X179137370Y-52845793D01*
X179260640Y-52548926D01*
X179260920Y-52227484D01*
X179138169Y-51930403D01*
X178911073Y-51702910D01*
X178910734Y-51702769D01*
X178465322Y-51257358D01*
X178203189Y-51082205D01*
X177893980Y-51020700D01*
X173072276Y-51020700D01*
X173177097Y-50977389D01*
X173404590Y-50750293D01*
X173527860Y-50453426D01*
X173528140Y-50131984D01*
X173405389Y-49834903D01*
X173178293Y-49607410D01*
X172881426Y-49484140D01*
X172559984Y-49483860D01*
X172559645Y-49484000D01*
X167640705Y-49484000D01*
X167479984Y-49483860D01*
X167182903Y-49606611D01*
X166955410Y-49833707D01*
X166832140Y-50130574D01*
X166831860Y-50452016D01*
X166954611Y-50749097D01*
X167181707Y-50976590D01*
X167287936Y-51020700D01*
X165819093Y-51020700D01*
X165509884Y-51082205D01*
X165247751Y-51257358D01*
X164528658Y-51976451D01*
X164353505Y-52238584D01*
X164353505Y-52238585D01*
X164292000Y-52547793D01*
X164292000Y-54443535D01*
X164175104Y-54521642D01*
X163891566Y-54945988D01*
X163830000Y-55255500D01*
X163768434Y-54945988D01*
X163484896Y-54521642D01*
X163060550Y-54238104D01*
X162560000Y-54138538D01*
X162059450Y-54238104D01*
X161635104Y-54521642D01*
X161351566Y-54945988D01*
X161290000Y-55255500D01*
X161228434Y-54945988D01*
X160944896Y-54521642D01*
X160520550Y-54238104D01*
X160020000Y-54138538D01*
X159519450Y-54238104D01*
X159095104Y-54521642D01*
X158811566Y-54945988D01*
X158750000Y-55255500D01*
X158688434Y-54945988D01*
X158404896Y-54521642D01*
X157980550Y-54238104D01*
X157480000Y-54138538D01*
X156979450Y-54238104D01*
X156555104Y-54521642D01*
X156271566Y-54945988D01*
X156210000Y-55255500D01*
X156148434Y-54945988D01*
X155864896Y-54521642D01*
X155440550Y-54238104D01*
X154940000Y-54138538D01*
X154439450Y-54238104D01*
X154015104Y-54521642D01*
X153731566Y-54945988D01*
X153725235Y-54977818D01*
X153677166Y-54813517D01*
X153324896Y-54375500D01*
X152831819Y-54105633D01*
X152749039Y-54088096D01*
X152527000Y-54210085D01*
X152527000Y-55753000D01*
X152547000Y-55753000D01*
X152547000Y-56007000D01*
X152527000Y-56007000D01*
X152527000Y-57549915D01*
X152749039Y-57671904D01*
X152831819Y-57654367D01*
X153324896Y-57384500D01*
X153677166Y-56946483D01*
X153725235Y-56782182D01*
X153731566Y-56814012D01*
X154015104Y-57238358D01*
X154132000Y-57316465D01*
X154132000Y-58478712D01*
X154193505Y-58787921D01*
X154368658Y-59050054D01*
X156672000Y-61353397D01*
X156672000Y-62063535D01*
X156555104Y-62141642D01*
X156271566Y-62565988D01*
X156210000Y-62875500D01*
X156148434Y-62565988D01*
X155864896Y-62141642D01*
X155440550Y-61858104D01*
X154940000Y-61758538D01*
X154439450Y-61858104D01*
X154015104Y-62141642D01*
X153731566Y-62565988D01*
X153670000Y-62875500D01*
X153608434Y-62565988D01*
X153324896Y-62141642D01*
X152900550Y-61858104D01*
X152400000Y-61758538D01*
X151900567Y-61857882D01*
X149652000Y-59609316D01*
X149652000Y-56007000D01*
X150965000Y-56007000D01*
X150965000Y-56407000D01*
X151122834Y-56946483D01*
X151475104Y-57384500D01*
X151968181Y-57654367D01*
X152050961Y-57671904D01*
X152273000Y-57549915D01*
X152273000Y-56007000D01*
X150965000Y-56007000D01*
X149652000Y-56007000D01*
X149652000Y-55353000D01*
X150965000Y-55353000D01*
X150965000Y-55753000D01*
X152273000Y-55753000D01*
X152273000Y-54210085D01*
X152050961Y-54088096D01*
X151968181Y-54105633D01*
X151475104Y-54375500D01*
X151122834Y-54813517D01*
X150965000Y-55353000D01*
X149652000Y-55353000D01*
X149652000Y-54967499D01*
X150979499Y-53640000D01*
X159004000Y-53640000D01*
X159313209Y-53578495D01*
X159575342Y-53403342D01*
X165354926Y-47623759D01*
X165659041Y-47498101D01*
X166066669Y-47091184D01*
X166109833Y-46987234D01*
X166151899Y-47089041D01*
X166558816Y-47496669D01*
X167090751Y-47717548D01*
X167666722Y-47718051D01*
X168199041Y-47498101D01*
X168606669Y-47091184D01*
X168827548Y-46559249D01*
X168828051Y-45983278D01*
X168608101Y-45450959D01*
X168228274Y-45070468D01*
X168299380Y-44867468D01*
X175691635Y-44867468D01*
X176011883Y-45642526D01*
X176604355Y-46236033D01*
X177378853Y-46557633D01*
X178217468Y-46558365D01*
X178992526Y-46238117D01*
X179586033Y-45645645D01*
X179907633Y-44871147D01*
X179908365Y-44032532D01*
X179588117Y-43257474D01*
X178995645Y-42663967D01*
X178221147Y-42342367D01*
X177382532Y-42341635D01*
X176607474Y-42661883D01*
X176013967Y-43254355D01*
X175692367Y-44028853D01*
X175691635Y-44867468D01*
X168299380Y-44867468D01*
X168309363Y-44838968D01*
X167380000Y-43909605D01*
X166450637Y-44838968D01*
X166531885Y-45070922D01*
X166153331Y-45448816D01*
X166110167Y-45552766D01*
X166068101Y-45450959D01*
X165661184Y-45043331D01*
X165557234Y-45000167D01*
X165659041Y-44958101D01*
X166039532Y-44578274D01*
X166271032Y-44659363D01*
X167200395Y-43730000D01*
X167559605Y-43730000D01*
X168488968Y-44659363D01*
X168749580Y-44568077D01*
X168966045Y-43980167D01*
X168941049Y-43354172D01*
X168749580Y-42891923D01*
X168488968Y-42800637D01*
X167559605Y-43730000D01*
X167200395Y-43730000D01*
X166271032Y-42800637D01*
X166039078Y-42881885D01*
X165778680Y-42621032D01*
X166450637Y-42621032D01*
X167380000Y-43550395D01*
X168309363Y-42621032D01*
X168218077Y-42360420D01*
X167630167Y-42143955D01*
X167004172Y-42168951D01*
X166541923Y-42360420D01*
X166450637Y-42621032D01*
X165778680Y-42621032D01*
X165661184Y-42503331D01*
X165129249Y-42282452D01*
X164553278Y-42281949D01*
X164020959Y-42501899D01*
X163613331Y-42908816D01*
X163570167Y-43012766D01*
X163528101Y-42910959D01*
X163121184Y-42503331D01*
X162589249Y-42282452D01*
X162013278Y-42281949D01*
X161480959Y-42501899D01*
X161073331Y-42908816D01*
X161030167Y-43012766D01*
X160988101Y-42910959D01*
X160581184Y-42503331D01*
X160049249Y-42282452D01*
X159473278Y-42281949D01*
X158940959Y-42501899D01*
X158533331Y-42908816D01*
X158490167Y-43012766D01*
X158448101Y-42910959D01*
X158041184Y-42503331D01*
X157509249Y-42282452D01*
X156933278Y-42281949D01*
X156400959Y-42501899D01*
X156020468Y-42881726D01*
X155788968Y-42800637D01*
X154859605Y-43730000D01*
X155788968Y-44659363D01*
X156020922Y-44578115D01*
X156398816Y-44956669D01*
X156502766Y-44999833D01*
X156400959Y-45041899D01*
X155993331Y-45448816D01*
X155950167Y-45552766D01*
X155908101Y-45450959D01*
X155528274Y-45070468D01*
X155609363Y-44838968D01*
X154680000Y-43909605D01*
X153750637Y-44838968D01*
X153831885Y-45070922D01*
X153453331Y-45448816D01*
X153410167Y-45552766D01*
X153368101Y-45450959D01*
X152961184Y-45043331D01*
X152857234Y-45000167D01*
X152959041Y-44958101D01*
X153339532Y-44578274D01*
X153571032Y-44659363D01*
X154500395Y-43730000D01*
X153571032Y-42800637D01*
X153339078Y-42881885D01*
X153078680Y-42621032D01*
X153750637Y-42621032D01*
X154680000Y-43550395D01*
X155609363Y-42621032D01*
X155518077Y-42360420D01*
X154930167Y-42143955D01*
X154304172Y-42168951D01*
X153841923Y-42360420D01*
X153750637Y-42621032D01*
X153078680Y-42621032D01*
X152961184Y-42503331D01*
X152429249Y-42282452D01*
X151853278Y-42281949D01*
X151320959Y-42501899D01*
X150940468Y-42881726D01*
X150708968Y-42800637D01*
X149779605Y-43730000D01*
X150708968Y-44659363D01*
X150940922Y-44578115D01*
X151318816Y-44956669D01*
X151422766Y-44999833D01*
X151320959Y-45041899D01*
X150913331Y-45448816D01*
X150870167Y-45552766D01*
X150828101Y-45450959D01*
X150448274Y-45070468D01*
X150529363Y-44838968D01*
X149600000Y-43909605D01*
X148670637Y-44838968D01*
X148751885Y-45070922D01*
X148373331Y-45448816D01*
X148330167Y-45552766D01*
X148288101Y-45450959D01*
X147908274Y-45070468D01*
X147989363Y-44838968D01*
X147060000Y-43909605D01*
X146130637Y-44838968D01*
X146211885Y-45070922D01*
X145833331Y-45448816D01*
X145790167Y-45552766D01*
X145748101Y-45450959D01*
X145368274Y-45070468D01*
X145449363Y-44838968D01*
X144520000Y-43909605D01*
X143590637Y-44838968D01*
X143671885Y-45070922D01*
X143320468Y-45421726D01*
X143088968Y-45340637D01*
X142159605Y-46270000D01*
X143088968Y-47199363D01*
X143320922Y-47118115D01*
X143698816Y-47496669D01*
X144230751Y-47717548D01*
X144806722Y-47718051D01*
X145339041Y-47498101D01*
X145746669Y-47091184D01*
X145789833Y-46987234D01*
X145831899Y-47089041D01*
X146238816Y-47496669D01*
X146770751Y-47717548D01*
X147346722Y-47718051D01*
X147879041Y-47498101D01*
X148286669Y-47091184D01*
X148329833Y-46987234D01*
X148371899Y-47089041D01*
X148729773Y-47447540D01*
X148272658Y-47904656D01*
X148097505Y-48166789D01*
X148072730Y-48291341D01*
X148036000Y-48475998D01*
X148036000Y-48767295D01*
X148035860Y-48928016D01*
X148158611Y-49225097D01*
X148385707Y-49452590D01*
X148682574Y-49575860D01*
X149004016Y-49576140D01*
X149301097Y-49453389D01*
X149528590Y-49226293D01*
X149651860Y-48929426D01*
X149651963Y-48810719D01*
X150171342Y-48291341D01*
X150346494Y-48029207D01*
X150346495Y-48029206D01*
X150408000Y-47719998D01*
X150408000Y-47502663D01*
X150419041Y-47498101D01*
X150826669Y-47091184D01*
X150869833Y-46987234D01*
X150911899Y-47089041D01*
X151318816Y-47496669D01*
X151850751Y-47717548D01*
X152426722Y-47718051D01*
X152959041Y-47498101D01*
X153366669Y-47091184D01*
X153409833Y-46987234D01*
X153451899Y-47089041D01*
X153858816Y-47496669D01*
X154390751Y-47717548D01*
X154966722Y-47718051D01*
X155499041Y-47498101D01*
X155906669Y-47091184D01*
X155949833Y-46987234D01*
X155991899Y-47089041D01*
X156398816Y-47496669D01*
X156930751Y-47717548D01*
X157169559Y-47717757D01*
X154895316Y-49992000D01*
X121170699Y-49992000D01*
X120861491Y-50053505D01*
X120750551Y-50127632D01*
X122231343Y-48646841D01*
X122406495Y-48384707D01*
X122468000Y-48075499D01*
X122468000Y-47502663D01*
X122479041Y-47498101D01*
X122886669Y-47091184D01*
X122929833Y-46987234D01*
X122971899Y-47089041D01*
X123378816Y-47496669D01*
X123910751Y-47717548D01*
X124486722Y-47718051D01*
X125019041Y-47498101D01*
X125426669Y-47091184D01*
X125469833Y-46987234D01*
X125511899Y-47089041D01*
X125918816Y-47496669D01*
X126450751Y-47717548D01*
X127026722Y-47718051D01*
X127559041Y-47498101D01*
X127966669Y-47091184D01*
X128009833Y-46987234D01*
X128051899Y-47089041D01*
X128458816Y-47496669D01*
X128990751Y-47717548D01*
X129566722Y-47718051D01*
X130099041Y-47498101D01*
X130506669Y-47091184D01*
X130549833Y-46987234D01*
X130591899Y-47089041D01*
X130998816Y-47496669D01*
X131530751Y-47717548D01*
X132106722Y-47718051D01*
X132639041Y-47498101D01*
X133046669Y-47091184D01*
X133089833Y-46987234D01*
X133131899Y-47089041D01*
X133538816Y-47496669D01*
X134070751Y-47717548D01*
X134646722Y-47718051D01*
X135179041Y-47498101D01*
X135586669Y-47091184D01*
X135629833Y-46987234D01*
X135671899Y-47089041D01*
X136078816Y-47496669D01*
X136610751Y-47717548D01*
X137186722Y-47718051D01*
X137719041Y-47498101D01*
X138126669Y-47091184D01*
X138169833Y-46987234D01*
X138211899Y-47089041D01*
X138618816Y-47496669D01*
X139150751Y-47717548D01*
X139726722Y-47718051D01*
X140259041Y-47498101D01*
X140378382Y-47378968D01*
X141050637Y-47378968D01*
X141141923Y-47639580D01*
X141729833Y-47856045D01*
X142355828Y-47831049D01*
X142818077Y-47639580D01*
X142909363Y-47378968D01*
X141980000Y-46449605D01*
X141050637Y-47378968D01*
X140378382Y-47378968D01*
X140639532Y-47118274D01*
X140871032Y-47199363D01*
X141800395Y-46270000D01*
X140871032Y-45340637D01*
X140639078Y-45421885D01*
X140261184Y-45043331D01*
X140157234Y-45000167D01*
X140259041Y-44958101D01*
X140666669Y-44551184D01*
X140709833Y-44447234D01*
X140751899Y-44549041D01*
X141131726Y-44929532D01*
X141050637Y-45161032D01*
X141980000Y-46090395D01*
X142909363Y-45161032D01*
X142828115Y-44929078D01*
X143179532Y-44578274D01*
X143411032Y-44659363D01*
X144340395Y-43730000D01*
X144699605Y-43730000D01*
X145628968Y-44659363D01*
X145790000Y-44602957D01*
X145951032Y-44659363D01*
X146880395Y-43730000D01*
X147239605Y-43730000D01*
X148168968Y-44659363D01*
X148330000Y-44602957D01*
X148491032Y-44659363D01*
X149420395Y-43730000D01*
X148491032Y-42800637D01*
X148330000Y-42857043D01*
X148168968Y-42800637D01*
X147239605Y-43730000D01*
X146880395Y-43730000D01*
X145951032Y-42800637D01*
X145790000Y-42857043D01*
X145628968Y-42800637D01*
X144699605Y-43730000D01*
X144340395Y-43730000D01*
X143411032Y-42800637D01*
X143179078Y-42881885D01*
X142918680Y-42621032D01*
X143590637Y-42621032D01*
X144520000Y-43550395D01*
X145449363Y-42621032D01*
X146130637Y-42621032D01*
X147060000Y-43550395D01*
X147989363Y-42621032D01*
X148670637Y-42621032D01*
X149600000Y-43550395D01*
X150529363Y-42621032D01*
X150438077Y-42360420D01*
X149850167Y-42143955D01*
X149224172Y-42168951D01*
X148761923Y-42360420D01*
X148670637Y-42621032D01*
X147989363Y-42621032D01*
X147898077Y-42360420D01*
X147310167Y-42143955D01*
X146684172Y-42168951D01*
X146221923Y-42360420D01*
X146130637Y-42621032D01*
X145449363Y-42621032D01*
X145358077Y-42360420D01*
X144770167Y-42143955D01*
X144144172Y-42168951D01*
X143681923Y-42360420D01*
X143590637Y-42621032D01*
X142918680Y-42621032D01*
X142801184Y-42503331D01*
X142269249Y-42282452D01*
X141693278Y-42281949D01*
X141160959Y-42501899D01*
X140753331Y-42908816D01*
X140710167Y-43012766D01*
X140668101Y-42910959D01*
X140261184Y-42503331D01*
X139729249Y-42282452D01*
X139153278Y-42281949D01*
X138620959Y-42501899D01*
X138213331Y-42908816D01*
X138170167Y-43012766D01*
X138128101Y-42910959D01*
X137721184Y-42503331D01*
X137189249Y-42282452D01*
X136613278Y-42281949D01*
X136080959Y-42501899D01*
X135673331Y-42908816D01*
X135630167Y-43012766D01*
X135588101Y-42910959D01*
X135181184Y-42503331D01*
X134649249Y-42282452D01*
X134073278Y-42281949D01*
X133540959Y-42501899D01*
X133133331Y-42908816D01*
X133090167Y-43012766D01*
X133048101Y-42910959D01*
X132641184Y-42503331D01*
X132109249Y-42282452D01*
X131533278Y-42281949D01*
X131000959Y-42501899D01*
X130593331Y-42908816D01*
X130550167Y-43012766D01*
X130508101Y-42910959D01*
X130101184Y-42503331D01*
X129569249Y-42282452D01*
X128993278Y-42281949D01*
X128460959Y-42501899D01*
X128053331Y-42908816D01*
X128010167Y-43012766D01*
X127968101Y-42910959D01*
X127561184Y-42503331D01*
X127029249Y-42282452D01*
X126453278Y-42281949D01*
X125920959Y-42501899D01*
X125513331Y-42908816D01*
X125470167Y-43012766D01*
X125428101Y-42910959D01*
X125021184Y-42503331D01*
X124489249Y-42282452D01*
X123913278Y-42281949D01*
X123380959Y-42501899D01*
X122973331Y-42908816D01*
X122930167Y-43012766D01*
X122888101Y-42910959D01*
X122481184Y-42503331D01*
X121949249Y-42282452D01*
X121373278Y-42281949D01*
X120840959Y-42501899D01*
X120460468Y-42881726D01*
X120228968Y-42800637D01*
X119299605Y-43730000D01*
X119313748Y-43744143D01*
X119134143Y-43923748D01*
X119120000Y-43909605D01*
X119105858Y-43923748D01*
X118926253Y-43744143D01*
X118940395Y-43730000D01*
X118011032Y-42800637D01*
X117750420Y-42891923D01*
X117533955Y-43479833D01*
X117558951Y-44105828D01*
X117750420Y-44568077D01*
X118011030Y-44659362D01*
X117896588Y-44773804D01*
X117978869Y-44856085D01*
X117819047Y-44958928D01*
X117703055Y-45128688D01*
X117662248Y-45330200D01*
X117662248Y-47209800D01*
X117697670Y-47398053D01*
X117808928Y-47570953D01*
X117978688Y-47686945D01*
X118180200Y-47727752D01*
X120059800Y-47727752D01*
X120248053Y-47692330D01*
X120420953Y-47581072D01*
X120536945Y-47411312D01*
X120573484Y-47230874D01*
X120838816Y-47496669D01*
X120852000Y-47502143D01*
X120852000Y-47740814D01*
X115442169Y-53150646D01*
X115442166Y-53150648D01*
X115142951Y-53449864D01*
X115028919Y-53563697D01*
X114905649Y-53860564D01*
X114905369Y-54182006D01*
X115028120Y-54479087D01*
X115255216Y-54706580D01*
X115552083Y-54829850D01*
X115873525Y-54830130D01*
X116085450Y-54742565D01*
X111586450Y-59241565D01*
X111586447Y-59241567D01*
X111287232Y-59540783D01*
X111173200Y-59654616D01*
X111049930Y-59951483D01*
X111049650Y-60272925D01*
X102583000Y-60272925D01*
X102583000Y-44867468D01*
X104571635Y-44867468D01*
X104891883Y-45642526D01*
X105484355Y-46236033D01*
X106258853Y-46557633D01*
X107097468Y-46558365D01*
X107872526Y-46238117D01*
X108466033Y-45645645D01*
X108787633Y-44871147D01*
X108788365Y-44032532D01*
X108468117Y-43257474D01*
X107875645Y-42663967D01*
X107772247Y-42621032D01*
X118190637Y-42621032D01*
X119120000Y-43550395D01*
X120049363Y-42621032D01*
X119958077Y-42360420D01*
X119370167Y-42143955D01*
X118744172Y-42168951D01*
X118281923Y-42360420D01*
X118190637Y-42621032D01*
X107772247Y-42621032D01*
X107101147Y-42342367D01*
X106262532Y-42341635D01*
X105487474Y-42661883D01*
X104893967Y-43254355D01*
X104572367Y-44028853D01*
X104571635Y-44867468D01*
X102583000Y-44867468D01*
X102583000Y-43057421D01*
X102777535Y-42079426D01*
X103298998Y-41299001D01*
X104079425Y-40777535D01*
X105057422Y-40583000D01*
X178942579Y-40583000D01*
X179920574Y-40777535D01*
M02*
