G04 #@! TF.FileFunction,Soldermask,Top*
%FSLAX46Y46*%
G04 Gerber Fmt 4.6, Leading zero omitted, Abs format (unit mm)*
G04 Created by KiCad (PCBNEW 4.0.5) date 06/12/17 14:20:53*
%MOMM*%
%LPD*%
G01*
G04 APERTURE LIST*
%ADD10C,0.100000*%
%ADD11O,2.127200X3.200000*%
%ADD12R,2.279600X2.279600*%
%ADD13C,2.279600*%
%ADD14O,1.900000X1.300000*%
%ADD15R,1.900000X1.300000*%
%ADD16C,2.000000*%
%ADD17O,2.000000X2.000000*%
%ADD18R,2.000000X2.800000*%
%ADD19O,2.000000X2.800000*%
%ADD20C,0.880000*%
%ADD21C,3.600000*%
G04 APERTURE END LIST*
D10*
D11*
X176310000Y-136540000D03*
X173770000Y-136540000D03*
X171230000Y-136540000D03*
X168690000Y-136540000D03*
X166150000Y-136540000D03*
X163610000Y-136540000D03*
X161070000Y-136540000D03*
X158530000Y-136540000D03*
X176310000Y-131460000D03*
X173770000Y-131460000D03*
X171230000Y-131460000D03*
X168690000Y-131460000D03*
X166150000Y-131460000D03*
X163610000Y-131460000D03*
X161070000Y-131460000D03*
X158530000Y-131460000D03*
X107730000Y-131460000D03*
X107730000Y-136540000D03*
X110270000Y-131460000D03*
X110270000Y-136540000D03*
X112810000Y-131460000D03*
X112810000Y-136540000D03*
X115350000Y-131460000D03*
X115350000Y-136540000D03*
X120430000Y-131460000D03*
X120430000Y-136540000D03*
X122970000Y-131460000D03*
X122970000Y-136540000D03*
X125510000Y-131460000D03*
X125510000Y-136540000D03*
X128050000Y-131460000D03*
X128050000Y-136540000D03*
X130590000Y-131460000D03*
X130590000Y-136540000D03*
X133130000Y-131460000D03*
X133130000Y-136540000D03*
X135670000Y-131460000D03*
X135670000Y-136540000D03*
X138210000Y-131460000D03*
X138210000Y-136540000D03*
X140750000Y-131460000D03*
X140750000Y-136540000D03*
X143290000Y-131460000D03*
X143290000Y-136540000D03*
X145830000Y-131460000D03*
X145830000Y-136540000D03*
X148370000Y-131460000D03*
X148370000Y-136540000D03*
X150910000Y-131460000D03*
X150910000Y-136540000D03*
X153450000Y-131460000D03*
X153450000Y-136540000D03*
X155990000Y-131460000D03*
X155990000Y-136540000D03*
D12*
X119120000Y-46270000D03*
D13*
X119120000Y-43730000D03*
X121660000Y-46270000D03*
X121660000Y-43730000D03*
X124200000Y-46270000D03*
X124200000Y-43730000D03*
X126740000Y-46270000D03*
X126740000Y-43730000D03*
X129280000Y-46270000D03*
X129280000Y-43730000D03*
X131820000Y-46270000D03*
X131820000Y-43730000D03*
X134360000Y-46270000D03*
X134360000Y-43730000D03*
X136900000Y-46270000D03*
X136900000Y-43730000D03*
X139440000Y-46270000D03*
X139440000Y-43730000D03*
X141980000Y-46270000D03*
X141980000Y-43730000D03*
X144520000Y-46270000D03*
X144520000Y-43730000D03*
X147060000Y-46270000D03*
X147060000Y-43730000D03*
X149600000Y-46270000D03*
X149600000Y-43730000D03*
X152140000Y-46270000D03*
X152140000Y-43730000D03*
X154680000Y-46270000D03*
X154680000Y-43730000D03*
X157220000Y-46270000D03*
X157220000Y-43730000D03*
X159760000Y-46270000D03*
X159760000Y-43730000D03*
X162300000Y-46270000D03*
X162300000Y-43730000D03*
X164840000Y-46270000D03*
X164840000Y-43730000D03*
X167380000Y-46270000D03*
X167380000Y-43730000D03*
D14*
X119380000Y-57150000D03*
X119380000Y-58420000D03*
D15*
X119380000Y-55880000D03*
D16*
X129540000Y-57150000D03*
D17*
X144780000Y-57150000D03*
D18*
X167640000Y-55880000D03*
D19*
X152400000Y-63500000D03*
X165100000Y-55880000D03*
X154940000Y-63500000D03*
X162560000Y-55880000D03*
X157480000Y-63500000D03*
X160020000Y-55880000D03*
X160020000Y-63500000D03*
X157480000Y-55880000D03*
X162560000Y-63500000D03*
X154940000Y-55880000D03*
X165100000Y-63500000D03*
X152400000Y-55880000D03*
X167640000Y-63500000D03*
D20*
X169960000Y-93610000D03*
D21*
X106680000Y-44450000D03*
X177800000Y-44450000D03*
X106680000Y-123190000D03*
X177800000Y-123190000D03*
M02*
