M48
;DRILL file {KiCad 4.0.5} date 06/12/17 14:20:58
;FORMAT={-:-/ absolute / inch / decimal}
FMAT,2
INCH,TZ
T1C0.016
T2C0.024
T3C0.031
T4C0.040
T5C0.047
%
G90
G05
M72
T1
X4.4039Y-2.3666
X4.5556Y-2.1269
X4.7Y-3.5
X4.78Y-3.2
X4.86Y-2.96
X4.9208Y-2.1774
X5.02Y-2.18
X5.1Y-3.0809
X5.1Y-2.7
X5.1Y-2.88
X5.34Y-4.4
X5.38Y-2.44
X5.38Y-2.62
X5.38Y-2.8
X5.4Y-4.36
X5.4Y-4.96
X5.681Y-4.5205
X5.78Y-2.64
X5.78Y-4.1
X5.78Y-4.78
X5.84Y-2.56
X5.8412Y-3.9847
X5.86Y-1.92
X6.6Y-1.98
X6.8Y-1.98
X7.0257Y-2.0625
T2
X4.7Y-2.2
X4.7Y-2.25
X4.7Y-2.3
T3
X5.1Y-2.25
X5.7Y-2.25
X6.Y-2.2
X6.Y-2.5
X6.1Y-2.2
X6.1Y-2.5
X6.2Y-2.2
X6.2Y-2.5
X6.3Y-2.2
X6.3Y-2.5
X6.4Y-2.2
X6.4Y-2.5
X6.5Y-2.2
X6.5Y-2.5
X6.6Y-2.2
X6.6Y-2.5
T4
X4.6898Y-1.7217
X4.6898Y-1.8217
X4.7898Y-1.7217
X4.7898Y-1.8217
X4.8898Y-1.7217
X4.8898Y-1.8217
X4.9898Y-1.7217
X4.9898Y-1.8217
X5.0898Y-1.7217
X5.0898Y-1.8217
X5.1898Y-1.7217
X5.1898Y-1.8217
X5.2898Y-1.7217
X5.2898Y-1.8217
X5.3898Y-1.7217
X5.3898Y-1.8217
X5.4898Y-1.7217
X5.4898Y-1.8217
X5.5898Y-1.7217
X5.5898Y-1.8217
X5.6898Y-1.7217
X5.6898Y-1.8217
X5.7898Y-1.7217
X5.7898Y-1.8217
X5.8898Y-1.7217
X5.8898Y-1.8217
X5.9898Y-1.7217
X5.9898Y-1.8217
X6.0898Y-1.7217
X6.0898Y-1.8217
X6.1898Y-1.7217
X6.1898Y-1.8217
X6.2898Y-1.7217
X6.2898Y-1.8217
X6.3898Y-1.7217
X6.3898Y-1.8217
X6.4898Y-1.7217
X6.4898Y-1.8217
X6.5898Y-1.7217
X6.5898Y-1.8217
T5
X4.2413Y-5.1756
X4.2413Y-5.3756
X4.3413Y-5.1756
X4.3413Y-5.3756
X4.4413Y-5.1756
X4.4413Y-5.3756
X4.5413Y-5.1756
X4.5413Y-5.3756
X4.7413Y-5.1756
X4.7413Y-5.3756
X4.8413Y-5.1756
X4.8413Y-5.3756
X4.9413Y-5.1756
X4.9413Y-5.3756
X5.0413Y-5.1756
X5.0413Y-5.3756
X5.1413Y-5.1756
X5.1413Y-5.3756
X5.2413Y-5.1756
X5.2413Y-5.3756
X5.3413Y-5.1756
X5.3413Y-5.3756
X5.4413Y-5.1756
X5.4413Y-5.3756
X5.5413Y-5.1756
X5.5413Y-5.3756
X5.6413Y-5.1756
X5.6413Y-5.3756
X5.7413Y-5.1756
X5.7413Y-5.3756
X5.8413Y-5.1756
X5.8413Y-5.3756
X5.9413Y-5.1756
X5.9413Y-5.3756
X6.0413Y-5.1756
X6.0413Y-5.3756
X6.1413Y-5.1756
X6.1413Y-5.3756
X6.2413Y-5.1756
X6.2413Y-5.3756
X6.3413Y-5.1756
X6.3413Y-5.3756
X6.4413Y-5.1756
X6.4413Y-5.3756
X6.5413Y-5.1756
X6.5413Y-5.3756
X6.6413Y-5.1756
X6.6413Y-5.3756
X6.7413Y-5.1756
X6.7413Y-5.3756
X6.8413Y-5.1756
X6.8413Y-5.3756
X6.9413Y-5.1756
X6.9413Y-5.3756
T0
M30
